<?xml version="1.0" encoding="utf-8" standalone="no"?>
<!DOCTYPE svg PUBLIC "-//W3C//DTD SVG 1.1//EN"
  "http://www.w3.org/Graphics/SVG/1.1/DTD/svg11.dtd">
<svg xmlns:xlink="http://www.w3.org/1999/xlink" width="520.978959pt" height="266.540094pt" viewBox="0 0 520.978959 266.540094" xmlns="http://www.w3.org/2000/svg" version="1.1">
 <metadata>
  <rdf:RDF xmlns:dc="http://purl.org/dc/elements/1.1/" xmlns:cc="http://creativecommons.org/ns#" xmlns:rdf="http://www.w3.org/1999/02/22-rdf-syntax-ns#">
   <cc:Work>
    <dc:type rdf:resource="http://purl.org/dc/dcmitype/StillImage"/>
    <dc:date>2026-06-14T11:31:08.551278</dc:date>
    <dc:format>image/svg+xml</dc:format>
    <dc:creator>
     <cc:Agent>
      <dc:title>Matplotlib v3.10.5, https://matplotlib.org/</dc:title>
     </cc:Agent>
    </dc:creator>
   </cc:Work>
  </rdf:RDF>
 </metadata>
 <defs>
  <style type="text/css">*{stroke-linejoin: round; stroke-linecap: butt}</style>
 </defs>
 <g id="figure_1">
  <g id="patch_1">
   <path d="M 0 266.540094 
L 520.978959 266.540094 
L 520.978959 0 
L 0 0 
z
" style="fill: #ffffff"/>
  </g>
  <g id="axes_1">
   <g id="patch_2">
    <path d="M 48.982813 242.661969 
L 495.382812 242.661969 
L 495.382812 43.077969 
L 48.982813 43.077969 
z
" style="fill: #ffffff"/>
   </g>
   <g id="FillBetweenPolyCollection_1">
    <defs>
     <path id="m9c5373ef94" d="M 69.273722 -214.390125 
L 69.273722 -214.390125 
L 70.434307 -214.390125 
L 70.821169 -214.390125 
L 71.208031 -214.390125 
L 71.594893 -214.390125 
L 71.981755 -214.390125 
L 73.142341 -214.390125 
L 73.529203 -214.390125 
L 73.916065 -214.390125 
L 74.302927 -214.390125 
L 74.689789 -214.390125 
L 75.850375 -214.390125 
L 76.237237 -214.390125 
L 76.624099 -214.390125 
L 77.010961 -214.390125 
L 77.397822 -214.390125 
L 78.558408 -214.390125 
L 78.94527 -214.390125 
L 79.332132 -214.390125 
L 79.718994 -214.390125 
L 80.105856 -214.390125 
L 81.266442 -214.390125 
L 81.653304 -214.390125 
L 82.040166 -214.390125 
L 82.427028 -214.390125 
L 82.81389 -214.390125 
L 83.974476 -214.390125 
L 84.361338 -214.390125 
L 84.748199 -214.390125 
L 85.135061 -214.390125 
L 85.521923 -214.390125 
L 86.682509 -214.390125 
L 87.069371 -214.390125 
L 87.456233 -214.390125 
L 87.843095 -214.390125 
L 88.229957 -214.390125 
L 89.390543 -214.390125 
L 89.777405 -214.390125 
L 90.164267 -214.390125 
L 90.551129 -214.390125 
L 90.937991 -214.390125 
L 92.098576 -214.390125 
L 92.485438 -214.390125 
L 92.8723 -214.390125 
L 93.259162 -214.390125 
L 93.646024 -214.390125 
L 94.80661 -214.390125 
L 95.193472 -214.390125 
L 95.580334 -214.390125 
L 95.967196 -214.390125 
L 96.354058 -214.390125 
L 97.514644 -214.390125 
L 97.901506 -214.390125 
L 98.288368 -214.390125 
L 98.67523 -214.390125 
L 99.062091 -214.390125 
L 100.222677 -214.390125 
L 100.609539 -214.390125 
L 100.996401 -214.390125 
L 101.383263 -214.390125 
L 101.770125 -214.390125 
L 102.930711 -214.390125 
L 103.317573 -214.390125 
L 103.704435 -214.390125 
L 104.091297 -214.390125 
L 104.478159 -214.390125 
L 105.638745 -214.390125 
L 106.025607 -214.390125 
L 106.412468 -214.390125 
L 106.79933 -214.390125 
L 107.186192 -214.390125 
L 108.346778 -214.390125 
L 108.73364 -214.390125 
L 109.120502 -214.390125 
L 109.507364 -214.390125 
L 109.894226 -214.390125 
L 111.054812 -212.832264 
L 111.441674 -212.832264 
L 111.828536 -212.832264 
L 112.215398 -212.832264 
L 112.60226 -212.832264 
L 113.762845 -212.832264 
L 114.149707 -212.832264 
L 114.536569 -204.472937 
L 114.923431 -182.723658 
L 115.310293 -191.975402 
L 116.470879 -183.656206 
L 116.857741 -184.190686 
L 117.244603 -193.336504 
L 117.631465 -201.902437 
L 118.018327 -200.357064 
L 119.178913 -200.357064 
L 119.565775 -200.357064 
L 119.952637 -200.357064 
L 120.339499 -200.357064 
L 120.72636 -172.539042 
L 121.886946 -148.964755 
L 122.273808 -131.506243 
L 122.66067 -138.895579 
L 123.047532 -123.169051 
L 123.434394 -116.82062 
L 124.59498 -140.062721 
L 124.981842 -134.029375 
L 125.368704 -147.461717 
L 125.755566 -131.146302 
L 126.142428 -127.809705 
L 127.303014 -111.422916 
L 127.689876 -105.805682 
L 128.076737 -120.786498 
L 128.463599 -91.034868 
L 128.850461 -98.821021 
L 130.011047 -103.230816 
L 130.397909 -93.240122 
L 130.784771 -68.80681 
L 131.171633 -70.31247 
L 131.558495 -61.638888 
L 132.719081 -65.849433 
L 133.105943 -66.501007 
L 133.492805 -94.152197 
L 133.879667 -90.315613 
L 134.266529 -73.096879 
L 135.427114 -76.431583 
L 135.813976 -80.469781 
L 136.200838 -104.174541 
L 136.5877 -102.726896 
L 136.974562 -102.726896 
L 138.135148 -102.726896 
L 138.52201 -102.726896 
L 138.908872 -102.726896 
L 139.295734 -102.726896 
L 139.682596 -102.726896 
L 140.843182 -102.726896 
L 141.230044 -112.636938 
L 141.616906 -111.18083 
L 142.003768 -111.18083 
L 142.390629 -92.393437 
L 143.551215 -98.093855 
L 143.938077 -112.956827 
L 144.324939 -148.573771 
L 144.711801 -147.081726 
L 145.098663 -147.081726 
L 146.259249 -147.081726 
L 146.646111 -147.081726 
L 147.032973 -147.081726 
L 147.419835 -147.081726 
L 147.806697 -147.081726 
L 148.967283 -147.081726 
L 149.354145 -147.081726 
L 149.741006 -147.081726 
L 150.127868 -147.081726 
L 150.51473 -147.081726 
L 151.675316 -147.081726 
L 152.062178 -147.081726 
L 152.44904 -137.214502 
L 152.835902 -136.555166 
L 153.222764 -168.591965 
L 154.38335 -167.079902 
L 154.770212 -167.079902 
L 155.157074 -167.079902 
L 155.543936 -167.079902 
L 155.930798 -167.079902 
L 157.091383 -152.780024 
L 157.478245 -191.795977 
L 157.865107 -190.26071 
L 158.251969 -190.26071 
L 158.638831 -190.26071 
L 159.799417 -190.26071 
L 160.186279 -190.26071 
L 160.573141 -190.26071 
L 160.960003 -190.26071 
L 161.346865 -190.26071 
L 162.507451 -190.26071 
L 162.894313 -190.26071 
L 163.281175 -190.26071 
L 163.668037 -165.688358 
L 164.054898 -169.119636 
L 165.215484 -198.363473 
L 165.602346 -196.821639 
L 165.989208 -196.821639 
L 166.37607 -196.821639 
L 166.762932 -196.821639 
L 167.923518 -196.821639 
L 168.31038 -196.821639 
L 168.697242 -196.821639 
L 169.084104 -196.821639 
L 169.470966 -196.821639 
L 170.631552 -196.821639 
L 171.018414 -196.821639 
L 171.405275 -196.821639 
L 171.792137 -196.821639 
L 172.178999 -196.821639 
L 173.339585 -196.821639 
L 173.726447 -196.821639 
L 174.113309 -196.821639 
L 174.500171 -196.821639 
L 174.887033 -196.821639 
L 176.047619 -196.821639 
L 176.434481 -196.821639 
L 176.821343 -196.821639 
L 177.208205 -196.821639 
L 177.595067 -196.821639 
L 178.755652 -196.821639 
L 179.142514 -196.821639 
L 179.529376 -196.821639 
L 179.916238 -196.821639 
L 180.3031 -196.821639 
L 181.463686 -196.821639 
L 181.850548 -196.821639 
L 182.23741 -196.821639 
L 182.624272 -196.821639 
L 183.011134 -196.821639 
L 184.17172 -196.821639 
L 184.558582 -196.821639 
L 184.945444 -196.821639 
L 185.332306 -196.821639 
L 185.719167 -214.239609 
L 186.879753 -212.681899 
L 187.266615 -212.681899 
L 187.653477 -212.681899 
L 188.040339 -212.681899 
L 188.427201 -212.681899 
L 189.587787 -212.681899 
L 189.974649 -212.681899 
L 190.361511 -212.681899 
L 190.748373 -213.128055 
L 191.135235 -211.571456 
L 192.295821 -211.571456 
L 192.682683 -211.571456 
L 193.069544 -211.571456 
L 193.456406 -211.571456 
L 193.843268 -211.571456 
L 195.003854 -211.571456 
L 195.390716 -211.571456 
L 195.777578 -211.571456 
L 196.16444 -211.571456 
L 196.551302 -211.571456 
L 197.711888 -211.571456 
L 198.09875 -207.29438 
L 198.485612 -187.955467 
L 198.872474 -178.561117 
L 199.259336 -162.931013 
L 200.419921 -161.528979 
L 200.806783 -130.411608 
L 201.193645 -104.981305 
L 201.580507 -142.764732 
L 201.967369 -120.272949 
L 203.127955 -101.423168 
L 203.514817 -133.921981 
L 203.901679 -186.639312 
L 204.288541 -185.109202 
L 204.675403 -185.109202 
L 205.835989 -185.109202 
L 206.222851 -185.109202 
L 206.609713 -185.109202 
L 206.996575 -185.109202 
L 207.383436 -185.109202 
L 208.544022 -185.109202 
L 208.930884 -185.109202 
L 209.317746 -185.109202 
L 209.704608 -185.109202 
L 210.09147 -185.109202 
L 211.252056 -185.109202 
L 211.638918 -185.109202 
L 212.02578 -185.109202 
L 212.412642 -185.109202 
L 212.799504 -185.109202 
L 213.96009 -185.109202 
L 214.346952 -185.109202 
L 214.733813 -185.109202 
L 215.120675 -185.109202 
L 215.507537 -185.109202 
L 216.668123 -185.109202 
L 217.054985 -185.109202 
L 217.441847 -185.109202 
L 217.828709 -185.109202 
L 218.215571 -185.109202 
L 219.376157 -185.109202 
L 219.763019 -185.109202 
L 220.149881 -185.109202 
L 220.536743 -185.109202 
L 220.923605 -185.109202 
L 222.08419 -185.109202 
L 222.471052 -185.109202 
L 222.857914 -185.109202 
L 223.244776 -185.109202 
L 223.631638 -185.109202 
L 224.792224 -185.109202 
L 225.179086 -185.109202 
L 225.565948 -185.109202 
L 225.95281 -185.109202 
L 226.339672 -185.109202 
L 227.500258 -185.109202 
L 227.88712 -185.109202 
L 228.273982 -185.109202 
L 228.660844 -185.109202 
L 229.047705 -185.109202 
L 230.208291 -185.109202 
L 230.595153 -185.109202 
L 230.982015 -185.109202 
L 231.368877 -189.915837 
L 231.755739 -188.382451 
L 232.916325 -188.382451 
L 233.303187 -188.382451 
L 233.690049 -188.382451 
L 234.076911 -188.382451 
L 234.463773 -188.382451 
L 235.624359 -181.02004 
L 236.011221 -205.299114 
L 236.398082 -203.750345 
L 236.784944 -203.750345 
L 237.171806 -203.750345 
L 238.332392 -203.750345 
L 238.719254 -203.750345 
L 239.106116 -203.750345 
L 239.492978 -203.750345 
L 239.87984 -203.750345 
L 241.040426 -203.750345 
L 241.427288 -203.750345 
L 241.81415 -203.750345 
L 242.201012 -203.750345 
L 242.587874 -203.750345 
L 243.748459 -203.750345 
L 244.135321 -203.750345 
L 244.522183 -203.750345 
L 244.909045 -203.750345 
L 245.295907 -203.750345 
L 246.456493 -203.750345 
L 246.843355 -203.750345 
L 247.230217 -203.750345 
L 247.617079 -203.750345 
L 248.003941 -203.750345 
L 249.164527 -203.750345 
L 249.551389 -203.750345 
L 249.938251 -203.750345 
L 250.325113 -203.750345 
L 250.711974 -203.750345 
L 251.87256 -203.750345 
L 252.259422 -203.750345 
L 252.646284 -203.750345 
L 253.033146 -203.750345 
L 253.420008 -203.750345 
L 254.580594 -203.750345 
L 254.967456 -203.750345 
L 255.354318 -203.750345 
L 255.74118 -203.750345 
L 256.128042 -203.750345 
L 257.288628 -203.750345 
L 257.67549 -203.750345 
L 258.062351 -203.750345 
L 258.449213 -214.390125 
L 258.836075 -212.832264 
L 259.996661 -212.832264 
L 260.383523 -212.832264 
L 260.770385 -212.832264 
L 261.157247 -212.832264 
L 261.544109 -212.832264 
L 262.704695 -212.832264 
L 263.091557 -212.832264 
L 263.478419 -212.832264 
L 263.865281 -212.832264 
L 264.252143 -212.832264 
L 265.412728 -212.832264 
L 265.79959 -212.832264 
L 266.186452 -212.832264 
L 266.573314 -212.832264 
L 266.960176 -212.832264 
L 268.120762 -212.832264 
L 268.507624 -212.832264 
L 268.894486 -212.832264 
L 269.281348 -212.832264 
L 269.66821 -212.832264 
L 270.828796 -212.832264 
L 271.215658 -212.832264 
L 271.60252 -212.832264 
L 271.989382 -212.832264 
L 272.376243 -212.832264 
L 273.536829 -212.832264 
L 273.923691 -212.832264 
L 274.310553 -212.832264 
L 274.697415 -212.832264 
L 275.084277 -212.832264 
L 276.244863 -212.832264 
L 276.631725 -212.832264 
L 277.018587 -212.832264 
L 277.405449 -212.832264 
L 277.792311 -212.832264 
L 278.952897 -212.832264 
L 279.339759 -212.832264 
L 279.72662 -212.832264 
L 280.113482 -212.832264 
L 280.500344 -212.832264 
L 281.66093 -212.832264 
L 282.047792 -212.832264 
L 282.434654 -214.390125 
L 282.821516 -212.832264 
L 283.208378 -212.832264 
L 284.368964 -212.832264 
L 284.755826 -212.832264 
L 285.142688 -212.832264 
L 285.52955 -212.832264 
L 285.916412 -212.832264 
L 287.076997 -212.832264 
L 287.463859 -212.832264 
L 287.850721 -212.832264 
L 288.237583 -212.832264 
L 288.624445 -212.832264 
L 289.785031 -212.832264 
L 290.171893 -212.832264 
L 290.558755 -212.832264 
L 290.945617 -212.832264 
L 291.332479 -184.145728 
L 292.493065 -142.257821 
L 292.879927 -130.509065 
L 293.266789 -144.122143 
L 293.653651 -139.341861 
L 294.040512 -143.162765 
L 295.201098 -163.022783 
L 295.58796 -187.522976 
L 295.974822 -185.991982 
L 296.361684 -185.991982 
L 296.748546 -185.991982 
L 297.909132 -185.991982 
L 298.295994 -185.991982 
L 298.682856 -185.991982 
L 299.069718 -168.551344 
L 299.45658 -162.370467 
L 300.617166 -177.265677 
L 301.004028 -209.304704 
L 301.390889 -207.751929 
L 301.777751 -213.842064 
L 302.164613 -212.284751 
L 303.325199 -214.390125 
L 303.712061 -212.832264 
L 304.098923 -212.832264 
L 304.485785 -214.390125 
L 304.872647 -203.430348 
L 306.033233 -193.858774 
L 306.420095 -174.553735 
L 306.806957 -162.983047 
L 307.193819 -171.040977 
L 307.580681 -167.907772 
L 308.741266 -174.183834 
L 309.128128 -181.094318 
L 309.51499 -205.757814 
L 309.901852 -204.208586 
L 310.288714 -204.208586 
L 311.4493 -214.390125 
L 311.836162 -212.832264 
L 312.223024 -212.832264 
L 312.609886 -212.832264 
L 312.996748 -212.832264 
L 314.157334 -212.832264 
L 314.544196 -212.832264 
L 314.931058 -212.832264 
L 315.31792 -212.832264 
L 315.704781 -212.832264 
L 316.865367 -212.832264 
L 317.252229 -212.832264 
L 317.639091 -212.832264 
L 318.025953 -212.832264 
L 318.412815 -212.832264 
L 319.573401 -212.832264 
L 319.960263 -212.832264 
L 320.347125 -212.832264 
L 320.733987 -212.832264 
L 321.120849 -212.832264 
L 322.281435 -212.832264 
L 322.668297 -212.832264 
L 323.055158 -212.832264 
L 323.44202 -212.832264 
L 323.828882 -212.832264 
L 324.989468 -212.832264 
L 325.37633 -212.832264 
L 325.763192 -212.832264 
L 326.150054 -212.832264 
L 326.536916 -212.832264 
L 327.697502 -212.832264 
L 328.084364 -212.832264 
L 328.471226 -212.832264 
L 328.858088 -212.832264 
L 329.24495 -212.832264 
L 330.405535 -212.832264 
L 330.792397 -212.832264 
L 331.179259 -212.832264 
L 331.566121 -212.832264 
L 331.952983 -212.832264 
L 333.113569 -212.832264 
L 333.500431 -212.832264 
L 333.887293 -212.832264 
L 334.274155 -212.832264 
L 334.661017 -212.832264 
L 335.821603 -212.832264 
L 336.208465 -212.832264 
L 336.595327 -212.832264 
L 336.982189 -212.832264 
L 337.36905 -212.832264 
L 338.529636 -212.832264 
L 338.916498 -212.832264 
L 339.30336 -212.832264 
L 339.690222 -212.832264 
L 340.077084 -212.832264 
L 341.23767 -212.832264 
L 341.624532 -212.832264 
L 342.011394 -212.832264 
L 342.398256 -212.832264 
L 342.785118 -201.468133 
L 343.945704 -214.390125 
L 344.332566 -212.832264 
L 344.719427 -212.832264 
L 345.106289 -214.390125 
L 345.493151 -212.832264 
L 346.653737 -206.043336 
L 347.040599 -208.204445 
L 347.427461 -206.912116 
L 347.814323 -214.390125 
L 348.201185 -214.390125 
L 349.361771 -212.832264 
L 349.748633 -212.832264 
L 350.135495 -212.832264 
L 350.522357 -212.832264 
L 350.909219 -212.832264 
L 352.069804 -212.832264 
L 352.456666 -212.832264 
L 352.843528 -212.832264 
L 353.23039 -212.832264 
L 353.617252 -212.832264 
L 354.777838 -212.832264 
L 355.1647 -212.832264 
L 355.551562 -212.832264 
L 355.938424 -212.832264 
L 356.325286 -212.832264 
L 357.485872 -212.832264 
L 357.872734 -212.832264 
L 358.259596 -212.832264 
L 358.646458 -212.832264 
L 359.033319 -212.832264 
L 360.193905 -212.832264 
L 360.580767 -212.832264 
L 360.967629 -212.832264 
L 361.354491 -212.832264 
L 361.741353 -212.832264 
L 362.901939 -212.832264 
L 363.288801 -214.390125 
L 363.675663 -212.832264 
L 364.062525 -212.832264 
L 364.449387 -208.616618 
L 365.609973 -212.720567 
L 365.996835 -194.307902 
L 366.383696 -207.717323 
L 366.770558 -214.390125 
L 367.15742 -212.832264 
L 368.318006 -212.832264 
L 368.704868 -212.832264 
L 369.09173 -212.832264 
L 369.478592 -212.832264 
L 369.865454 -212.832264 
L 371.02604 -212.832264 
L 371.412902 -212.832264 
L 371.799764 -212.832264 
L 372.186626 -195.073301 
L 372.573488 -194.076395 
L 373.734073 -200.565493 
L 374.120935 -201.822393 
L 374.507797 -187.997946 
L 374.894659 -204.940523 
L 375.281521 -203.392112 
L 376.442107 -203.392112 
L 376.828969 -203.392112 
L 377.215831 -203.392112 
L 377.602693 -203.392112 
L 377.989555 -203.392112 
L 379.150141 -200.893042 
L 379.537003 -206.066704 
L 379.923865 -204.517167 
L 380.310727 -206.810037 
L 380.697588 -180.285036 
L 381.858174 -205.223925 
L 382.245036 -214.390125 
L 382.631898 -212.832264 
L 383.01876 -212.832264 
L 383.405622 -212.832264 
L 384.566208 -190.136578 
L 384.95307 -185.045272 
L 385.339932 -165.807791 
L 385.726794 -179.106573 
L 386.113656 -214.390125 
L 387.274242 -212.832264 
L 387.661104 -196.022306 
L 388.047965 -200.68691 
L 388.434827 -214.390125 
L 388.821689 -212.832264 
L 389.982275 -214.390125 
L 390.369137 -214.390125 
L 390.755999 -212.832264 
L 391.142861 -212.832264 
L 391.529723 -203.694626 
L 392.690309 -194.367054 
L 393.077171 -209.746805 
L 393.464033 -214.390125 
L 393.850895 -181.864319 
L 394.237757 -191.634626 
L 395.398342 -181.337343 
L 395.785204 -205.145712 
L 396.172066 -193.83424 
L 396.558928 -182.440076 
L 396.94579 -192.68814 
L 398.106376 -207.126517 
L 398.493238 -205.57592 
L 398.8801 -205.57592 
L 399.266962 -214.372361 
L 399.653824 -212.814518 
L 400.81441 -214.390125 
L 401.201272 -188.306764 
L 401.588134 -196.840798 
L 401.974996 -182.308883 
L 402.361857 -159.305002 
L 403.522443 -172.536001 
L 403.909305 -177.242509 
L 404.296167 -166.381432 
L 404.683029 -193.21179 
L 405.069891 -185.413268 
L 406.230477 -186.308374 
L 406.617339 -191.55986 
L 407.004201 -180.492483 
L 407.391063 -189.439368 
L 407.777925 -187.906458 
L 408.938511 -179.134048 
L 409.325373 -204.545483 
L 409.712234 -202.997467 
L 410.099096 -157.618032 
L 410.485958 -187.224343 
L 411.646544 -214.390125 
L 412.033406 -212.832264 
L 412.420268 -212.832264 
L 412.80713 -205.798399 
L 413.193992 -200.795113 
L 414.354578 -197.587787 
L 414.74144 -177.439321 
L 415.128302 -188.360047 
L 415.515164 -198.340262 
L 415.902026 -171.240523 
L 417.062611 -184.308487 
L 417.449473 -214.390125 
L 417.836335 -212.832264 
L 418.223197 -212.832264 
L 418.610059 -212.832264 
L 419.770645 -212.832264 
L 420.157507 -212.832264 
L 420.544369 -212.832264 
L 420.931231 -212.832264 
L 421.318093 -214.390125 
L 422.478679 -212.832264 
L 422.865541 -212.832264 
L 423.252403 -212.832264 
L 423.639265 -212.832264 
L 424.026126 -212.832264 
L 425.186712 -212.832264 
L 425.573574 -212.832264 
L 425.960436 -212.832264 
L 426.347298 -212.832264 
L 426.73416 -212.832264 
L 427.894746 -212.832264 
L 428.281608 -212.832264 
L 428.66847 -212.832264 
L 429.055332 -212.832264 
L 429.442194 -212.832264 
L 430.60278 -181.69845 
L 430.989642 -190.853654 
L 431.376503 -181.564512 
L 431.763365 -135.639321 
L 432.150227 -149.934225 
L 433.310813 -155.122999 
L 433.697675 -142.637322 
L 434.084537 -119.63106 
L 434.471399 -134.674959 
L 434.858261 -141.18156 
L 436.018847 -184.547806 
L 436.405709 -183.019788 
L 436.792571 -183.019788 
L 437.179433 -183.019788 
L 437.566295 -183.019788 
L 438.72688 -183.019788 
L 439.113742 -183.019788 
L 439.500604 -183.019788 
L 439.887466 -183.019788 
L 440.274328 -183.019788 
L 441.434914 -183.019788 
L 441.821776 -183.019788 
L 442.208638 -183.019788 
L 442.5955 -183.019788 
L 442.982362 -183.019788 
L 444.142948 -183.019788 
L 444.52981 -183.019788 
L 444.916672 -183.019788 
L 445.303534 -183.019788 
L 445.690395 -183.019788 
L 446.850981 -183.019788 
L 447.237843 -164.244965 
L 447.624705 -148.076288 
L 448.011567 -144.778764 
L 448.398429 -165.090219 
L 449.559015 -160.961325 
L 449.945877 -142.763697 
L 450.332739 -142.045344 
L 450.719601 -161.167242 
L 451.106463 -143.945907 
L 452.267049 -128.075811 
L 452.653911 -138.268426 
L 453.040772 -134.630144 
L 453.427634 -146.457403 
L 453.814496 -146.511397 
L 454.975082 -159.410503 
L 455.361944 -157.907621 
L 455.748806 -156.488798 
L 456.135668 -153.000534 
L 456.52253 -131.619493 
L 457.683116 -104.491809 
L 458.069978 -116.748249 
L 458.45684 -110.902418 
L 458.843702 -93.45744 
L 459.230564 -92.087053 
L 460.391149 -111.942253 
L 460.778011 -72.932676 
L 461.164873 -47.999883 
L 461.551735 -32.950125 
L 461.938597 -57.577499 
L 463.099183 -62.617769 
L 463.486045 -75.908396 
L 463.872907 -56.900844 
L 464.259769 -38.489823 
L 464.646631 -46.214052 
L 465.807217 -47.464346 
L 466.194079 -56.933741 
L 466.580941 -54.062986 
L 466.967803 -59.01583 
L 467.354664 -61.960533 
L 468.51525 -75.422869 
L 468.902112 -74.003976 
L 469.288974 -74.003976 
L 469.675836 -74.003976 
L 470.062698 -90.015663 
L 471.223284 -110.883849 
L 471.610146 -109.429495 
L 471.997008 -76.194093 
L 472.38387 -78.16655 
L 472.770732 -94.42289 
L 473.931318 -126.070717 
L 474.31818 -124.601176 
L 474.705041 -124.601176 
L 475.091903 -124.601176 
L 475.091903 -214.390125 
L 475.091903 -214.390125 
L 474.705041 -214.390125 
L 474.31818 -214.390125 
L 473.931318 -214.390125 
L 472.770732 -214.390125 
L 472.38387 -214.390125 
L 471.997008 -214.390125 
L 471.610146 -214.390125 
L 471.223284 -214.390125 
L 470.062698 -214.390125 
L 469.675836 -214.390125 
L 469.288974 -214.390125 
L 468.902112 -214.390125 
L 468.51525 -214.390125 
L 467.354664 -214.390125 
L 466.967803 -214.390125 
L 466.580941 -214.390125 
L 466.194079 -214.390125 
L 465.807217 -214.390125 
L 464.646631 -214.390125 
L 464.259769 -214.390125 
L 463.872907 -214.390125 
L 463.486045 -214.390125 
L 463.099183 -214.390125 
L 461.938597 -214.390125 
L 461.551735 -214.390125 
L 461.164873 -214.390125 
L 460.778011 -214.390125 
L 460.391149 -214.390125 
L 459.230564 -214.390125 
L 458.843702 -214.390125 
L 458.45684 -214.390125 
L 458.069978 -214.390125 
L 457.683116 -214.390125 
L 456.52253 -214.390125 
L 456.135668 -214.390125 
L 455.748806 -214.390125 
L 455.361944 -214.390125 
L 454.975082 -214.390125 
L 453.814496 -214.390125 
L 453.427634 -214.390125 
L 453.040772 -214.390125 
L 452.653911 -214.390125 
L 452.267049 -214.390125 
L 451.106463 -214.390125 
L 450.719601 -214.390125 
L 450.332739 -214.390125 
L 449.945877 -214.390125 
L 449.559015 -214.390125 
L 448.398429 -214.390125 
L 448.011567 -214.390125 
L 447.624705 -214.390125 
L 447.237843 -214.390125 
L 446.850981 -214.390125 
L 445.690395 -214.390125 
L 445.303534 -214.390125 
L 444.916672 -214.390125 
L 444.52981 -214.390125 
L 444.142948 -214.390125 
L 442.982362 -214.390125 
L 442.5955 -214.390125 
L 442.208638 -214.390125 
L 441.821776 -214.390125 
L 441.434914 -214.390125 
L 440.274328 -214.390125 
L 439.887466 -214.390125 
L 439.500604 -214.390125 
L 439.113742 -214.390125 
L 438.72688 -214.390125 
L 437.566295 -214.390125 
L 437.179433 -214.390125 
L 436.792571 -214.390125 
L 436.405709 -214.390125 
L 436.018847 -214.390125 
L 434.858261 -214.390125 
L 434.471399 -214.390125 
L 434.084537 -214.390125 
L 433.697675 -214.390125 
L 433.310813 -214.390125 
L 432.150227 -214.390125 
L 431.763365 -214.390125 
L 431.376503 -214.390125 
L 430.989642 -214.390125 
L 430.60278 -214.390125 
L 429.442194 -214.390125 
L 429.055332 -214.390125 
L 428.66847 -214.390125 
L 428.281608 -214.390125 
L 427.894746 -214.390125 
L 426.73416 -214.390125 
L 426.347298 -214.390125 
L 425.960436 -214.390125 
L 425.573574 -214.390125 
L 425.186712 -214.390125 
L 424.026126 -214.390125 
L 423.639265 -214.390125 
L 423.252403 -214.390125 
L 422.865541 -214.390125 
L 422.478679 -214.390125 
L 421.318093 -214.390125 
L 420.931231 -214.390125 
L 420.544369 -214.390125 
L 420.157507 -214.390125 
L 419.770645 -214.390125 
L 418.610059 -214.390125 
L 418.223197 -214.390125 
L 417.836335 -214.390125 
L 417.449473 -214.390125 
L 417.062611 -214.390125 
L 415.902026 -214.390125 
L 415.515164 -214.390125 
L 415.128302 -214.390125 
L 414.74144 -214.390125 
L 414.354578 -214.390125 
L 413.193992 -214.390125 
L 412.80713 -214.390125 
L 412.420268 -214.390125 
L 412.033406 -214.390125 
L 411.646544 -214.390125 
L 410.485958 -214.390125 
L 410.099096 -214.390125 
L 409.712234 -214.390125 
L 409.325373 -214.390125 
L 408.938511 -214.390125 
L 407.777925 -214.390125 
L 407.391063 -214.390125 
L 407.004201 -214.390125 
L 406.617339 -214.390125 
L 406.230477 -214.390125 
L 405.069891 -214.390125 
L 404.683029 -214.390125 
L 404.296167 -214.390125 
L 403.909305 -214.390125 
L 403.522443 -214.390125 
L 402.361857 -214.390125 
L 401.974996 -214.390125 
L 401.588134 -214.390125 
L 401.201272 -214.390125 
L 400.81441 -214.390125 
L 399.653824 -214.390125 
L 399.266962 -214.390125 
L 398.8801 -214.390125 
L 398.493238 -214.390125 
L 398.106376 -214.390125 
L 396.94579 -214.390125 
L 396.558928 -214.390125 
L 396.172066 -214.390125 
L 395.785204 -214.390125 
L 395.398342 -214.390125 
L 394.237757 -214.390125 
L 393.850895 -214.390125 
L 393.464033 -214.390125 
L 393.077171 -214.390125 
L 392.690309 -214.390125 
L 391.529723 -214.390125 
L 391.142861 -214.390125 
L 390.755999 -214.390125 
L 390.369137 -214.390125 
L 389.982275 -214.390125 
L 388.821689 -214.390125 
L 388.434827 -214.390125 
L 388.047965 -214.390125 
L 387.661104 -214.390125 
L 387.274242 -214.390125 
L 386.113656 -214.390125 
L 385.726794 -214.390125 
L 385.339932 -214.390125 
L 384.95307 -214.390125 
L 384.566208 -214.390125 
L 383.405622 -214.390125 
L 383.01876 -214.390125 
L 382.631898 -214.390125 
L 382.245036 -214.390125 
L 381.858174 -214.390125 
L 380.697588 -214.390125 
L 380.310727 -214.390125 
L 379.923865 -214.390125 
L 379.537003 -214.390125 
L 379.150141 -214.390125 
L 377.989555 -214.390125 
L 377.602693 -214.390125 
L 377.215831 -214.390125 
L 376.828969 -214.390125 
L 376.442107 -214.390125 
L 375.281521 -214.390125 
L 374.894659 -214.390125 
L 374.507797 -214.390125 
L 374.120935 -214.390125 
L 373.734073 -214.390125 
L 372.573488 -214.390125 
L 372.186626 -214.390125 
L 371.799764 -214.390125 
L 371.412902 -214.390125 
L 371.02604 -214.390125 
L 369.865454 -214.390125 
L 369.478592 -214.390125 
L 369.09173 -214.390125 
L 368.704868 -214.390125 
L 368.318006 -214.390125 
L 367.15742 -214.390125 
L 366.770558 -214.390125 
L 366.383696 -214.390125 
L 365.996835 -214.390125 
L 365.609973 -214.390125 
L 364.449387 -214.390125 
L 364.062525 -214.390125 
L 363.675663 -214.390125 
L 363.288801 -214.390125 
L 362.901939 -214.390125 
L 361.741353 -214.390125 
L 361.354491 -214.390125 
L 360.967629 -214.390125 
L 360.580767 -214.390125 
L 360.193905 -214.390125 
L 359.033319 -214.390125 
L 358.646458 -214.390125 
L 358.259596 -214.390125 
L 357.872734 -214.390125 
L 357.485872 -214.390125 
L 356.325286 -214.390125 
L 355.938424 -214.390125 
L 355.551562 -214.390125 
L 355.1647 -214.390125 
L 354.777838 -214.390125 
L 353.617252 -214.390125 
L 353.23039 -214.390125 
L 352.843528 -214.390125 
L 352.456666 -214.390125 
L 352.069804 -214.390125 
L 350.909219 -214.390125 
L 350.522357 -214.390125 
L 350.135495 -214.390125 
L 349.748633 -214.390125 
L 349.361771 -214.390125 
L 348.201185 -214.390125 
L 347.814323 -214.390125 
L 347.427461 -214.390125 
L 347.040599 -214.390125 
L 346.653737 -214.390125 
L 345.493151 -214.390125 
L 345.106289 -214.390125 
L 344.719427 -214.390125 
L 344.332566 -214.390125 
L 343.945704 -214.390125 
L 342.785118 -214.390125 
L 342.398256 -214.390125 
L 342.011394 -214.390125 
L 341.624532 -214.390125 
L 341.23767 -214.390125 
L 340.077084 -214.390125 
L 339.690222 -214.390125 
L 339.30336 -214.390125 
L 338.916498 -214.390125 
L 338.529636 -214.390125 
L 337.36905 -214.390125 
L 336.982189 -214.390125 
L 336.595327 -214.390125 
L 336.208465 -214.390125 
L 335.821603 -214.390125 
L 334.661017 -214.390125 
L 334.274155 -214.390125 
L 333.887293 -214.390125 
L 333.500431 -214.390125 
L 333.113569 -214.390125 
L 331.952983 -214.390125 
L 331.566121 -214.390125 
L 331.179259 -214.390125 
L 330.792397 -214.390125 
L 330.405535 -214.390125 
L 329.24495 -214.390125 
L 328.858088 -214.390125 
L 328.471226 -214.390125 
L 328.084364 -214.390125 
L 327.697502 -214.390125 
L 326.536916 -214.390125 
L 326.150054 -214.390125 
L 325.763192 -214.390125 
L 325.37633 -214.390125 
L 324.989468 -214.390125 
L 323.828882 -214.390125 
L 323.44202 -214.390125 
L 323.055158 -214.390125 
L 322.668297 -214.390125 
L 322.281435 -214.390125 
L 321.120849 -214.390125 
L 320.733987 -214.390125 
L 320.347125 -214.390125 
L 319.960263 -214.390125 
L 319.573401 -214.390125 
L 318.412815 -214.390125 
L 318.025953 -214.390125 
L 317.639091 -214.390125 
L 317.252229 -214.390125 
L 316.865367 -214.390125 
L 315.704781 -214.390125 
L 315.31792 -214.390125 
L 314.931058 -214.390125 
L 314.544196 -214.390125 
L 314.157334 -214.390125 
L 312.996748 -214.390125 
L 312.609886 -214.390125 
L 312.223024 -214.390125 
L 311.836162 -214.390125 
L 311.4493 -214.390125 
L 310.288714 -214.390125 
L 309.901852 -214.390125 
L 309.51499 -214.390125 
L 309.128128 -214.390125 
L 308.741266 -214.390125 
L 307.580681 -214.390125 
L 307.193819 -214.390125 
L 306.806957 -214.390125 
L 306.420095 -214.390125 
L 306.033233 -214.390125 
L 304.872647 -214.390125 
L 304.485785 -214.390125 
L 304.098923 -214.390125 
L 303.712061 -214.390125 
L 303.325199 -214.390125 
L 302.164613 -214.390125 
L 301.777751 -214.390125 
L 301.390889 -214.390125 
L 301.004028 -214.390125 
L 300.617166 -214.390125 
L 299.45658 -214.390125 
L 299.069718 -214.390125 
L 298.682856 -214.390125 
L 298.295994 -214.390125 
L 297.909132 -214.390125 
L 296.748546 -214.390125 
L 296.361684 -214.390125 
L 295.974822 -214.390125 
L 295.58796 -214.390125 
L 295.201098 -214.390125 
L 294.040512 -214.390125 
L 293.653651 -214.390125 
L 293.266789 -214.390125 
L 292.879927 -214.390125 
L 292.493065 -214.390125 
L 291.332479 -214.390125 
L 290.945617 -214.390125 
L 290.558755 -214.390125 
L 290.171893 -214.390125 
L 289.785031 -214.390125 
L 288.624445 -214.390125 
L 288.237583 -214.390125 
L 287.850721 -214.390125 
L 287.463859 -214.390125 
L 287.076997 -214.390125 
L 285.916412 -214.390125 
L 285.52955 -214.390125 
L 285.142688 -214.390125 
L 284.755826 -214.390125 
L 284.368964 -214.390125 
L 283.208378 -214.390125 
L 282.821516 -214.390125 
L 282.434654 -214.390125 
L 282.047792 -214.390125 
L 281.66093 -214.390125 
L 280.500344 -214.390125 
L 280.113482 -214.390125 
L 279.72662 -214.390125 
L 279.339759 -214.390125 
L 278.952897 -214.390125 
L 277.792311 -214.390125 
L 277.405449 -214.390125 
L 277.018587 -214.390125 
L 276.631725 -214.390125 
L 276.244863 -214.390125 
L 275.084277 -214.390125 
L 274.697415 -214.390125 
L 274.310553 -214.390125 
L 273.923691 -214.390125 
L 273.536829 -214.390125 
L 272.376243 -214.390125 
L 271.989382 -214.390125 
L 271.60252 -214.390125 
L 271.215658 -214.390125 
L 270.828796 -214.390125 
L 269.66821 -214.390125 
L 269.281348 -214.390125 
L 268.894486 -214.390125 
L 268.507624 -214.390125 
L 268.120762 -214.390125 
L 266.960176 -214.390125 
L 266.573314 -214.390125 
L 266.186452 -214.390125 
L 265.79959 -214.390125 
L 265.412728 -214.390125 
L 264.252143 -214.390125 
L 263.865281 -214.390125 
L 263.478419 -214.390125 
L 263.091557 -214.390125 
L 262.704695 -214.390125 
L 261.544109 -214.390125 
L 261.157247 -214.390125 
L 260.770385 -214.390125 
L 260.383523 -214.390125 
L 259.996661 -214.390125 
L 258.836075 -214.390125 
L 258.449213 -214.390125 
L 258.062351 -214.390125 
L 257.67549 -214.390125 
L 257.288628 -214.390125 
L 256.128042 -214.390125 
L 255.74118 -214.390125 
L 255.354318 -214.390125 
L 254.967456 -214.390125 
L 254.580594 -214.390125 
L 253.420008 -214.390125 
L 253.033146 -214.390125 
L 252.646284 -214.390125 
L 252.259422 -214.390125 
L 251.87256 -214.390125 
L 250.711974 -214.390125 
L 250.325113 -214.390125 
L 249.938251 -214.390125 
L 249.551389 -214.390125 
L 249.164527 -214.390125 
L 248.003941 -214.390125 
L 247.617079 -214.390125 
L 247.230217 -214.390125 
L 246.843355 -214.390125 
L 246.456493 -214.390125 
L 245.295907 -214.390125 
L 244.909045 -214.390125 
L 244.522183 -214.390125 
L 244.135321 -214.390125 
L 243.748459 -214.390125 
L 242.587874 -214.390125 
L 242.201012 -214.390125 
L 241.81415 -214.390125 
L 241.427288 -214.390125 
L 241.040426 -214.390125 
L 239.87984 -214.390125 
L 239.492978 -214.390125 
L 239.106116 -214.390125 
L 238.719254 -214.390125 
L 238.332392 -214.390125 
L 237.171806 -214.390125 
L 236.784944 -214.390125 
L 236.398082 -214.390125 
L 236.011221 -214.390125 
L 235.624359 -214.390125 
L 234.463773 -214.390125 
L 234.076911 -214.390125 
L 233.690049 -214.390125 
L 233.303187 -214.390125 
L 232.916325 -214.390125 
L 231.755739 -214.390125 
L 231.368877 -214.390125 
L 230.982015 -214.390125 
L 230.595153 -214.390125 
L 230.208291 -214.390125 
L 229.047705 -214.390125 
L 228.660844 -214.390125 
L 228.273982 -214.390125 
L 227.88712 -214.390125 
L 227.500258 -214.390125 
L 226.339672 -214.390125 
L 225.95281 -214.390125 
L 225.565948 -214.390125 
L 225.179086 -214.390125 
L 224.792224 -214.390125 
L 223.631638 -214.390125 
L 223.244776 -214.390125 
L 222.857914 -214.390125 
L 222.471052 -214.390125 
L 222.08419 -214.390125 
L 220.923605 -214.390125 
L 220.536743 -214.390125 
L 220.149881 -214.390125 
L 219.763019 -214.390125 
L 219.376157 -214.390125 
L 218.215571 -214.390125 
L 217.828709 -214.390125 
L 217.441847 -214.390125 
L 217.054985 -214.390125 
L 216.668123 -214.390125 
L 215.507537 -214.390125 
L 215.120675 -214.390125 
L 214.733813 -214.390125 
L 214.346952 -214.390125 
L 213.96009 -214.390125 
L 212.799504 -214.390125 
L 212.412642 -214.390125 
L 212.02578 -214.390125 
L 211.638918 -214.390125 
L 211.252056 -214.390125 
L 210.09147 -214.390125 
L 209.704608 -214.390125 
L 209.317746 -214.390125 
L 208.930884 -214.390125 
L 208.544022 -214.390125 
L 207.383436 -214.390125 
L 206.996575 -214.390125 
L 206.609713 -214.390125 
L 206.222851 -214.390125 
L 205.835989 -214.390125 
L 204.675403 -214.390125 
L 204.288541 -214.390125 
L 203.901679 -214.390125 
L 203.514817 -214.390125 
L 203.127955 -214.390125 
L 201.967369 -214.390125 
L 201.580507 -214.390125 
L 201.193645 -214.390125 
L 200.806783 -214.390125 
L 200.419921 -214.390125 
L 199.259336 -214.390125 
L 198.872474 -214.390125 
L 198.485612 -214.390125 
L 198.09875 -214.390125 
L 197.711888 -214.390125 
L 196.551302 -214.390125 
L 196.16444 -214.390125 
L 195.777578 -214.390125 
L 195.390716 -214.390125 
L 195.003854 -214.390125 
L 193.843268 -214.390125 
L 193.456406 -214.390125 
L 193.069544 -214.390125 
L 192.682683 -214.390125 
L 192.295821 -214.390125 
L 191.135235 -214.390125 
L 190.748373 -214.390125 
L 190.361511 -214.390125 
L 189.974649 -214.390125 
L 189.587787 -214.390125 
L 188.427201 -214.390125 
L 188.040339 -214.390125 
L 187.653477 -214.390125 
L 187.266615 -214.390125 
L 186.879753 -214.390125 
L 185.719167 -214.390125 
L 185.332306 -214.390125 
L 184.945444 -214.390125 
L 184.558582 -214.390125 
L 184.17172 -214.390125 
L 183.011134 -214.390125 
L 182.624272 -214.390125 
L 182.23741 -214.390125 
L 181.850548 -214.390125 
L 181.463686 -214.390125 
L 180.3031 -214.390125 
L 179.916238 -214.390125 
L 179.529376 -214.390125 
L 179.142514 -214.390125 
L 178.755652 -214.390125 
L 177.595067 -214.390125 
L 177.208205 -214.390125 
L 176.821343 -214.390125 
L 176.434481 -214.390125 
L 176.047619 -214.390125 
L 174.887033 -214.390125 
L 174.500171 -214.390125 
L 174.113309 -214.390125 
L 173.726447 -214.390125 
L 173.339585 -214.390125 
L 172.178999 -214.390125 
L 171.792137 -214.390125 
L 171.405275 -214.390125 
L 171.018414 -214.390125 
L 170.631552 -214.390125 
L 169.470966 -214.390125 
L 169.084104 -214.390125 
L 168.697242 -214.390125 
L 168.31038 -214.390125 
L 167.923518 -214.390125 
L 166.762932 -214.390125 
L 166.37607 -214.390125 
L 165.989208 -214.390125 
L 165.602346 -214.390125 
L 165.215484 -214.390125 
L 164.054898 -214.390125 
L 163.668037 -214.390125 
L 163.281175 -214.390125 
L 162.894313 -214.390125 
L 162.507451 -214.390125 
L 161.346865 -214.390125 
L 160.960003 -214.390125 
L 160.573141 -214.390125 
L 160.186279 -214.390125 
L 159.799417 -214.390125 
L 158.638831 -214.390125 
L 158.251969 -214.390125 
L 157.865107 -214.390125 
L 157.478245 -214.390125 
L 157.091383 -214.390125 
L 155.930798 -214.390125 
L 155.543936 -214.390125 
L 155.157074 -214.390125 
L 154.770212 -214.390125 
L 154.38335 -214.390125 
L 153.222764 -214.390125 
L 152.835902 -214.390125 
L 152.44904 -214.390125 
L 152.062178 -214.390125 
L 151.675316 -214.390125 
L 150.51473 -214.390125 
L 150.127868 -214.390125 
L 149.741006 -214.390125 
L 149.354145 -214.390125 
L 148.967283 -214.390125 
L 147.806697 -214.390125 
L 147.419835 -214.390125 
L 147.032973 -214.390125 
L 146.646111 -214.390125 
L 146.259249 -214.390125 
L 145.098663 -214.390125 
L 144.711801 -214.390125 
L 144.324939 -214.390125 
L 143.938077 -214.390125 
L 143.551215 -214.390125 
L 142.390629 -214.390125 
L 142.003768 -214.390125 
L 141.616906 -214.390125 
L 141.230044 -214.390125 
L 140.843182 -214.390125 
L 139.682596 -214.390125 
L 139.295734 -214.390125 
L 138.908872 -214.390125 
L 138.52201 -214.390125 
L 138.135148 -214.390125 
L 136.974562 -214.390125 
L 136.5877 -214.390125 
L 136.200838 -214.390125 
L 135.813976 -214.390125 
L 135.427114 -214.390125 
L 134.266529 -214.390125 
L 133.879667 -214.390125 
L 133.492805 -214.390125 
L 133.105943 -214.390125 
L 132.719081 -214.390125 
L 131.558495 -214.390125 
L 131.171633 -214.390125 
L 130.784771 -214.390125 
L 130.397909 -214.390125 
L 130.011047 -214.390125 
L 128.850461 -214.390125 
L 128.463599 -214.390125 
L 128.076737 -214.390125 
L 127.689876 -214.390125 
L 127.303014 -214.390125 
L 126.142428 -214.390125 
L 125.755566 -214.390125 
L 125.368704 -214.390125 
L 124.981842 -214.390125 
L 124.59498 -214.390125 
L 123.434394 -214.390125 
L 123.047532 -214.390125 
L 122.66067 -214.390125 
L 122.273808 -214.390125 
L 121.886946 -214.390125 
L 120.72636 -214.390125 
L 120.339499 -214.390125 
L 119.952637 -214.390125 
L 119.565775 -214.390125 
L 119.178913 -214.390125 
L 118.018327 -214.390125 
L 117.631465 -214.390125 
L 117.244603 -214.390125 
L 116.857741 -214.390125 
L 116.470879 -214.390125 
L 115.310293 -214.390125 
L 114.923431 -214.390125 
L 114.536569 -214.390125 
L 114.149707 -214.390125 
L 113.762845 -214.390125 
L 112.60226 -214.390125 
L 112.215398 -214.390125 
L 111.828536 -214.390125 
L 111.441674 -214.390125 
L 111.054812 -214.390125 
L 109.894226 -214.390125 
L 109.507364 -214.390125 
L 109.120502 -214.390125 
L 108.73364 -214.390125 
L 108.346778 -214.390125 
L 107.186192 -214.390125 
L 106.79933 -214.390125 
L 106.412468 -214.390125 
L 106.025607 -214.390125 
L 105.638745 -214.390125 
L 104.478159 -214.390125 
L 104.091297 -214.390125 
L 103.704435 -214.390125 
L 103.317573 -214.390125 
L 102.930711 -214.390125 
L 101.770125 -214.390125 
L 101.383263 -214.390125 
L 100.996401 -214.390125 
L 100.609539 -214.390125 
L 100.222677 -214.390125 
L 99.062091 -214.390125 
L 98.67523 -214.390125 
L 98.288368 -214.390125 
L 97.901506 -214.390125 
L 97.514644 -214.390125 
L 96.354058 -214.390125 
L 95.967196 -214.390125 
L 95.580334 -214.390125 
L 95.193472 -214.390125 
L 94.80661 -214.390125 
L 93.646024 -214.390125 
L 93.259162 -214.390125 
L 92.8723 -214.390125 
L 92.485438 -214.390125 
L 92.098576 -214.390125 
L 90.937991 -214.390125 
L 90.551129 -214.390125 
L 90.164267 -214.390125 
L 89.777405 -214.390125 
L 89.390543 -214.390125 
L 88.229957 -214.390125 
L 87.843095 -214.390125 
L 87.456233 -214.390125 
L 87.069371 -214.390125 
L 86.682509 -214.390125 
L 85.521923 -214.390125 
L 85.135061 -214.390125 
L 84.748199 -214.390125 
L 84.361338 -214.390125 
L 83.974476 -214.390125 
L 82.81389 -214.390125 
L 82.427028 -214.390125 
L 82.040166 -214.390125 
L 81.653304 -214.390125 
L 81.266442 -214.390125 
L 80.105856 -214.390125 
L 79.718994 -214.390125 
L 79.332132 -214.390125 
L 78.94527 -214.390125 
L 78.558408 -214.390125 
L 77.397822 -214.390125 
L 77.010961 -214.390125 
L 76.624099 -214.390125 
L 76.237237 -214.390125 
L 75.850375 -214.390125 
L 74.689789 -214.390125 
L 74.302927 -214.390125 
L 73.916065 -214.390125 
L 73.529203 -214.390125 
L 73.142341 -214.390125 
L 71.981755 -214.390125 
L 71.594893 -214.390125 
L 71.208031 -214.390125 
L 70.821169 -214.390125 
L 70.434307 -214.390125 
L 69.273722 -214.390125 
z
" style="stroke: #d1242f; stroke-opacity: 0.3"/>
    </defs>
    <g clip-path="url(#p4fbc948829)">
     <use xlink:href="#m9c5373ef94" x="0" y="266.540094" style="fill: #d1242f; fill-opacity: 0.3; stroke: #d1242f; stroke-opacity: 0.3"/>
    </g>
   </g>
   <g id="matplotlib.axis_1">
    <g id="xtick_1">
     <g id="line2d_1">
      <path d="M 69.273722 242.661969 
L 69.273722 43.077969 
" clip-path="url(#p4fbc948829)" style="fill: none; stroke: #b0b0b0; stroke-opacity: 0.25; stroke-width: 0.8; stroke-linecap: square"/>
     </g>
     <g id="line2d_2">
      <defs>
       <path id="m31bedb5d39" d="M 0 0 
L 0 3.5 
" style="stroke: #000000; stroke-width: 0.8"/>
      </defs>
      <g>
       <use xlink:href="#m31bedb5d39" x="69.273722" y="242.661969" style="stroke: #000000; stroke-width: 0.8"/>
      </g>
     </g>
     <g id="text_1">
      <!-- 2021-01 -->
      <g transform="translate(48.382315 257.260406) scale(0.1 -0.1)">
       <defs>
        <path id="DejaVuSans-32" d="M 1228 531 
L 3431 531 
L 3431 0 
L 469 0 
L 469 531 
Q 828 903 1448 1529 
Q 2069 2156 2228 2338 
Q 2531 2678 2651 2914 
Q 2772 3150 2772 3378 
Q 2772 3750 2511 3984 
Q 2250 4219 1831 4219 
Q 1534 4219 1204 4116 
Q 875 4013 500 3803 
L 500 4441 
Q 881 4594 1212 4672 
Q 1544 4750 1819 4750 
Q 2544 4750 2975 4387 
Q 3406 4025 3406 3419 
Q 3406 3131 3298 2873 
Q 3191 2616 2906 2266 
Q 2828 2175 2409 1742 
Q 1991 1309 1228 531 
z
" transform="scale(0.015625)"/>
        <path id="DejaVuSans-30" d="M 2034 4250 
Q 1547 4250 1301 3770 
Q 1056 3291 1056 2328 
Q 1056 1369 1301 889 
Q 1547 409 2034 409 
Q 2525 409 2770 889 
Q 3016 1369 3016 2328 
Q 3016 3291 2770 3770 
Q 2525 4250 2034 4250 
z
M 2034 4750 
Q 2819 4750 3233 4129 
Q 3647 3509 3647 2328 
Q 3647 1150 3233 529 
Q 2819 -91 2034 -91 
Q 1250 -91 836 529 
Q 422 1150 422 2328 
Q 422 3509 836 4129 
Q 1250 4750 2034 4750 
z
" transform="scale(0.015625)"/>
        <path id="DejaVuSans-31" d="M 794 531 
L 1825 531 
L 1825 4091 
L 703 3866 
L 703 4441 
L 1819 4666 
L 2450 4666 
L 2450 531 
L 3481 531 
L 3481 0 
L 794 0 
L 794 531 
z
" transform="scale(0.015625)"/>
        <path id="DejaVuSans-2d" d="M 313 2009 
L 1997 2009 
L 1997 1497 
L 313 1497 
L 313 2009 
z
" transform="scale(0.015625)"/>
       </defs>
       <use xlink:href="#DejaVuSans-32"/>
       <use xlink:href="#DejaVuSans-30" transform="translate(63.623047 0)"/>
       <use xlink:href="#DejaVuSans-32" transform="translate(127.246094 0)"/>
       <use xlink:href="#DejaVuSans-31" transform="translate(190.869141 0)"/>
       <use xlink:href="#DejaVuSans-2d" transform="translate(254.492188 0)"/>
       <use xlink:href="#DejaVuSans-30" transform="translate(290.576172 0)"/>
       <use xlink:href="#DejaVuSans-31" transform="translate(354.199219 0)"/>
      </g>
     </g>
    </g>
    <g id="xtick_2">
     <g id="line2d_3">
      <path d="M 115.697155 242.661969 
L 115.697155 43.077969 
" clip-path="url(#p4fbc948829)" style="fill: none; stroke: #b0b0b0; stroke-opacity: 0.25; stroke-width: 0.8; stroke-linecap: square"/>
     </g>
     <g id="line2d_4">
      <g>
       <use xlink:href="#m31bedb5d39" x="115.697155" y="242.661969" style="stroke: #000000; stroke-width: 0.8"/>
      </g>
     </g>
     <g id="text_2">
      <!-- 2021-05 -->
      <g transform="translate(94.805749 257.260406) scale(0.1 -0.1)">
       <defs>
        <path id="DejaVuSans-35" d="M 691 4666 
L 3169 4666 
L 3169 4134 
L 1269 4134 
L 1269 2991 
Q 1406 3038 1543 3061 
Q 1681 3084 1819 3084 
Q 2600 3084 3056 2656 
Q 3513 2228 3513 1497 
Q 3513 744 3044 326 
Q 2575 -91 1722 -91 
Q 1428 -91 1123 -41 
Q 819 9 494 109 
L 494 744 
Q 775 591 1075 516 
Q 1375 441 1709 441 
Q 2250 441 2565 725 
Q 2881 1009 2881 1497 
Q 2881 1984 2565 2268 
Q 2250 2553 1709 2553 
Q 1456 2553 1204 2497 
Q 953 2441 691 2322 
L 691 4666 
z
" transform="scale(0.015625)"/>
       </defs>
       <use xlink:href="#DejaVuSans-32"/>
       <use xlink:href="#DejaVuSans-30" transform="translate(63.623047 0)"/>
       <use xlink:href="#DejaVuSans-32" transform="translate(127.246094 0)"/>
       <use xlink:href="#DejaVuSans-31" transform="translate(190.869141 0)"/>
       <use xlink:href="#DejaVuSans-2d" transform="translate(254.492188 0)"/>
       <use xlink:href="#DejaVuSans-30" transform="translate(290.576172 0)"/>
       <use xlink:href="#DejaVuSans-35" transform="translate(354.199219 0)"/>
      </g>
     </g>
    </g>
    <g id="xtick_3">
     <g id="line2d_5">
      <path d="M 163.281175 242.661969 
L 163.281175 43.077969 
" clip-path="url(#p4fbc948829)" style="fill: none; stroke: #b0b0b0; stroke-opacity: 0.25; stroke-width: 0.8; stroke-linecap: square"/>
     </g>
     <g id="line2d_6">
      <g>
       <use xlink:href="#m31bedb5d39" x="163.281175" y="242.661969" style="stroke: #000000; stroke-width: 0.8"/>
      </g>
     </g>
     <g id="text_3">
      <!-- 2021-09 -->
      <g transform="translate(142.389768 257.260406) scale(0.1 -0.1)">
       <defs>
        <path id="DejaVuSans-39" d="M 703 97 
L 703 672 
Q 941 559 1184 500 
Q 1428 441 1663 441 
Q 2288 441 2617 861 
Q 2947 1281 2994 2138 
Q 2813 1869 2534 1725 
Q 2256 1581 1919 1581 
Q 1219 1581 811 2004 
Q 403 2428 403 3163 
Q 403 3881 828 4315 
Q 1253 4750 1959 4750 
Q 2769 4750 3195 4129 
Q 3622 3509 3622 2328 
Q 3622 1225 3098 567 
Q 2575 -91 1691 -91 
Q 1453 -91 1209 -44 
Q 966 3 703 97 
z
M 1959 2075 
Q 2384 2075 2632 2365 
Q 2881 2656 2881 3163 
Q 2881 3666 2632 3958 
Q 2384 4250 1959 4250 
Q 1534 4250 1286 3958 
Q 1038 3666 1038 3163 
Q 1038 2656 1286 2365 
Q 1534 2075 1959 2075 
z
" transform="scale(0.015625)"/>
       </defs>
       <use xlink:href="#DejaVuSans-32"/>
       <use xlink:href="#DejaVuSans-30" transform="translate(63.623047 0)"/>
       <use xlink:href="#DejaVuSans-32" transform="translate(127.246094 0)"/>
       <use xlink:href="#DejaVuSans-31" transform="translate(190.869141 0)"/>
       <use xlink:href="#DejaVuSans-2d" transform="translate(254.492188 0)"/>
       <use xlink:href="#DejaVuSans-30" transform="translate(290.576172 0)"/>
       <use xlink:href="#DejaVuSans-39" transform="translate(354.199219 0)"/>
      </g>
     </g>
    </g>
    <g id="xtick_4">
     <g id="line2d_7">
      <path d="M 210.478332 242.661969 
L 210.478332 43.077969 
" clip-path="url(#p4fbc948829)" style="fill: none; stroke: #b0b0b0; stroke-opacity: 0.25; stroke-width: 0.8; stroke-linecap: square"/>
     </g>
     <g id="line2d_8">
      <g>
       <use xlink:href="#m31bedb5d39" x="210.478332" y="242.661969" style="stroke: #000000; stroke-width: 0.8"/>
      </g>
     </g>
     <g id="text_4">
      <!-- 2022-01 -->
      <g transform="translate(189.586926 257.260406) scale(0.1 -0.1)">
       <use xlink:href="#DejaVuSans-32"/>
       <use xlink:href="#DejaVuSans-30" transform="translate(63.623047 0)"/>
       <use xlink:href="#DejaVuSans-32" transform="translate(127.246094 0)"/>
       <use xlink:href="#DejaVuSans-32" transform="translate(190.869141 0)"/>
       <use xlink:href="#DejaVuSans-2d" transform="translate(254.492188 0)"/>
       <use xlink:href="#DejaVuSans-30" transform="translate(290.576172 0)"/>
       <use xlink:href="#DejaVuSans-31" transform="translate(354.199219 0)"/>
      </g>
     </g>
    </g>
    <g id="xtick_5">
     <g id="line2d_9">
      <path d="M 256.901766 242.661969 
L 256.901766 43.077969 
" clip-path="url(#p4fbc948829)" style="fill: none; stroke: #b0b0b0; stroke-opacity: 0.25; stroke-width: 0.8; stroke-linecap: square"/>
     </g>
     <g id="line2d_10">
      <g>
       <use xlink:href="#m31bedb5d39" x="256.901766" y="242.661969" style="stroke: #000000; stroke-width: 0.8"/>
      </g>
     </g>
     <g id="text_5">
      <!-- 2022-05 -->
      <g transform="translate(236.010359 257.260406) scale(0.1 -0.1)">
       <use xlink:href="#DejaVuSans-32"/>
       <use xlink:href="#DejaVuSans-30" transform="translate(63.623047 0)"/>
       <use xlink:href="#DejaVuSans-32" transform="translate(127.246094 0)"/>
       <use xlink:href="#DejaVuSans-32" transform="translate(190.869141 0)"/>
       <use xlink:href="#DejaVuSans-2d" transform="translate(254.492188 0)"/>
       <use xlink:href="#DejaVuSans-30" transform="translate(290.576172 0)"/>
       <use xlink:href="#DejaVuSans-35" transform="translate(354.199219 0)"/>
      </g>
     </g>
    </g>
    <g id="xtick_6">
     <g id="line2d_11">
      <path d="M 304.485785 242.661969 
L 304.485785 43.077969 
" clip-path="url(#p4fbc948829)" style="fill: none; stroke: #b0b0b0; stroke-opacity: 0.25; stroke-width: 0.8; stroke-linecap: square"/>
     </g>
     <g id="line2d_12">
      <g>
       <use xlink:href="#m31bedb5d39" x="304.485785" y="242.661969" style="stroke: #000000; stroke-width: 0.8"/>
      </g>
     </g>
     <g id="text_6">
      <!-- 2022-09 -->
      <g transform="translate(283.594379 257.260406) scale(0.1 -0.1)">
       <use xlink:href="#DejaVuSans-32"/>
       <use xlink:href="#DejaVuSans-30" transform="translate(63.623047 0)"/>
       <use xlink:href="#DejaVuSans-32" transform="translate(127.246094 0)"/>
       <use xlink:href="#DejaVuSans-32" transform="translate(190.869141 0)"/>
       <use xlink:href="#DejaVuSans-2d" transform="translate(254.492188 0)"/>
       <use xlink:href="#DejaVuSans-30" transform="translate(290.576172 0)"/>
       <use xlink:href="#DejaVuSans-39" transform="translate(354.199219 0)"/>
      </g>
     </g>
    </g>
    <g id="xtick_7">
     <g id="line2d_13">
      <path d="M 351.682942 242.661969 
L 351.682942 43.077969 
" clip-path="url(#p4fbc948829)" style="fill: none; stroke: #b0b0b0; stroke-opacity: 0.25; stroke-width: 0.8; stroke-linecap: square"/>
     </g>
     <g id="line2d_14">
      <g>
       <use xlink:href="#m31bedb5d39" x="351.682942" y="242.661969" style="stroke: #000000; stroke-width: 0.8"/>
      </g>
     </g>
     <g id="text_7">
      <!-- 2023-01 -->
      <g transform="translate(330.791536 257.260406) scale(0.1 -0.1)">
       <defs>
        <path id="DejaVuSans-33" d="M 2597 2516 
Q 3050 2419 3304 2112 
Q 3559 1806 3559 1356 
Q 3559 666 3084 287 
Q 2609 -91 1734 -91 
Q 1441 -91 1130 -33 
Q 819 25 488 141 
L 488 750 
Q 750 597 1062 519 
Q 1375 441 1716 441 
Q 2309 441 2620 675 
Q 2931 909 2931 1356 
Q 2931 1769 2642 2001 
Q 2353 2234 1838 2234 
L 1294 2234 
L 1294 2753 
L 1863 2753 
Q 2328 2753 2575 2939 
Q 2822 3125 2822 3475 
Q 2822 3834 2567 4026 
Q 2313 4219 1838 4219 
Q 1578 4219 1281 4162 
Q 984 4106 628 3988 
L 628 4550 
Q 988 4650 1302 4700 
Q 1616 4750 1894 4750 
Q 2613 4750 3031 4423 
Q 3450 4097 3450 3541 
Q 3450 3153 3228 2886 
Q 3006 2619 2597 2516 
z
" transform="scale(0.015625)"/>
       </defs>
       <use xlink:href="#DejaVuSans-32"/>
       <use xlink:href="#DejaVuSans-30" transform="translate(63.623047 0)"/>
       <use xlink:href="#DejaVuSans-32" transform="translate(127.246094 0)"/>
       <use xlink:href="#DejaVuSans-33" transform="translate(190.869141 0)"/>
       <use xlink:href="#DejaVuSans-2d" transform="translate(254.492188 0)"/>
       <use xlink:href="#DejaVuSans-30" transform="translate(290.576172 0)"/>
       <use xlink:href="#DejaVuSans-31" transform="translate(354.199219 0)"/>
      </g>
     </g>
    </g>
    <g id="xtick_8">
     <g id="line2d_15">
      <path d="M 398.106376 242.661969 
L 398.106376 43.077969 
" clip-path="url(#p4fbc948829)" style="fill: none; stroke: #b0b0b0; stroke-opacity: 0.25; stroke-width: 0.8; stroke-linecap: square"/>
     </g>
     <g id="line2d_16">
      <g>
       <use xlink:href="#m31bedb5d39" x="398.106376" y="242.661969" style="stroke: #000000; stroke-width: 0.8"/>
      </g>
     </g>
     <g id="text_8">
      <!-- 2023-05 -->
      <g transform="translate(377.21497 257.260406) scale(0.1 -0.1)">
       <use xlink:href="#DejaVuSans-32"/>
       <use xlink:href="#DejaVuSans-30" transform="translate(63.623047 0)"/>
       <use xlink:href="#DejaVuSans-32" transform="translate(127.246094 0)"/>
       <use xlink:href="#DejaVuSans-33" transform="translate(190.869141 0)"/>
       <use xlink:href="#DejaVuSans-2d" transform="translate(254.492188 0)"/>
       <use xlink:href="#DejaVuSans-30" transform="translate(290.576172 0)"/>
       <use xlink:href="#DejaVuSans-35" transform="translate(354.199219 0)"/>
      </g>
     </g>
    </g>
    <g id="xtick_9">
     <g id="line2d_17">
      <path d="M 445.690395 242.661969 
L 445.690395 43.077969 
" clip-path="url(#p4fbc948829)" style="fill: none; stroke: #b0b0b0; stroke-opacity: 0.25; stroke-width: 0.8; stroke-linecap: square"/>
     </g>
     <g id="line2d_18">
      <g>
       <use xlink:href="#m31bedb5d39" x="445.690395" y="242.661969" style="stroke: #000000; stroke-width: 0.8"/>
      </g>
     </g>
     <g id="text_9">
      <!-- 2023-09 -->
      <g transform="translate(424.798989 257.260406) scale(0.1 -0.1)">
       <use xlink:href="#DejaVuSans-32"/>
       <use xlink:href="#DejaVuSans-30" transform="translate(63.623047 0)"/>
       <use xlink:href="#DejaVuSans-32" transform="translate(127.246094 0)"/>
       <use xlink:href="#DejaVuSans-33" transform="translate(190.869141 0)"/>
       <use xlink:href="#DejaVuSans-2d" transform="translate(254.492188 0)"/>
       <use xlink:href="#DejaVuSans-30" transform="translate(290.576172 0)"/>
       <use xlink:href="#DejaVuSans-39" transform="translate(354.199219 0)"/>
      </g>
     </g>
    </g>
    <g id="xtick_10">
     <g id="line2d_19">
      <path d="M 492.887553 242.661969 
L 492.887553 43.077969 
" clip-path="url(#p4fbc948829)" style="fill: none; stroke: #b0b0b0; stroke-opacity: 0.25; stroke-width: 0.8; stroke-linecap: square"/>
     </g>
     <g id="line2d_20">
      <g>
       <use xlink:href="#m31bedb5d39" x="492.887553" y="242.661969" style="stroke: #000000; stroke-width: 0.8"/>
      </g>
     </g>
     <g id="text_10">
      <!-- 2024-01 -->
      <g transform="translate(471.996147 257.260406) scale(0.1 -0.1)">
       <defs>
        <path id="DejaVuSans-34" d="M 2419 4116 
L 825 1625 
L 2419 1625 
L 2419 4116 
z
M 2253 4666 
L 3047 4666 
L 3047 1625 
L 3713 1625 
L 3713 1100 
L 3047 1100 
L 3047 0 
L 2419 0 
L 2419 1100 
L 313 1100 
L 313 1709 
L 2253 4666 
z
" transform="scale(0.015625)"/>
       </defs>
       <use xlink:href="#DejaVuSans-32"/>
       <use xlink:href="#DejaVuSans-30" transform="translate(63.623047 0)"/>
       <use xlink:href="#DejaVuSans-32" transform="translate(127.246094 0)"/>
       <use xlink:href="#DejaVuSans-34" transform="translate(190.869141 0)"/>
       <use xlink:href="#DejaVuSans-2d" transform="translate(254.492188 0)"/>
       <use xlink:href="#DejaVuSans-30" transform="translate(290.576172 0)"/>
       <use xlink:href="#DejaVuSans-31" transform="translate(354.199219 0)"/>
      </g>
     </g>
    </g>
   </g>
   <g id="matplotlib.axis_2">
    <g id="ytick_1">
     <g id="line2d_21">
      <path d="M 48.982813 239.093256 
L 495.382812 239.093256 
" clip-path="url(#p4fbc948829)" style="fill: none; stroke: #b0b0b0; stroke-opacity: 0.25; stroke-width: 0.8; stroke-linecap: square"/>
     </g>
     <g id="line2d_22">
      <defs>
       <path id="m224204d958" d="M 0 0 
L -3.5 0 
" style="stroke: #000000; stroke-width: 0.8"/>
      </defs>
      <g>
       <use xlink:href="#m224204d958" x="48.982813" y="239.093256" style="stroke: #000000; stroke-width: 0.8"/>
      </g>
     </g>
     <g id="text_11">
      <!-- −12 -->
      <g transform="translate(20.878125 242.892475) scale(0.1 -0.1)">
       <defs>
        <path id="DejaVuSans-2212" d="M 678 2272 
L 4684 2272 
L 4684 1741 
L 678 1741 
L 678 2272 
z
" transform="scale(0.015625)"/>
       </defs>
       <use xlink:href="#DejaVuSans-2212"/>
       <use xlink:href="#DejaVuSans-31" transform="translate(83.789062 0)"/>
       <use xlink:href="#DejaVuSans-32" transform="translate(147.412109 0)"/>
      </g>
     </g>
    </g>
    <g id="ytick_2">
     <g id="line2d_23">
      <path d="M 48.982813 207.936042 
L 495.382812 207.936042 
" clip-path="url(#p4fbc948829)" style="fill: none; stroke: #b0b0b0; stroke-opacity: 0.25; stroke-width: 0.8; stroke-linecap: square"/>
     </g>
     <g id="line2d_24">
      <g>
       <use xlink:href="#m224204d958" x="48.982813" y="207.936042" style="stroke: #000000; stroke-width: 0.8"/>
      </g>
     </g>
     <g id="text_12">
      <!-- −10 -->
      <g transform="translate(20.878125 211.735261) scale(0.1 -0.1)">
       <use xlink:href="#DejaVuSans-2212"/>
       <use xlink:href="#DejaVuSans-31" transform="translate(83.789062 0)"/>
       <use xlink:href="#DejaVuSans-30" transform="translate(147.412109 0)"/>
      </g>
     </g>
    </g>
    <g id="ytick_3">
     <g id="line2d_25">
      <path d="M 48.982813 176.778827 
L 495.382812 176.778827 
" clip-path="url(#p4fbc948829)" style="fill: none; stroke: #b0b0b0; stroke-opacity: 0.25; stroke-width: 0.8; stroke-linecap: square"/>
     </g>
     <g id="line2d_26">
      <g>
       <use xlink:href="#m224204d958" x="48.982813" y="176.778827" style="stroke: #000000; stroke-width: 0.8"/>
      </g>
     </g>
     <g id="text_13">
      <!-- −8 -->
      <g transform="translate(27.240625 180.578046) scale(0.1 -0.1)">
       <defs>
        <path id="DejaVuSans-38" d="M 2034 2216 
Q 1584 2216 1326 1975 
Q 1069 1734 1069 1313 
Q 1069 891 1326 650 
Q 1584 409 2034 409 
Q 2484 409 2743 651 
Q 3003 894 3003 1313 
Q 3003 1734 2745 1975 
Q 2488 2216 2034 2216 
z
M 1403 2484 
Q 997 2584 770 2862 
Q 544 3141 544 3541 
Q 544 4100 942 4425 
Q 1341 4750 2034 4750 
Q 2731 4750 3128 4425 
Q 3525 4100 3525 3541 
Q 3525 3141 3298 2862 
Q 3072 2584 2669 2484 
Q 3125 2378 3379 2068 
Q 3634 1759 3634 1313 
Q 3634 634 3220 271 
Q 2806 -91 2034 -91 
Q 1263 -91 848 271 
Q 434 634 434 1313 
Q 434 1759 690 2068 
Q 947 2378 1403 2484 
z
M 1172 3481 
Q 1172 3119 1398 2916 
Q 1625 2713 2034 2713 
Q 2441 2713 2670 2916 
Q 2900 3119 2900 3481 
Q 2900 3844 2670 4047 
Q 2441 4250 2034 4250 
Q 1625 4250 1398 4047 
Q 1172 3844 1172 3481 
z
" transform="scale(0.015625)"/>
       </defs>
       <use xlink:href="#DejaVuSans-2212"/>
       <use xlink:href="#DejaVuSans-38" transform="translate(83.789062 0)"/>
      </g>
     </g>
    </g>
    <g id="ytick_4">
     <g id="line2d_27">
      <path d="M 48.982813 145.621613 
L 495.382812 145.621613 
" clip-path="url(#p4fbc948829)" style="fill: none; stroke: #b0b0b0; stroke-opacity: 0.25; stroke-width: 0.8; stroke-linecap: square"/>
     </g>
     <g id="line2d_28">
      <g>
       <use xlink:href="#m224204d958" x="48.982813" y="145.621613" style="stroke: #000000; stroke-width: 0.8"/>
      </g>
     </g>
     <g id="text_14">
      <!-- −6 -->
      <g transform="translate(27.240625 149.420831) scale(0.1 -0.1)">
       <defs>
        <path id="DejaVuSans-36" d="M 2113 2584 
Q 1688 2584 1439 2293 
Q 1191 2003 1191 1497 
Q 1191 994 1439 701 
Q 1688 409 2113 409 
Q 2538 409 2786 701 
Q 3034 994 3034 1497 
Q 3034 2003 2786 2293 
Q 2538 2584 2113 2584 
z
M 3366 4563 
L 3366 3988 
Q 3128 4100 2886 4159 
Q 2644 4219 2406 4219 
Q 1781 4219 1451 3797 
Q 1122 3375 1075 2522 
Q 1259 2794 1537 2939 
Q 1816 3084 2150 3084 
Q 2853 3084 3261 2657 
Q 3669 2231 3669 1497 
Q 3669 778 3244 343 
Q 2819 -91 2113 -91 
Q 1303 -91 875 529 
Q 447 1150 447 2328 
Q 447 3434 972 4092 
Q 1497 4750 2381 4750 
Q 2619 4750 2861 4703 
Q 3103 4656 3366 4563 
z
" transform="scale(0.015625)"/>
       </defs>
       <use xlink:href="#DejaVuSans-2212"/>
       <use xlink:href="#DejaVuSans-36" transform="translate(83.789062 0)"/>
      </g>
     </g>
    </g>
    <g id="ytick_5">
     <g id="line2d_29">
      <path d="M 48.982813 114.464398 
L 495.382812 114.464398 
" clip-path="url(#p4fbc948829)" style="fill: none; stroke: #b0b0b0; stroke-opacity: 0.25; stroke-width: 0.8; stroke-linecap: square"/>
     </g>
     <g id="line2d_30">
      <g>
       <use xlink:href="#m224204d958" x="48.982813" y="114.464398" style="stroke: #000000; stroke-width: 0.8"/>
      </g>
     </g>
     <g id="text_15">
      <!-- −4 -->
      <g transform="translate(27.240625 118.263617) scale(0.1 -0.1)">
       <use xlink:href="#DejaVuSans-2212"/>
       <use xlink:href="#DejaVuSans-34" transform="translate(83.789062 0)"/>
      </g>
     </g>
    </g>
    <g id="ytick_6">
     <g id="line2d_31">
      <path d="M 48.982813 83.307183 
L 495.382812 83.307183 
" clip-path="url(#p4fbc948829)" style="fill: none; stroke: #b0b0b0; stroke-opacity: 0.25; stroke-width: 0.8; stroke-linecap: square"/>
     </g>
     <g id="line2d_32">
      <g>
       <use xlink:href="#m224204d958" x="48.982813" y="83.307183" style="stroke: #000000; stroke-width: 0.8"/>
      </g>
     </g>
     <g id="text_16">
      <!-- −2 -->
      <g transform="translate(27.240625 87.106402) scale(0.1 -0.1)">
       <use xlink:href="#DejaVuSans-2212"/>
       <use xlink:href="#DejaVuSans-32" transform="translate(83.789062 0)"/>
      </g>
     </g>
    </g>
    <g id="ytick_7">
     <g id="line2d_33">
      <path d="M 48.982813 52.149969 
L 495.382812 52.149969 
" clip-path="url(#p4fbc948829)" style="fill: none; stroke: #b0b0b0; stroke-opacity: 0.25; stroke-width: 0.8; stroke-linecap: square"/>
     </g>
     <g id="line2d_34">
      <g>
       <use xlink:href="#m224204d958" x="48.982813" y="52.149969" style="stroke: #000000; stroke-width: 0.8"/>
      </g>
     </g>
     <g id="text_17">
      <!-- 0 -->
      <g transform="translate(35.620313 55.949187) scale(0.1 -0.1)">
       <use xlink:href="#DejaVuSans-30"/>
      </g>
     </g>
    </g>
    <g id="text_18">
     <!-- Drawdown (%) -->
     <g transform="translate(14.798438 179.661375) rotate(-90) scale(0.1 -0.1)">
      <defs>
       <path id="DejaVuSans-44" d="M 1259 4147 
L 1259 519 
L 2022 519 
Q 2988 519 3436 956 
Q 3884 1394 3884 2338 
Q 3884 3275 3436 3711 
Q 2988 4147 2022 4147 
L 1259 4147 
z
M 628 4666 
L 1925 4666 
Q 3281 4666 3915 4102 
Q 4550 3538 4550 2338 
Q 4550 1131 3912 565 
Q 3275 0 1925 0 
L 628 0 
L 628 4666 
z
" transform="scale(0.015625)"/>
       <path id="DejaVuSans-72" d="M 2631 2963 
Q 2534 3019 2420 3045 
Q 2306 3072 2169 3072 
Q 1681 3072 1420 2755 
Q 1159 2438 1159 1844 
L 1159 0 
L 581 0 
L 581 3500 
L 1159 3500 
L 1159 2956 
Q 1341 3275 1631 3429 
Q 1922 3584 2338 3584 
Q 2397 3584 2469 3576 
Q 2541 3569 2628 3553 
L 2631 2963 
z
" transform="scale(0.015625)"/>
       <path id="DejaVuSans-61" d="M 2194 1759 
Q 1497 1759 1228 1600 
Q 959 1441 959 1056 
Q 959 750 1161 570 
Q 1363 391 1709 391 
Q 2188 391 2477 730 
Q 2766 1069 2766 1631 
L 2766 1759 
L 2194 1759 
z
M 3341 1997 
L 3341 0 
L 2766 0 
L 2766 531 
Q 2569 213 2275 61 
Q 1981 -91 1556 -91 
Q 1019 -91 701 211 
Q 384 513 384 1019 
Q 384 1609 779 1909 
Q 1175 2209 1959 2209 
L 2766 2209 
L 2766 2266 
Q 2766 2663 2505 2880 
Q 2244 3097 1772 3097 
Q 1472 3097 1187 3025 
Q 903 2953 641 2809 
L 641 3341 
Q 956 3463 1253 3523 
Q 1550 3584 1831 3584 
Q 2591 3584 2966 3190 
Q 3341 2797 3341 1997 
z
" transform="scale(0.015625)"/>
       <path id="DejaVuSans-77" d="M 269 3500 
L 844 3500 
L 1563 769 
L 2278 3500 
L 2956 3500 
L 3675 769 
L 4391 3500 
L 4966 3500 
L 4050 0 
L 3372 0 
L 2619 2869 
L 1863 0 
L 1184 0 
L 269 3500 
z
" transform="scale(0.015625)"/>
       <path id="DejaVuSans-64" d="M 2906 2969 
L 2906 4863 
L 3481 4863 
L 3481 0 
L 2906 0 
L 2906 525 
Q 2725 213 2448 61 
Q 2172 -91 1784 -91 
Q 1150 -91 751 415 
Q 353 922 353 1747 
Q 353 2572 751 3078 
Q 1150 3584 1784 3584 
Q 2172 3584 2448 3432 
Q 2725 3281 2906 2969 
z
M 947 1747 
Q 947 1113 1208 752 
Q 1469 391 1925 391 
Q 2381 391 2643 752 
Q 2906 1113 2906 1747 
Q 2906 2381 2643 2742 
Q 2381 3103 1925 3103 
Q 1469 3103 1208 2742 
Q 947 2381 947 1747 
z
" transform="scale(0.015625)"/>
       <path id="DejaVuSans-6f" d="M 1959 3097 
Q 1497 3097 1228 2736 
Q 959 2375 959 1747 
Q 959 1119 1226 758 
Q 1494 397 1959 397 
Q 2419 397 2687 759 
Q 2956 1122 2956 1747 
Q 2956 2369 2687 2733 
Q 2419 3097 1959 3097 
z
M 1959 3584 
Q 2709 3584 3137 3096 
Q 3566 2609 3566 1747 
Q 3566 888 3137 398 
Q 2709 -91 1959 -91 
Q 1206 -91 779 398 
Q 353 888 353 1747 
Q 353 2609 779 3096 
Q 1206 3584 1959 3584 
z
" transform="scale(0.015625)"/>
       <path id="DejaVuSans-6e" d="M 3513 2113 
L 3513 0 
L 2938 0 
L 2938 2094 
Q 2938 2591 2744 2837 
Q 2550 3084 2163 3084 
Q 1697 3084 1428 2787 
Q 1159 2491 1159 1978 
L 1159 0 
L 581 0 
L 581 3500 
L 1159 3500 
L 1159 2956 
Q 1366 3272 1645 3428 
Q 1925 3584 2291 3584 
Q 2894 3584 3203 3211 
Q 3513 2838 3513 2113 
z
" transform="scale(0.015625)"/>
       <path id="DejaVuSans-20" transform="scale(0.015625)"/>
       <path id="DejaVuSans-28" d="M 1984 4856 
Q 1566 4138 1362 3434 
Q 1159 2731 1159 2009 
Q 1159 1288 1364 580 
Q 1569 -128 1984 -844 
L 1484 -844 
Q 1016 -109 783 600 
Q 550 1309 550 2009 
Q 550 2706 781 3412 
Q 1013 4119 1484 4856 
L 1984 4856 
z
" transform="scale(0.015625)"/>
       <path id="DejaVuSans-25" d="M 4653 2053 
Q 4381 2053 4226 1822 
Q 4072 1591 4072 1178 
Q 4072 772 4226 539 
Q 4381 306 4653 306 
Q 4919 306 5073 539 
Q 5228 772 5228 1178 
Q 5228 1588 5073 1820 
Q 4919 2053 4653 2053 
z
M 4653 2450 
Q 5147 2450 5437 2106 
Q 5728 1763 5728 1178 
Q 5728 594 5436 251 
Q 5144 -91 4653 -91 
Q 4153 -91 3862 251 
Q 3572 594 3572 1178 
Q 3572 1766 3864 2108 
Q 4156 2450 4653 2450 
z
M 1428 4353 
Q 1159 4353 1004 4120 
Q 850 3888 850 3481 
Q 850 3069 1003 2837 
Q 1156 2606 1428 2606 
Q 1700 2606 1854 2837 
Q 2009 3069 2009 3481 
Q 2009 3884 1853 4118 
Q 1697 4353 1428 4353 
z
M 4250 4750 
L 4750 4750 
L 1831 -91 
L 1331 -91 
L 4250 4750 
z
M 1428 4750 
Q 1922 4750 2215 4408 
Q 2509 4066 2509 3481 
Q 2509 2891 2217 2550 
Q 1925 2209 1428 2209 
Q 931 2209 642 2551 
Q 353 2894 353 3481 
Q 353 4063 643 4406 
Q 934 4750 1428 4750 
z
" transform="scale(0.015625)"/>
       <path id="DejaVuSans-29" d="M 513 4856 
L 1013 4856 
Q 1481 4119 1714 3412 
Q 1947 2706 1947 2009 
Q 1947 1309 1714 600 
Q 1481 -109 1013 -844 
L 513 -844 
Q 928 -128 1133 580 
Q 1338 1288 1338 2009 
Q 1338 2731 1133 3434 
Q 928 4138 513 4856 
z
" transform="scale(0.015625)"/>
      </defs>
      <use xlink:href="#DejaVuSans-44"/>
      <use xlink:href="#DejaVuSans-72" transform="translate(77.001953 0)"/>
      <use xlink:href="#DejaVuSans-61" transform="translate(118.115234 0)"/>
      <use xlink:href="#DejaVuSans-77" transform="translate(179.394531 0)"/>
      <use xlink:href="#DejaVuSans-64" transform="translate(261.181641 0)"/>
      <use xlink:href="#DejaVuSans-6f" transform="translate(324.658203 0)"/>
      <use xlink:href="#DejaVuSans-77" transform="translate(385.839844 0)"/>
      <use xlink:href="#DejaVuSans-6e" transform="translate(467.626953 0)"/>
      <use xlink:href="#DejaVuSans-20" transform="translate(531.005859 0)"/>
      <use xlink:href="#DejaVuSans-28" transform="translate(562.792969 0)"/>
      <use xlink:href="#DejaVuSans-25" transform="translate(601.806641 0)"/>
      <use xlink:href="#DejaVuSans-29" transform="translate(696.826172 0)"/>
     </g>
    </g>
   </g>
   <g id="line2d_35">
    <path d="M 69.273722 52.149969 
L 109.894226 52.149969 
L 111.054812 53.707829 
L 114.149707 53.707829 
L 114.536569 62.067157 
L 114.923431 83.816435 
L 115.310293 74.564692 
L 116.470879 82.883887 
L 116.857741 82.349407 
L 117.631465 64.637657 
L 118.018327 66.18303 
L 120.339499 66.18303 
L 120.72636 94.001051 
L 121.886946 117.575339 
L 122.273808 135.03385 
L 122.66067 127.644514 
L 123.047532 143.371043 
L 123.434394 149.719474 
L 124.59498 126.477373 
L 124.981842 132.510718 
L 125.368704 119.078377 
L 125.755566 135.393792 
L 126.142428 138.730389 
L 127.689876 160.734412 
L 128.076737 145.753596 
L 128.463599 175.505225 
L 128.850461 167.719073 
L 130.011047 163.309278 
L 130.397909 173.299972 
L 130.784771 197.733284 
L 131.171633 196.227624 
L 131.558495 204.901206 
L 132.719081 200.690661 
L 133.105943 200.039087 
L 133.492805 172.387896 
L 133.879667 176.224481 
L 134.266529 193.443215 
L 135.427114 190.10851 
L 135.813976 186.070313 
L 136.200838 162.365553 
L 136.5877 163.813198 
L 140.843182 163.813198 
L 141.230044 153.903156 
L 141.616906 155.359264 
L 142.003768 155.359264 
L 142.390629 174.146657 
L 143.551215 168.446239 
L 143.938077 153.583266 
L 144.324939 117.966323 
L 144.711801 119.458368 
L 152.062178 119.458368 
L 152.44904 129.325592 
L 152.835902 129.984928 
L 153.222764 97.948129 
L 154.38335 99.460191 
L 155.930798 99.460191 
L 157.091383 113.76007 
L 157.478245 74.744117 
L 157.865107 76.279383 
L 163.281175 76.279383 
L 163.668037 100.851736 
L 164.054898 97.420458 
L 165.215484 68.17662 
L 165.602346 69.718455 
L 185.332306 69.718455 
L 185.719167 52.300484 
L 186.879753 53.858195 
L 190.361511 53.858195 
L 190.748373 53.412039 
L 191.135235 54.968637 
L 197.711888 54.968637 
L 198.09875 59.245714 
L 198.485612 78.584626 
L 198.872474 87.978977 
L 199.259336 103.609081 
L 200.419921 105.011115 
L 201.193645 161.558789 
L 201.580507 123.775362 
L 201.967369 146.267145 
L 203.127955 165.116926 
L 203.514817 132.618113 
L 203.901679 79.900782 
L 204.288541 81.430892 
L 230.982015 81.430892 
L 231.368877 76.624257 
L 231.755739 78.157643 
L 234.463773 78.157643 
L 235.624359 85.520054 
L 236.011221 61.240979 
L 236.398082 62.789749 
L 258.062351 62.789749 
L 258.449213 52.149969 
L 258.836075 53.707829 
L 282.047792 53.707829 
L 282.434654 52.149969 
L 282.821516 53.707829 
L 290.945617 53.707829 
L 291.332479 82.394366 
L 292.879927 136.031029 
L 293.266789 122.417951 
L 293.653651 127.198233 
L 294.040512 123.377329 
L 295.201098 103.517311 
L 295.58796 79.017118 
L 295.974822 80.548111 
L 298.682856 80.548111 
L 299.069718 97.98875 
L 299.45658 104.169627 
L 300.617166 89.274416 
L 301.004028 57.23539 
L 301.390889 58.788165 
L 301.777751 52.69803 
L 302.164613 54.255343 
L 303.325199 52.149969 
L 303.712061 53.707829 
L 304.098923 53.707829 
L 304.485785 52.149969 
L 304.872647 63.109745 
L 306.033233 72.681319 
L 306.420095 91.986359 
L 306.806957 103.557047 
L 307.193819 95.499117 
L 307.580681 98.632322 
L 308.741266 92.35626 
L 309.128128 85.445776 
L 309.51499 60.78228 
L 309.901852 62.331508 
L 310.288714 62.331508 
L 311.4493 52.149969 
L 311.836162 53.707829 
L 342.398256 53.707829 
L 342.785118 65.07196 
L 343.945704 52.149969 
L 344.332566 53.707829 
L 344.719427 53.707829 
L 345.106289 52.149969 
L 345.493151 53.707829 
L 346.653737 60.496758 
L 347.040599 58.335649 
L 347.427461 59.627978 
L 347.814323 52.149969 
L 348.201185 52.149969 
L 349.361771 53.707829 
L 362.901939 53.707829 
L 363.288801 52.149969 
L 363.675663 53.707829 
L 364.062525 53.707829 
L 364.449387 57.923476 
L 365.609973 53.819526 
L 365.996835 72.232192 
L 366.383696 58.82277 
L 366.770558 52.149969 
L 367.15742 53.707829 
L 371.799764 53.707829 
L 372.186626 71.466793 
L 372.573488 72.463699 
L 373.734073 65.974601 
L 374.120935 64.7177 
L 374.507797 78.542148 
L 374.894659 61.59957 
L 375.281521 63.147981 
L 377.989555 63.147981 
L 379.150141 65.647052 
L 379.537003 60.473389 
L 379.923865 62.022927 
L 380.310727 59.730057 
L 380.697588 86.255058 
L 382.245036 52.149969 
L 382.631898 53.707829 
L 383.405622 53.707829 
L 384.566208 76.403516 
L 384.95307 81.494822 
L 385.339932 100.732303 
L 385.726794 87.433521 
L 386.113656 52.149969 
L 387.274242 53.707829 
L 387.661104 70.517788 
L 388.047965 65.853184 
L 388.434827 52.149969 
L 388.821689 53.707829 
L 389.982275 52.149969 
L 390.369137 52.149969 
L 390.755999 53.707829 
L 391.142861 53.707829 
L 391.529723 62.845468 
L 392.690309 72.17304 
L 393.077171 56.793289 
L 393.464033 52.149969 
L 393.850895 84.675774 
L 394.237757 74.905467 
L 395.398342 85.20275 
L 395.785204 61.394382 
L 396.558928 84.100018 
L 396.94579 73.851954 
L 398.106376 59.413577 
L 398.493238 60.964174 
L 398.8801 60.964174 
L 399.266962 52.167733 
L 399.653824 53.725576 
L 400.81441 52.149969 
L 401.201272 78.23333 
L 401.588134 69.699296 
L 401.974996 84.231211 
L 402.361857 107.235091 
L 403.909305 89.297584 
L 404.296167 100.158662 
L 404.683029 73.328304 
L 405.069891 81.126826 
L 406.230477 80.23172 
L 406.617339 74.980233 
L 407.004201 86.04761 
L 407.391063 77.100726 
L 407.777925 78.633636 
L 408.938511 87.406045 
L 409.325373 61.994611 
L 409.712234 63.542627 
L 410.099096 108.922062 
L 410.485958 79.315751 
L 411.646544 52.149969 
L 412.033406 53.707829 
L 412.420268 53.707829 
L 412.80713 60.741695 
L 413.193992 65.744981 
L 414.354578 68.952307 
L 414.74144 89.100773 
L 415.515164 68.199831 
L 415.902026 95.299571 
L 417.062611 82.231607 
L 417.449473 52.149969 
L 417.836335 53.707829 
L 420.931231 53.707829 
L 421.318093 52.149969 
L 422.478679 53.707829 
L 429.442194 53.707829 
L 430.60278 84.841644 
L 430.989642 75.68644 
L 431.376503 84.975582 
L 431.763365 130.900773 
L 432.150227 116.605869 
L 433.310813 111.417095 
L 433.697675 123.902772 
L 434.084537 146.909034 
L 434.471399 131.865134 
L 434.858261 125.358534 
L 436.018847 81.992287 
L 436.405709 83.520306 
L 446.850981 83.520306 
L 447.624705 118.463806 
L 448.011567 121.76133 
L 448.398429 101.449875 
L 449.559015 105.578769 
L 449.945877 123.776397 
L 450.332739 124.49475 
L 450.719601 105.372852 
L 451.106463 122.594187 
L 452.267049 138.464283 
L 452.653911 128.271668 
L 453.040772 131.90995 
L 453.427634 120.082691 
L 453.814496 120.028697 
L 454.975082 107.129591 
L 455.748806 110.051296 
L 456.135668 113.53956 
L 456.52253 134.9206 
L 457.683116 162.048285 
L 458.069978 149.791845 
L 458.45684 155.637675 
L 458.843702 173.082654 
L 459.230564 174.453041 
L 460.391149 154.597841 
L 460.778011 193.607418 
L 461.164873 218.540211 
L 461.551735 233.589969 
L 461.938597 208.962595 
L 463.099183 203.922325 
L 463.486045 190.631697 
L 464.259769 228.05027 
L 464.646631 220.326042 
L 465.807217 219.075747 
L 466.194079 209.606352 
L 466.580941 212.477108 
L 466.967803 207.524263 
L 467.354664 204.579561 
L 468.51525 191.117225 
L 468.902112 192.536118 
L 469.675836 192.536118 
L 470.062698 176.524431 
L 471.223284 155.656244 
L 471.610146 157.110599 
L 471.997008 190.346001 
L 472.38387 188.373544 
L 472.770732 172.117203 
L 473.931318 140.469376 
L 474.31818 141.938918 
L 475.091903 141.938918 
L 475.091903 141.938918 
" clip-path="url(#p4fbc948829)" style="fill: none; stroke: #d1242f; stroke-width: 1.2; stroke-linecap: square"/>
   </g>
   <g id="patch_3">
    <path d="M 48.982813 242.661969 
L 48.982813 43.077969 
" style="fill: none; stroke: #000000; stroke-width: 0.8; stroke-linejoin: miter; stroke-linecap: square"/>
   </g>
   <g id="patch_4">
    <path d="M 48.982813 242.661969 
L 495.382813 242.661969 
" style="fill: none; stroke: #000000; stroke-width: 0.8; stroke-linejoin: miter; stroke-linecap: square"/>
   </g>
   <g id="text_19">
    <!-- How deep and how long are the strategy's losing stretches? -->
    <g style="fill: #57606a" transform="translate(137.040781 38.21249) scale(0.09 -0.09)">
     <defs>
      <path id="DejaVuSans-Oblique-48" d="M 1081 4666 
L 1716 4666 
L 1344 2753 
L 3634 2753 
L 4006 4666 
L 4641 4666 
L 3731 0 
L 3097 0 
L 3531 2222 
L 1241 2222 
L 806 0 
L 172 0 
L 1081 4666 
z
" transform="scale(0.015625)"/>
      <path id="DejaVuSans-Oblique-6f" d="M 1625 -91 
Q 1009 -91 651 289 
Q 294 669 294 1325 
Q 294 1706 417 2101 
Q 541 2497 738 2766 
Q 1047 3184 1428 3384 
Q 1809 3584 2291 3584 
Q 2888 3584 3255 3212 
Q 3622 2841 3622 2241 
Q 3622 1825 3500 1412 
Q 3378 1000 3181 728 
Q 2875 309 2494 109 
Q 2113 -91 1625 -91 
z
M 891 1344 
Q 891 869 1089 633 
Q 1288 397 1691 397 
Q 2269 397 2648 901 
Q 3028 1406 3028 2181 
Q 3028 2634 2825 2865 
Q 2622 3097 2228 3097 
Q 1903 3097 1650 2945 
Q 1397 2794 1197 2484 
Q 1050 2253 970 1956 
Q 891 1659 891 1344 
z
" transform="scale(0.015625)"/>
      <path id="DejaVuSans-Oblique-77" d="M 544 3500 
L 1113 3500 
L 1259 684 
L 2566 3500 
L 3231 3500 
L 3425 684 
L 4666 3500 
L 5241 3500 
L 3641 0 
L 2969 0 
L 2797 2900 
L 1459 0 
L 781 0 
L 544 3500 
z
" transform="scale(0.015625)"/>
      <path id="DejaVuSans-Oblique-20" transform="scale(0.015625)"/>
      <path id="DejaVuSans-Oblique-64" d="M 2675 525 
Q 2444 222 2128 65 
Q 1813 -91 1428 -91 
Q 903 -91 598 267 
Q 294 625 294 1247 
Q 294 1766 478 2236 
Q 663 2706 1013 3078 
Q 1244 3325 1534 3454 
Q 1825 3584 2144 3584 
Q 2481 3584 2739 3421 
Q 2997 3259 3138 2956 
L 3513 4863 
L 4091 4863 
L 3144 0 
L 2566 0 
L 2675 525 
z
M 891 1350 
Q 891 897 1095 644 
Q 1300 391 1663 391 
Q 1931 391 2161 520 
Q 2391 650 2566 903 
Q 2750 1166 2856 1509 
Q 2963 1853 2963 2188 
Q 2963 2622 2758 2865 
Q 2553 3109 2194 3109 
Q 1922 3109 1687 2981 
Q 1453 2853 1288 2613 
Q 1106 2353 998 2009 
Q 891 1666 891 1350 
z
" transform="scale(0.015625)"/>
      <path id="DejaVuSans-Oblique-65" d="M 3078 2063 
Q 3088 2113 3092 2166 
Q 3097 2219 3097 2272 
Q 3097 2653 2873 2875 
Q 2650 3097 2266 3097 
Q 1838 3097 1509 2826 
Q 1181 2556 1013 2059 
L 3078 2063 
z
M 3578 1613 
L 903 1613 
Q 884 1494 878 1425 
Q 872 1356 872 1306 
Q 872 872 1139 634 
Q 1406 397 1894 397 
Q 2269 397 2603 481 
Q 2938 566 3225 728 
L 3116 159 
Q 2806 34 2476 -28 
Q 2147 -91 1806 -91 
Q 1078 -91 686 257 
Q 294 606 294 1247 
Q 294 1794 489 2264 
Q 684 2734 1063 3103 
Q 1306 3334 1642 3459 
Q 1978 3584 2356 3584 
Q 2950 3584 3301 3228 
Q 3653 2872 3653 2272 
Q 3653 2128 3634 1964 
Q 3616 1800 3578 1613 
z
" transform="scale(0.015625)"/>
      <path id="DejaVuSans-Oblique-70" d="M 3175 2156 
Q 3175 2616 2975 2859 
Q 2775 3103 2400 3103 
Q 2144 3103 1911 2972 
Q 1678 2841 1497 2591 
Q 1319 2344 1212 1994 
Q 1106 1644 1106 1300 
Q 1106 863 1306 627 
Q 1506 391 1875 391 
Q 2147 391 2380 519 
Q 2613 647 2778 891 
Q 2956 1147 3065 1494 
Q 3175 1841 3175 2156 
z
M 1394 2969 
Q 1625 3272 1939 3428 
Q 2253 3584 2638 3584 
Q 3175 3584 3472 3232 
Q 3769 2881 3769 2247 
Q 3769 1728 3584 1258 
Q 3400 788 3053 416 
Q 2822 169 2531 39 
Q 2241 -91 1919 -91 
Q 1547 -91 1294 64 
Q 1041 219 916 525 
L 556 -1331 
L -19 -1331 
L 922 3500 
L 1497 3500 
L 1394 2969 
z
" transform="scale(0.015625)"/>
      <path id="DejaVuSans-Oblique-61" d="M 3438 1997 
L 3047 0 
L 2472 0 
L 2578 531 
Q 2325 219 2001 64 
Q 1678 -91 1281 -91 
Q 834 -91 548 182 
Q 263 456 263 884 
Q 263 1497 752 1853 
Q 1241 2209 2100 2209 
L 2900 2209 
L 2931 2363 
Q 2938 2388 2941 2417 
Q 2944 2447 2944 2509 
Q 2944 2788 2717 2942 
Q 2491 3097 2081 3097 
Q 1800 3097 1504 3025 
Q 1209 2953 897 2809 
L 997 3341 
Q 1322 3463 1633 3523 
Q 1944 3584 2234 3584 
Q 2853 3584 3176 3315 
Q 3500 3047 3500 2534 
Q 3500 2431 3484 2292 
Q 3469 2153 3438 1997 
z
M 2816 1759 
L 2241 1759 
Q 1534 1759 1195 1570 
Q 856 1381 856 984 
Q 856 709 1029 553 
Q 1203 397 1509 397 
Q 1978 397 2328 733 
Q 2678 1069 2791 1631 
L 2816 1759 
z
" transform="scale(0.015625)"/>
      <path id="DejaVuSans-Oblique-6e" d="M 3566 2113 
L 3156 0 
L 2578 0 
L 2988 2091 
Q 3016 2238 3031 2350 
Q 3047 2463 3047 2528 
Q 3047 2791 2881 2937 
Q 2716 3084 2419 3084 
Q 1956 3084 1622 2776 
Q 1288 2469 1184 1941 
L 800 0 
L 225 0 
L 903 3500 
L 1478 3500 
L 1363 2950 
Q 1603 3253 1940 3418 
Q 2278 3584 2650 3584 
Q 3113 3584 3367 3334 
Q 3622 3084 3622 2631 
Q 3622 2519 3608 2391 
Q 3594 2263 3566 2113 
z
" transform="scale(0.015625)"/>
      <path id="DejaVuSans-Oblique-68" d="M 3566 2113 
L 3156 0 
L 2578 0 
L 2988 2091 
Q 3016 2238 3031 2350 
Q 3047 2463 3047 2528 
Q 3047 2791 2881 2937 
Q 2716 3084 2419 3084 
Q 1956 3084 1617 2771 
Q 1278 2459 1178 1941 
L 800 0 
L 225 0 
L 1172 4863 
L 1747 4863 
L 1375 2950 
Q 1594 3244 1934 3414 
Q 2275 3584 2650 3584 
Q 3113 3584 3367 3334 
Q 3622 3084 3622 2631 
Q 3622 2519 3608 2391 
Q 3594 2263 3566 2113 
z
" transform="scale(0.015625)"/>
      <path id="DejaVuSans-Oblique-6c" d="M 1172 4863 
L 1747 4863 
L 800 0 
L 225 0 
L 1172 4863 
z
" transform="scale(0.015625)"/>
      <path id="DejaVuSans-Oblique-67" d="M 3816 3500 
L 3219 434 
Q 3047 -456 2561 -893 
Q 2075 -1331 1253 -1331 
Q 950 -1331 690 -1286 
Q 431 -1241 206 -1147 
L 313 -588 
Q 525 -725 762 -790 
Q 1000 -856 1269 -856 
Q 1816 -856 2167 -557 
Q 2519 -259 2631 300 
L 2681 563 
Q 2441 288 2122 144 
Q 1803 0 1434 0 
Q 903 0 598 351 
Q 294 703 294 1319 
Q 294 1803 478 2267 
Q 663 2731 997 3091 
Q 1219 3328 1514 3456 
Q 1809 3584 2131 3584 
Q 2484 3584 2746 3420 
Q 3009 3256 3138 2956 
L 3238 3500 
L 3816 3500 
z
M 2950 2216 
Q 2950 2641 2750 2872 
Q 2550 3103 2181 3103 
Q 1953 3103 1747 3012 
Q 1541 2922 1394 2759 
Q 1156 2491 1023 2127 
Q 891 1763 891 1375 
Q 891 944 1092 712 
Q 1294 481 1672 481 
Q 2219 481 2584 976 
Q 2950 1472 2950 2216 
z
" transform="scale(0.015625)"/>
      <path id="DejaVuSans-Oblique-72" d="M 2853 2969 
Q 2766 3016 2653 3041 
Q 2541 3066 2413 3066 
Q 1953 3066 1609 2717 
Q 1266 2369 1153 1784 
L 800 0 
L 225 0 
L 909 3500 
L 1484 3500 
L 1375 2956 
Q 1603 3259 1920 3421 
Q 2238 3584 2597 3584 
Q 2691 3584 2781 3573 
Q 2872 3563 2963 3538 
L 2853 2969 
z
" transform="scale(0.015625)"/>
      <path id="DejaVuSans-Oblique-74" d="M 2706 3500 
L 2619 3053 
L 1472 3053 
L 1100 1153 
Q 1081 1047 1072 975 
Q 1063 903 1063 863 
Q 1063 663 1183 572 
Q 1303 481 1569 481 
L 2150 481 
L 2053 0 
L 1503 0 
Q 991 0 739 200 
Q 488 400 488 806 
Q 488 878 497 964 
Q 506 1050 525 1153 
L 897 3053 
L 409 3053 
L 500 3500 
L 978 3500 
L 1172 4494 
L 1747 4494 
L 1556 3500 
L 2706 3500 
z
" transform="scale(0.015625)"/>
      <path id="DejaVuSans-Oblique-73" d="M 3200 3397 
L 3091 2853 
Q 2863 2978 2609 3040 
Q 2356 3103 2088 3103 
Q 1634 3103 1373 2948 
Q 1113 2794 1113 2528 
Q 1113 2219 1719 2053 
Q 1766 2041 1788 2034 
L 1972 1978 
Q 2547 1819 2739 1644 
Q 2931 1469 2931 1166 
Q 2931 609 2489 259 
Q 2047 -91 1331 -91 
Q 1053 -91 747 -37 
Q 441 16 72 128 
L 184 722 
Q 500 559 806 475 
Q 1113 391 1394 391 
Q 1816 391 2080 572 
Q 2344 753 2344 1031 
Q 2344 1331 1650 1516 
L 1591 1531 
L 1394 1581 
Q 956 1697 753 1886 
Q 550 2075 550 2369 
Q 550 2928 970 3256 
Q 1391 3584 2113 3584 
Q 2397 3584 2667 3537 
Q 2938 3491 3200 3397 
z
" transform="scale(0.015625)"/>
      <path id="DejaVuSans-Oblique-79" d="M 1588 -325 
Q 1188 -997 936 -1164 
Q 684 -1331 294 -1331 
L -159 -1331 
L -63 -850 
L 269 -850 
Q 509 -850 678 -719 
Q 847 -588 1056 -206 
L 1234 128 
L 459 3500 
L 1069 3500 
L 1650 819 
L 3256 3500 
L 3859 3500 
L 1588 -325 
z
" transform="scale(0.015625)"/>
      <path id="DejaVuSans-Oblique-27" d="M 1147 4666 
L 1147 2931 
L 616 2931 
L 616 4666 
L 1147 4666 
z
" transform="scale(0.015625)"/>
      <path id="DejaVuSans-Oblique-69" d="M 1172 4863 
L 1747 4863 
L 1606 4134 
L 1031 4134 
L 1172 4863 
z
M 909 3500 
L 1484 3500 
L 800 0 
L 225 0 
L 909 3500 
z
" transform="scale(0.015625)"/>
      <path id="DejaVuSans-Oblique-63" d="M 3431 3366 
L 3316 2797 
Q 3109 2947 2876 3022 
Q 2644 3097 2394 3097 
Q 2119 3097 1870 3000 
Q 1622 2903 1453 2725 
Q 1184 2453 1037 2087 
Q 891 1722 891 1331 
Q 891 859 1127 628 
Q 1363 397 1844 397 
Q 2081 397 2348 469 
Q 2616 541 2906 684 
L 2797 116 
Q 2547 13 2283 -39 
Q 2019 -91 1741 -91 
Q 1044 -91 669 257 
Q 294 606 294 1253 
Q 294 1797 489 2255 
Q 684 2713 1069 3078 
Q 1331 3328 1684 3456 
Q 2038 3584 2456 3584 
Q 2700 3584 2940 3529 
Q 3181 3475 3431 3366 
z
" transform="scale(0.015625)"/>
      <path id="DejaVuSans-Oblique-3f" d="M 1594 794 
L 1441 0 
L 806 0 
L 959 794 
L 1594 794 
z
M 903 4397 
Q 1222 4575 1539 4662 
Q 1856 4750 2188 4750 
Q 2691 4750 2981 4515 
Q 3272 4281 3272 3878 
Q 3272 3556 3105 3275 
Q 2938 2994 2559 2688 
L 2234 2425 
Q 1972 2219 1884 2072 
Q 1797 1925 1741 1638 
L 1663 1253 
L 1069 1253 
L 1166 1734 
Q 1222 2028 1344 2233 
Q 1466 2438 1813 2725 
L 2144 3003 
Q 2406 3222 2512 3387 
Q 2619 3553 2619 3731 
Q 2619 3969 2448 4103 
Q 2278 4238 1978 4238 
Q 1728 4238 1420 4127 
Q 1113 4016 788 3809 
L 903 4397 
z
" transform="scale(0.015625)"/>
     </defs>
     <use xlink:href="#DejaVuSans-Oblique-48"/>
     <use xlink:href="#DejaVuSans-Oblique-6f" transform="translate(75.195312 0)"/>
     <use xlink:href="#DejaVuSans-Oblique-77" transform="translate(136.376953 0)"/>
     <use xlink:href="#DejaVuSans-Oblique-20" transform="translate(218.164062 0)"/>
     <use xlink:href="#DejaVuSans-Oblique-64" transform="translate(249.951172 0)"/>
     <use xlink:href="#DejaVuSans-Oblique-65" transform="translate(313.427734 0)"/>
     <use xlink:href="#DejaVuSans-Oblique-65" transform="translate(374.951172 0)"/>
     <use xlink:href="#DejaVuSans-Oblique-70" transform="translate(436.474609 0)"/>
     <use xlink:href="#DejaVuSans-Oblique-20" transform="translate(499.951172 0)"/>
     <use xlink:href="#DejaVuSans-Oblique-61" transform="translate(531.738281 0)"/>
     <use xlink:href="#DejaVuSans-Oblique-6e" transform="translate(593.017578 0)"/>
     <use xlink:href="#DejaVuSans-Oblique-64" transform="translate(656.396484 0)"/>
     <use xlink:href="#DejaVuSans-Oblique-20" transform="translate(719.873047 0)"/>
     <use xlink:href="#DejaVuSans-Oblique-68" transform="translate(751.660156 0)"/>
     <use xlink:href="#DejaVuSans-Oblique-6f" transform="translate(815.039062 0)"/>
     <use xlink:href="#DejaVuSans-Oblique-77" transform="translate(876.220703 0)"/>
     <use xlink:href="#DejaVuSans-Oblique-20" transform="translate(958.007812 0)"/>
     <use xlink:href="#DejaVuSans-Oblique-6c" transform="translate(989.794922 0)"/>
     <use xlink:href="#DejaVuSans-Oblique-6f" transform="translate(1017.578125 0)"/>
     <use xlink:href="#DejaVuSans-Oblique-6e" transform="translate(1078.759766 0)"/>
     <use xlink:href="#DejaVuSans-Oblique-67" transform="translate(1142.138672 0)"/>
     <use xlink:href="#DejaVuSans-Oblique-20" transform="translate(1205.615234 0)"/>
     <use xlink:href="#DejaVuSans-Oblique-61" transform="translate(1237.402344 0)"/>
     <use xlink:href="#DejaVuSans-Oblique-72" transform="translate(1298.681641 0)"/>
     <use xlink:href="#DejaVuSans-Oblique-65" transform="translate(1339.794922 0)"/>
     <use xlink:href="#DejaVuSans-Oblique-20" transform="translate(1401.318359 0)"/>
     <use xlink:href="#DejaVuSans-Oblique-74" transform="translate(1433.105469 0)"/>
     <use xlink:href="#DejaVuSans-Oblique-68" transform="translate(1472.314453 0)"/>
     <use xlink:href="#DejaVuSans-Oblique-65" transform="translate(1535.693359 0)"/>
     <use xlink:href="#DejaVuSans-Oblique-20" transform="translate(1597.216797 0)"/>
     <use xlink:href="#DejaVuSans-Oblique-73" transform="translate(1629.003906 0)"/>
     <use xlink:href="#DejaVuSans-Oblique-74" transform="translate(1681.103516 0)"/>
     <use xlink:href="#DejaVuSans-Oblique-72" transform="translate(1720.3125 0)"/>
     <use xlink:href="#DejaVuSans-Oblique-61" transform="translate(1761.425781 0)"/>
     <use xlink:href="#DejaVuSans-Oblique-74" transform="translate(1822.705078 0)"/>
     <use xlink:href="#DejaVuSans-Oblique-65" transform="translate(1861.914062 0)"/>
     <use xlink:href="#DejaVuSans-Oblique-67" transform="translate(1923.4375 0)"/>
     <use xlink:href="#DejaVuSans-Oblique-79" transform="translate(1986.914062 0)"/>
     <use xlink:href="#DejaVuSans-Oblique-27" transform="translate(2046.09375 0)"/>
     <use xlink:href="#DejaVuSans-Oblique-73" transform="translate(2073.583984 0)"/>
     <use xlink:href="#DejaVuSans-Oblique-20" transform="translate(2125.683594 0)"/>
     <use xlink:href="#DejaVuSans-Oblique-6c" transform="translate(2157.470703 0)"/>
     <use xlink:href="#DejaVuSans-Oblique-6f" transform="translate(2185.253906 0)"/>
     <use xlink:href="#DejaVuSans-Oblique-73" transform="translate(2246.435547 0)"/>
     <use xlink:href="#DejaVuSans-Oblique-69" transform="translate(2298.535156 0)"/>
     <use xlink:href="#DejaVuSans-Oblique-6e" transform="translate(2326.318359 0)"/>
     <use xlink:href="#DejaVuSans-Oblique-67" transform="translate(2389.697266 0)"/>
     <use xlink:href="#DejaVuSans-Oblique-20" transform="translate(2453.173828 0)"/>
     <use xlink:href="#DejaVuSans-Oblique-73" transform="translate(2484.960938 0)"/>
     <use xlink:href="#DejaVuSans-Oblique-74" transform="translate(2537.060547 0)"/>
     <use xlink:href="#DejaVuSans-Oblique-72" transform="translate(2576.269531 0)"/>
     <use xlink:href="#DejaVuSans-Oblique-65" transform="translate(2617.382812 0)"/>
     <use xlink:href="#DejaVuSans-Oblique-74" transform="translate(2678.90625 0)"/>
     <use xlink:href="#DejaVuSans-Oblique-63" transform="translate(2718.115234 0)"/>
     <use xlink:href="#DejaVuSans-Oblique-68" transform="translate(2773.095703 0)"/>
     <use xlink:href="#DejaVuSans-Oblique-65" transform="translate(2836.474609 0)"/>
     <use xlink:href="#DejaVuSans-Oblique-73" transform="translate(2897.998047 0)"/>
     <use xlink:href="#DejaVuSans-Oblique-3f" transform="translate(2950.097656 0)"/>
    </g>
   </g>
   <g id="patch_5">
    <path d="M 306.97749 210.899616 
Q 383.276353 222.099723 458.469036 233.137451 
" style="fill: none; stroke: #57606a; stroke-linecap: round"/>
    <path d="M 455.168632 230.833687 
L 458.469036 233.137451 
L 454.645781 234.395516 
" style="fill: none; stroke: #57606a; stroke-linecap: round"/>
   </g>
   <g id="text_20">
    <!-- Worst drawdown: -11.6% -->
    <g style="fill: #57606a" transform="translate(205.222812 206.736849) scale(0.09 -0.09)">
     <defs>
      <path id="DejaVuSans-57" d="M 213 4666 
L 850 4666 
L 1831 722 
L 2809 4666 
L 3519 4666 
L 4500 722 
L 5478 4666 
L 6119 4666 
L 4947 0 
L 4153 0 
L 3169 4050 
L 2175 0 
L 1381 0 
L 213 4666 
z
" transform="scale(0.015625)"/>
      <path id="DejaVuSans-73" d="M 2834 3397 
L 2834 2853 
Q 2591 2978 2328 3040 
Q 2066 3103 1784 3103 
Q 1356 3103 1142 2972 
Q 928 2841 928 2578 
Q 928 2378 1081 2264 
Q 1234 2150 1697 2047 
L 1894 2003 
Q 2506 1872 2764 1633 
Q 3022 1394 3022 966 
Q 3022 478 2636 193 
Q 2250 -91 1575 -91 
Q 1294 -91 989 -36 
Q 684 19 347 128 
L 347 722 
Q 666 556 975 473 
Q 1284 391 1588 391 
Q 1994 391 2212 530 
Q 2431 669 2431 922 
Q 2431 1156 2273 1281 
Q 2116 1406 1581 1522 
L 1381 1569 
Q 847 1681 609 1914 
Q 372 2147 372 2553 
Q 372 3047 722 3315 
Q 1072 3584 1716 3584 
Q 2034 3584 2315 3537 
Q 2597 3491 2834 3397 
z
" transform="scale(0.015625)"/>
      <path id="DejaVuSans-74" d="M 1172 4494 
L 1172 3500 
L 2356 3500 
L 2356 3053 
L 1172 3053 
L 1172 1153 
Q 1172 725 1289 603 
Q 1406 481 1766 481 
L 2356 481 
L 2356 0 
L 1766 0 
Q 1100 0 847 248 
Q 594 497 594 1153 
L 594 3053 
L 172 3053 
L 172 3500 
L 594 3500 
L 594 4494 
L 1172 4494 
z
" transform="scale(0.015625)"/>
      <path id="DejaVuSans-3a" d="M 750 794 
L 1409 794 
L 1409 0 
L 750 0 
L 750 794 
z
M 750 3309 
L 1409 3309 
L 1409 2516 
L 750 2516 
L 750 3309 
z
" transform="scale(0.015625)"/>
      <path id="DejaVuSans-2e" d="M 684 794 
L 1344 794 
L 1344 0 
L 684 0 
L 684 794 
z
" transform="scale(0.015625)"/>
     </defs>
     <use xlink:href="#DejaVuSans-57"/>
     <use xlink:href="#DejaVuSans-6f" transform="translate(93.001953 0)"/>
     <use xlink:href="#DejaVuSans-72" transform="translate(154.183594 0)"/>
     <use xlink:href="#DejaVuSans-73" transform="translate(195.296875 0)"/>
     <use xlink:href="#DejaVuSans-74" transform="translate(247.396484 0)"/>
     <use xlink:href="#DejaVuSans-20" transform="translate(286.605469 0)"/>
     <use xlink:href="#DejaVuSans-64" transform="translate(318.392578 0)"/>
     <use xlink:href="#DejaVuSans-72" transform="translate(381.869141 0)"/>
     <use xlink:href="#DejaVuSans-61" transform="translate(422.982422 0)"/>
     <use xlink:href="#DejaVuSans-77" transform="translate(484.261719 0)"/>
     <use xlink:href="#DejaVuSans-64" transform="translate(566.048828 0)"/>
     <use xlink:href="#DejaVuSans-6f" transform="translate(629.525391 0)"/>
     <use xlink:href="#DejaVuSans-77" transform="translate(690.707031 0)"/>
     <use xlink:href="#DejaVuSans-6e" transform="translate(772.494141 0)"/>
     <use xlink:href="#DejaVuSans-3a" transform="translate(835.873047 0)"/>
     <use xlink:href="#DejaVuSans-20" transform="translate(869.564453 0)"/>
     <use xlink:href="#DejaVuSans-2d" transform="translate(901.351562 0)"/>
     <use xlink:href="#DejaVuSans-31" transform="translate(937.435547 0)"/>
     <use xlink:href="#DejaVuSans-31" transform="translate(1001.058594 0)"/>
     <use xlink:href="#DejaVuSans-2e" transform="translate(1064.681641 0)"/>
     <use xlink:href="#DejaVuSans-36" transform="translate(1096.46875 0)"/>
     <use xlink:href="#DejaVuSans-25" transform="translate(1160.091797 0)"/>
    </g>
   </g>
   <g id="text_21">
    <!-- Drawdown Profile -->
    <g transform="translate(207.047734 17.077969) scale(0.13 -0.13)">
     <defs>
      <path id="DejaVuSans-Bold-44" d="M 1791 3756 
L 1791 909 
L 2222 909 
Q 2959 909 3348 1275 
Q 3738 1641 3738 2338 
Q 3738 3031 3350 3393 
Q 2963 3756 2222 3756 
L 1791 3756 
z
M 588 4666 
L 1856 4666 
Q 2919 4666 3439 4514 
Q 3959 4363 4331 4000 
Q 4659 3684 4818 3271 
Q 4978 2859 4978 2338 
Q 4978 1809 4818 1395 
Q 4659 981 4331 666 
Q 3956 303 3431 151 
Q 2906 0 1856 0 
L 588 0 
L 588 4666 
z
" transform="scale(0.015625)"/>
      <path id="DejaVuSans-Bold-72" d="M 3138 2547 
Q 2991 2616 2845 2648 
Q 2700 2681 2553 2681 
Q 2122 2681 1889 2404 
Q 1656 2128 1656 1613 
L 1656 0 
L 538 0 
L 538 3500 
L 1656 3500 
L 1656 2925 
Q 1872 3269 2151 3426 
Q 2431 3584 2822 3584 
Q 2878 3584 2943 3579 
Q 3009 3575 3134 3559 
L 3138 2547 
z
" transform="scale(0.015625)"/>
      <path id="DejaVuSans-Bold-61" d="M 2106 1575 
Q 1756 1575 1579 1456 
Q 1403 1338 1403 1106 
Q 1403 894 1545 773 
Q 1688 653 1941 653 
Q 2256 653 2472 879 
Q 2688 1106 2688 1447 
L 2688 1575 
L 2106 1575 
z
M 3816 1997 
L 3816 0 
L 2688 0 
L 2688 519 
Q 2463 200 2181 54 
Q 1900 -91 1497 -91 
Q 953 -91 614 226 
Q 275 544 275 1050 
Q 275 1666 698 1953 
Q 1122 2241 2028 2241 
L 2688 2241 
L 2688 2328 
Q 2688 2594 2478 2717 
Q 2269 2841 1825 2841 
Q 1466 2841 1156 2769 
Q 847 2697 581 2553 
L 581 3406 
Q 941 3494 1303 3539 
Q 1666 3584 2028 3584 
Q 2975 3584 3395 3211 
Q 3816 2838 3816 1997 
z
" transform="scale(0.015625)"/>
      <path id="DejaVuSans-Bold-77" d="M 225 3500 
L 1313 3500 
L 1900 1088 
L 2491 3500 
L 3425 3500 
L 4013 1113 
L 4603 3500 
L 5691 3500 
L 4769 0 
L 3547 0 
L 2956 2406 
L 2369 0 
L 1147 0 
L 225 3500 
z
" transform="scale(0.015625)"/>
      <path id="DejaVuSans-Bold-64" d="M 2919 2988 
L 2919 4863 
L 4044 4863 
L 4044 0 
L 2919 0 
L 2919 506 
Q 2688 197 2409 53 
Q 2131 -91 1766 -91 
Q 1119 -91 703 423 
Q 288 938 288 1747 
Q 288 2556 703 3070 
Q 1119 3584 1766 3584 
Q 2128 3584 2408 3439 
Q 2688 3294 2919 2988 
z
M 2181 722 
Q 2541 722 2730 984 
Q 2919 1247 2919 1747 
Q 2919 2247 2730 2509 
Q 2541 2772 2181 2772 
Q 1825 2772 1636 2509 
Q 1447 2247 1447 1747 
Q 1447 1247 1636 984 
Q 1825 722 2181 722 
z
" transform="scale(0.015625)"/>
      <path id="DejaVuSans-Bold-6f" d="M 2203 2784 
Q 1831 2784 1636 2517 
Q 1441 2250 1441 1747 
Q 1441 1244 1636 976 
Q 1831 709 2203 709 
Q 2569 709 2762 976 
Q 2956 1244 2956 1747 
Q 2956 2250 2762 2517 
Q 2569 2784 2203 2784 
z
M 2203 3584 
Q 3106 3584 3614 3096 
Q 4122 2609 4122 1747 
Q 4122 884 3614 396 
Q 3106 -91 2203 -91 
Q 1297 -91 786 396 
Q 275 884 275 1747 
Q 275 2609 786 3096 
Q 1297 3584 2203 3584 
z
" transform="scale(0.015625)"/>
      <path id="DejaVuSans-Bold-6e" d="M 4056 2131 
L 4056 0 
L 2931 0 
L 2931 347 
L 2931 1631 
Q 2931 2084 2911 2256 
Q 2891 2428 2841 2509 
Q 2775 2619 2662 2680 
Q 2550 2741 2406 2741 
Q 2056 2741 1856 2470 
Q 1656 2200 1656 1722 
L 1656 0 
L 538 0 
L 538 3500 
L 1656 3500 
L 1656 2988 
Q 1909 3294 2193 3439 
Q 2478 3584 2822 3584 
Q 3428 3584 3742 3212 
Q 4056 2841 4056 2131 
z
" transform="scale(0.015625)"/>
      <path id="DejaVuSans-Bold-20" transform="scale(0.015625)"/>
      <path id="DejaVuSans-Bold-50" d="M 588 4666 
L 2584 4666 
Q 3475 4666 3951 4270 
Q 4428 3875 4428 3144 
Q 4428 2409 3951 2014 
Q 3475 1619 2584 1619 
L 1791 1619 
L 1791 0 
L 588 0 
L 588 4666 
z
M 1791 3794 
L 1791 2491 
L 2456 2491 
Q 2806 2491 2997 2661 
Q 3188 2831 3188 3144 
Q 3188 3456 2997 3625 
Q 2806 3794 2456 3794 
L 1791 3794 
z
" transform="scale(0.015625)"/>
      <path id="DejaVuSans-Bold-66" d="M 2841 4863 
L 2841 4128 
L 2222 4128 
Q 1984 4128 1890 4042 
Q 1797 3956 1797 3744 
L 1797 3500 
L 2753 3500 
L 2753 2700 
L 1797 2700 
L 1797 0 
L 678 0 
L 678 2700 
L 122 2700 
L 122 3500 
L 678 3500 
L 678 3744 
Q 678 4316 997 4589 
Q 1316 4863 1984 4863 
L 2841 4863 
z
" transform="scale(0.015625)"/>
      <path id="DejaVuSans-Bold-69" d="M 538 3500 
L 1656 3500 
L 1656 0 
L 538 0 
L 538 3500 
z
M 538 4863 
L 1656 4863 
L 1656 3950 
L 538 3950 
L 538 4863 
z
" transform="scale(0.015625)"/>
      <path id="DejaVuSans-Bold-6c" d="M 538 4863 
L 1656 4863 
L 1656 0 
L 538 0 
L 538 4863 
z
" transform="scale(0.015625)"/>
      <path id="DejaVuSans-Bold-65" d="M 4031 1759 
L 4031 1441 
L 1416 1441 
Q 1456 1047 1700 850 
Q 1944 653 2381 653 
Q 2734 653 3104 758 
Q 3475 863 3866 1075 
L 3866 213 
Q 3469 63 3072 -14 
Q 2675 -91 2278 -91 
Q 1328 -91 801 392 
Q 275 875 275 1747 
Q 275 2603 792 3093 
Q 1309 3584 2216 3584 
Q 3041 3584 3536 3087 
Q 4031 2591 4031 1759 
z
M 2881 2131 
Q 2881 2450 2695 2645 
Q 2509 2841 2209 2841 
Q 1884 2841 1681 2658 
Q 1478 2475 1428 2131 
L 2881 2131 
z
" transform="scale(0.015625)"/>
     </defs>
     <use xlink:href="#DejaVuSans-Bold-44"/>
     <use xlink:href="#DejaVuSans-Bold-72" transform="translate(83.007812 0)"/>
     <use xlink:href="#DejaVuSans-Bold-61" transform="translate(132.324219 0)"/>
     <use xlink:href="#DejaVuSans-Bold-77" transform="translate(199.804688 0)"/>
     <use xlink:href="#DejaVuSans-Bold-64" transform="translate(292.1875 0)"/>
     <use xlink:href="#DejaVuSans-Bold-6f" transform="translate(363.769531 0)"/>
     <use xlink:href="#DejaVuSans-Bold-77" transform="translate(432.470703 0)"/>
     <use xlink:href="#DejaVuSans-Bold-6e" transform="translate(524.853516 0)"/>
     <use xlink:href="#DejaVuSans-Bold-20" transform="translate(596.044922 0)"/>
     <use xlink:href="#DejaVuSans-Bold-50" transform="translate(630.859375 0)"/>
     <use xlink:href="#DejaVuSans-Bold-72" transform="translate(704.150391 0)"/>
     <use xlink:href="#DejaVuSans-Bold-6f" transform="translate(753.466797 0)"/>
     <use xlink:href="#DejaVuSans-Bold-66" transform="translate(822.167969 0)"/>
     <use xlink:href="#DejaVuSans-Bold-69" transform="translate(865.673828 0)"/>
     <use xlink:href="#DejaVuSans-Bold-6c" transform="translate(899.951172 0)"/>
     <use xlink:href="#DejaVuSans-Bold-65" transform="translate(934.228516 0)"/>
    </g>
   </g>
  </g>
 </g>
 <defs>
  <clipPath id="p4fbc948829">
   <rect x="48.982813" y="43.077969" width="446.4" height="199.584"/>
  </clipPath>
 </defs>
</svg>
