<?xml version="1.0" encoding="utf-8" standalone="no"?>
<!DOCTYPE svg PUBLIC "-//W3C//DTD SVG 1.1//EN"
  "http://www.w3.org/Graphics/SVG/1.1/DTD/svg11.dtd">
<svg xmlns:xlink="http://www.w3.org/1999/xlink" width="520.978959pt" height="299.804094pt" viewBox="0 0 520.978959 299.804094" xmlns="http://www.w3.org/2000/svg" version="1.1">
 <metadata>
  <rdf:RDF xmlns:dc="http://purl.org/dc/elements/1.1/" xmlns:cc="http://creativecommons.org/ns#" xmlns:rdf="http://www.w3.org/1999/02/22-rdf-syntax-ns#">
   <cc:Work>
    <dc:type rdf:resource="http://purl.org/dc/dcmitype/StillImage"/>
    <dc:date>2026-06-14T09:27:14.178162</dc:date>
    <dc:format>image/svg+xml</dc:format>
    <dc:creator>
     <cc:Agent>
      <dc:title>Matplotlib v3.10.5, https://matplotlib.org/</dc:title>
     </cc:Agent>
    </dc:creator>
   </cc:Work>
  </rdf:RDF>
 </metadata>
 <defs>
  <style type="text/css">*{stroke-linejoin: round; stroke-linecap: butt}</style>
 </defs>
 <g id="figure_1">
  <g id="patch_1">
   <path d="M 0 299.804094 
L 520.978959 299.804094 
L 520.978959 -0 
L 0 -0 
z
" style="fill: #ffffff"/>
  </g>
  <g id="axes_1">
   <g id="patch_2">
    <path d="M 48.982813 275.925969 
L 495.382812 275.925969 
L 495.382812 43.077969 
L 48.982813 43.077969 
z
" style="fill: #ffffff"/>
   </g>
   <g id="matplotlib.axis_1">
    <g id="xtick_1">
     <g id="line2d_1">
      <path d="M 69.273722 275.925969 
L 69.273722 43.077969 
" clip-path="url(#peccdc7cff7)" style="fill: none; stroke: #b0b0b0; stroke-opacity: 0.25; stroke-width: 0.8; stroke-linecap: square"/>
     </g>
     <g id="line2d_2">
      <defs>
       <path id="m664b1a3527" d="M 0 0 
L 0 3.5 
" style="stroke: #000000; stroke-width: 0.8"/>
      </defs>
      <g>
       <use xlink:href="#m664b1a3527" x="69.273722" y="275.925969" style="stroke: #000000; stroke-width: 0.8"/>
      </g>
     </g>
     <g id="text_1">
      <!-- 2021-01 -->
      <g transform="translate(48.382315 290.524406) scale(0.1 -0.1)">
       <defs>
        <path id="DejaVuSans-32" d="M 1228 531 
L 3431 531 
L 3431 0 
L 469 0 
L 469 531 
Q 828 903 1448 1529 
Q 2069 2156 2228 2338 
Q 2531 2678 2651 2914 
Q 2772 3150 2772 3378 
Q 2772 3750 2511 3984 
Q 2250 4219 1831 4219 
Q 1534 4219 1204 4116 
Q 875 4013 500 3803 
L 500 4441 
Q 881 4594 1212 4672 
Q 1544 4750 1819 4750 
Q 2544 4750 2975 4387 
Q 3406 4025 3406 3419 
Q 3406 3131 3298 2873 
Q 3191 2616 2906 2266 
Q 2828 2175 2409 1742 
Q 1991 1309 1228 531 
z
" transform="scale(0.015625)"/>
        <path id="DejaVuSans-30" d="M 2034 4250 
Q 1547 4250 1301 3770 
Q 1056 3291 1056 2328 
Q 1056 1369 1301 889 
Q 1547 409 2034 409 
Q 2525 409 2770 889 
Q 3016 1369 3016 2328 
Q 3016 3291 2770 3770 
Q 2525 4250 2034 4250 
z
M 2034 4750 
Q 2819 4750 3233 4129 
Q 3647 3509 3647 2328 
Q 3647 1150 3233 529 
Q 2819 -91 2034 -91 
Q 1250 -91 836 529 
Q 422 1150 422 2328 
Q 422 3509 836 4129 
Q 1250 4750 2034 4750 
z
" transform="scale(0.015625)"/>
        <path id="DejaVuSans-31" d="M 794 531 
L 1825 531 
L 1825 4091 
L 703 3866 
L 703 4441 
L 1819 4666 
L 2450 4666 
L 2450 531 
L 3481 531 
L 3481 0 
L 794 0 
L 794 531 
z
" transform="scale(0.015625)"/>
        <path id="DejaVuSans-2d" d="M 313 2009 
L 1997 2009 
L 1997 1497 
L 313 1497 
L 313 2009 
z
" transform="scale(0.015625)"/>
       </defs>
       <use xlink:href="#DejaVuSans-32"/>
       <use xlink:href="#DejaVuSans-30" transform="translate(63.623047 0)"/>
       <use xlink:href="#DejaVuSans-32" transform="translate(127.246094 0)"/>
       <use xlink:href="#DejaVuSans-31" transform="translate(190.869141 0)"/>
       <use xlink:href="#DejaVuSans-2d" transform="translate(254.492188 0)"/>
       <use xlink:href="#DejaVuSans-30" transform="translate(290.576172 0)"/>
       <use xlink:href="#DejaVuSans-31" transform="translate(354.199219 0)"/>
      </g>
     </g>
    </g>
    <g id="xtick_2">
     <g id="line2d_3">
      <path d="M 115.697155 275.925969 
L 115.697155 43.077969 
" clip-path="url(#peccdc7cff7)" style="fill: none; stroke: #b0b0b0; stroke-opacity: 0.25; stroke-width: 0.8; stroke-linecap: square"/>
     </g>
     <g id="line2d_4">
      <g>
       <use xlink:href="#m664b1a3527" x="115.697155" y="275.925969" style="stroke: #000000; stroke-width: 0.8"/>
      </g>
     </g>
     <g id="text_2">
      <!-- 2021-05 -->
      <g transform="translate(94.805749 290.524406) scale(0.1 -0.1)">
       <defs>
        <path id="DejaVuSans-35" d="M 691 4666 
L 3169 4666 
L 3169 4134 
L 1269 4134 
L 1269 2991 
Q 1406 3038 1543 3061 
Q 1681 3084 1819 3084 
Q 2600 3084 3056 2656 
Q 3513 2228 3513 1497 
Q 3513 744 3044 326 
Q 2575 -91 1722 -91 
Q 1428 -91 1123 -41 
Q 819 9 494 109 
L 494 744 
Q 775 591 1075 516 
Q 1375 441 1709 441 
Q 2250 441 2565 725 
Q 2881 1009 2881 1497 
Q 2881 1984 2565 2268 
Q 2250 2553 1709 2553 
Q 1456 2553 1204 2497 
Q 953 2441 691 2322 
L 691 4666 
z
" transform="scale(0.015625)"/>
       </defs>
       <use xlink:href="#DejaVuSans-32"/>
       <use xlink:href="#DejaVuSans-30" transform="translate(63.623047 0)"/>
       <use xlink:href="#DejaVuSans-32" transform="translate(127.246094 0)"/>
       <use xlink:href="#DejaVuSans-31" transform="translate(190.869141 0)"/>
       <use xlink:href="#DejaVuSans-2d" transform="translate(254.492188 0)"/>
       <use xlink:href="#DejaVuSans-30" transform="translate(290.576172 0)"/>
       <use xlink:href="#DejaVuSans-35" transform="translate(354.199219 0)"/>
      </g>
     </g>
    </g>
    <g id="xtick_3">
     <g id="line2d_5">
      <path d="M 163.281175 275.925969 
L 163.281175 43.077969 
" clip-path="url(#peccdc7cff7)" style="fill: none; stroke: #b0b0b0; stroke-opacity: 0.25; stroke-width: 0.8; stroke-linecap: square"/>
     </g>
     <g id="line2d_6">
      <g>
       <use xlink:href="#m664b1a3527" x="163.281175" y="275.925969" style="stroke: #000000; stroke-width: 0.8"/>
      </g>
     </g>
     <g id="text_3">
      <!-- 2021-09 -->
      <g transform="translate(142.389768 290.524406) scale(0.1 -0.1)">
       <defs>
        <path id="DejaVuSans-39" d="M 703 97 
L 703 672 
Q 941 559 1184 500 
Q 1428 441 1663 441 
Q 2288 441 2617 861 
Q 2947 1281 2994 2138 
Q 2813 1869 2534 1725 
Q 2256 1581 1919 1581 
Q 1219 1581 811 2004 
Q 403 2428 403 3163 
Q 403 3881 828 4315 
Q 1253 4750 1959 4750 
Q 2769 4750 3195 4129 
Q 3622 3509 3622 2328 
Q 3622 1225 3098 567 
Q 2575 -91 1691 -91 
Q 1453 -91 1209 -44 
Q 966 3 703 97 
z
M 1959 2075 
Q 2384 2075 2632 2365 
Q 2881 2656 2881 3163 
Q 2881 3666 2632 3958 
Q 2384 4250 1959 4250 
Q 1534 4250 1286 3958 
Q 1038 3666 1038 3163 
Q 1038 2656 1286 2365 
Q 1534 2075 1959 2075 
z
" transform="scale(0.015625)"/>
       </defs>
       <use xlink:href="#DejaVuSans-32"/>
       <use xlink:href="#DejaVuSans-30" transform="translate(63.623047 0)"/>
       <use xlink:href="#DejaVuSans-32" transform="translate(127.246094 0)"/>
       <use xlink:href="#DejaVuSans-31" transform="translate(190.869141 0)"/>
       <use xlink:href="#DejaVuSans-2d" transform="translate(254.492188 0)"/>
       <use xlink:href="#DejaVuSans-30" transform="translate(290.576172 0)"/>
       <use xlink:href="#DejaVuSans-39" transform="translate(354.199219 0)"/>
      </g>
     </g>
    </g>
    <g id="xtick_4">
     <g id="line2d_7">
      <path d="M 210.478332 275.925969 
L 210.478332 43.077969 
" clip-path="url(#peccdc7cff7)" style="fill: none; stroke: #b0b0b0; stroke-opacity: 0.25; stroke-width: 0.8; stroke-linecap: square"/>
     </g>
     <g id="line2d_8">
      <g>
       <use xlink:href="#m664b1a3527" x="210.478332" y="275.925969" style="stroke: #000000; stroke-width: 0.8"/>
      </g>
     </g>
     <g id="text_4">
      <!-- 2022-01 -->
      <g transform="translate(189.586926 290.524406) scale(0.1 -0.1)">
       <use xlink:href="#DejaVuSans-32"/>
       <use xlink:href="#DejaVuSans-30" transform="translate(63.623047 0)"/>
       <use xlink:href="#DejaVuSans-32" transform="translate(127.246094 0)"/>
       <use xlink:href="#DejaVuSans-32" transform="translate(190.869141 0)"/>
       <use xlink:href="#DejaVuSans-2d" transform="translate(254.492188 0)"/>
       <use xlink:href="#DejaVuSans-30" transform="translate(290.576172 0)"/>
       <use xlink:href="#DejaVuSans-31" transform="translate(354.199219 0)"/>
      </g>
     </g>
    </g>
    <g id="xtick_5">
     <g id="line2d_9">
      <path d="M 256.901766 275.925969 
L 256.901766 43.077969 
" clip-path="url(#peccdc7cff7)" style="fill: none; stroke: #b0b0b0; stroke-opacity: 0.25; stroke-width: 0.8; stroke-linecap: square"/>
     </g>
     <g id="line2d_10">
      <g>
       <use xlink:href="#m664b1a3527" x="256.901766" y="275.925969" style="stroke: #000000; stroke-width: 0.8"/>
      </g>
     </g>
     <g id="text_5">
      <!-- 2022-05 -->
      <g transform="translate(236.010359 290.524406) scale(0.1 -0.1)">
       <use xlink:href="#DejaVuSans-32"/>
       <use xlink:href="#DejaVuSans-30" transform="translate(63.623047 0)"/>
       <use xlink:href="#DejaVuSans-32" transform="translate(127.246094 0)"/>
       <use xlink:href="#DejaVuSans-32" transform="translate(190.869141 0)"/>
       <use xlink:href="#DejaVuSans-2d" transform="translate(254.492188 0)"/>
       <use xlink:href="#DejaVuSans-30" transform="translate(290.576172 0)"/>
       <use xlink:href="#DejaVuSans-35" transform="translate(354.199219 0)"/>
      </g>
     </g>
    </g>
    <g id="xtick_6">
     <g id="line2d_11">
      <path d="M 304.485785 275.925969 
L 304.485785 43.077969 
" clip-path="url(#peccdc7cff7)" style="fill: none; stroke: #b0b0b0; stroke-opacity: 0.25; stroke-width: 0.8; stroke-linecap: square"/>
     </g>
     <g id="line2d_12">
      <g>
       <use xlink:href="#m664b1a3527" x="304.485785" y="275.925969" style="stroke: #000000; stroke-width: 0.8"/>
      </g>
     </g>
     <g id="text_6">
      <!-- 2022-09 -->
      <g transform="translate(283.594379 290.524406) scale(0.1 -0.1)">
       <use xlink:href="#DejaVuSans-32"/>
       <use xlink:href="#DejaVuSans-30" transform="translate(63.623047 0)"/>
       <use xlink:href="#DejaVuSans-32" transform="translate(127.246094 0)"/>
       <use xlink:href="#DejaVuSans-32" transform="translate(190.869141 0)"/>
       <use xlink:href="#DejaVuSans-2d" transform="translate(254.492188 0)"/>
       <use xlink:href="#DejaVuSans-30" transform="translate(290.576172 0)"/>
       <use xlink:href="#DejaVuSans-39" transform="translate(354.199219 0)"/>
      </g>
     </g>
    </g>
    <g id="xtick_7">
     <g id="line2d_13">
      <path d="M 351.682942 275.925969 
L 351.682942 43.077969 
" clip-path="url(#peccdc7cff7)" style="fill: none; stroke: #b0b0b0; stroke-opacity: 0.25; stroke-width: 0.8; stroke-linecap: square"/>
     </g>
     <g id="line2d_14">
      <g>
       <use xlink:href="#m664b1a3527" x="351.682942" y="275.925969" style="stroke: #000000; stroke-width: 0.8"/>
      </g>
     </g>
     <g id="text_7">
      <!-- 2023-01 -->
      <g transform="translate(330.791536 290.524406) scale(0.1 -0.1)">
       <defs>
        <path id="DejaVuSans-33" d="M 2597 2516 
Q 3050 2419 3304 2112 
Q 3559 1806 3559 1356 
Q 3559 666 3084 287 
Q 2609 -91 1734 -91 
Q 1441 -91 1130 -33 
Q 819 25 488 141 
L 488 750 
Q 750 597 1062 519 
Q 1375 441 1716 441 
Q 2309 441 2620 675 
Q 2931 909 2931 1356 
Q 2931 1769 2642 2001 
Q 2353 2234 1838 2234 
L 1294 2234 
L 1294 2753 
L 1863 2753 
Q 2328 2753 2575 2939 
Q 2822 3125 2822 3475 
Q 2822 3834 2567 4026 
Q 2313 4219 1838 4219 
Q 1578 4219 1281 4162 
Q 984 4106 628 3988 
L 628 4550 
Q 988 4650 1302 4700 
Q 1616 4750 1894 4750 
Q 2613 4750 3031 4423 
Q 3450 4097 3450 3541 
Q 3450 3153 3228 2886 
Q 3006 2619 2597 2516 
z
" transform="scale(0.015625)"/>
       </defs>
       <use xlink:href="#DejaVuSans-32"/>
       <use xlink:href="#DejaVuSans-30" transform="translate(63.623047 0)"/>
       <use xlink:href="#DejaVuSans-32" transform="translate(127.246094 0)"/>
       <use xlink:href="#DejaVuSans-33" transform="translate(190.869141 0)"/>
       <use xlink:href="#DejaVuSans-2d" transform="translate(254.492188 0)"/>
       <use xlink:href="#DejaVuSans-30" transform="translate(290.576172 0)"/>
       <use xlink:href="#DejaVuSans-31" transform="translate(354.199219 0)"/>
      </g>
     </g>
    </g>
    <g id="xtick_8">
     <g id="line2d_15">
      <path d="M 398.106376 275.925969 
L 398.106376 43.077969 
" clip-path="url(#peccdc7cff7)" style="fill: none; stroke: #b0b0b0; stroke-opacity: 0.25; stroke-width: 0.8; stroke-linecap: square"/>
     </g>
     <g id="line2d_16">
      <g>
       <use xlink:href="#m664b1a3527" x="398.106376" y="275.925969" style="stroke: #000000; stroke-width: 0.8"/>
      </g>
     </g>
     <g id="text_8">
      <!-- 2023-05 -->
      <g transform="translate(377.21497 290.524406) scale(0.1 -0.1)">
       <use xlink:href="#DejaVuSans-32"/>
       <use xlink:href="#DejaVuSans-30" transform="translate(63.623047 0)"/>
       <use xlink:href="#DejaVuSans-32" transform="translate(127.246094 0)"/>
       <use xlink:href="#DejaVuSans-33" transform="translate(190.869141 0)"/>
       <use xlink:href="#DejaVuSans-2d" transform="translate(254.492188 0)"/>
       <use xlink:href="#DejaVuSans-30" transform="translate(290.576172 0)"/>
       <use xlink:href="#DejaVuSans-35" transform="translate(354.199219 0)"/>
      </g>
     </g>
    </g>
    <g id="xtick_9">
     <g id="line2d_17">
      <path d="M 445.690395 275.925969 
L 445.690395 43.077969 
" clip-path="url(#peccdc7cff7)" style="fill: none; stroke: #b0b0b0; stroke-opacity: 0.25; stroke-width: 0.8; stroke-linecap: square"/>
     </g>
     <g id="line2d_18">
      <g>
       <use xlink:href="#m664b1a3527" x="445.690395" y="275.925969" style="stroke: #000000; stroke-width: 0.8"/>
      </g>
     </g>
     <g id="text_9">
      <!-- 2023-09 -->
      <g transform="translate(424.798989 290.524406) scale(0.1 -0.1)">
       <use xlink:href="#DejaVuSans-32"/>
       <use xlink:href="#DejaVuSans-30" transform="translate(63.623047 0)"/>
       <use xlink:href="#DejaVuSans-32" transform="translate(127.246094 0)"/>
       <use xlink:href="#DejaVuSans-33" transform="translate(190.869141 0)"/>
       <use xlink:href="#DejaVuSans-2d" transform="translate(254.492188 0)"/>
       <use xlink:href="#DejaVuSans-30" transform="translate(290.576172 0)"/>
       <use xlink:href="#DejaVuSans-39" transform="translate(354.199219 0)"/>
      </g>
     </g>
    </g>
    <g id="xtick_10">
     <g id="line2d_19">
      <path d="M 492.887553 275.925969 
L 492.887553 43.077969 
" clip-path="url(#peccdc7cff7)" style="fill: none; stroke: #b0b0b0; stroke-opacity: 0.25; stroke-width: 0.8; stroke-linecap: square"/>
     </g>
     <g id="line2d_20">
      <g>
       <use xlink:href="#m664b1a3527" x="492.887553" y="275.925969" style="stroke: #000000; stroke-width: 0.8"/>
      </g>
     </g>
     <g id="text_10">
      <!-- 2024-01 -->
      <g transform="translate(471.996147 290.524406) scale(0.1 -0.1)">
       <defs>
        <path id="DejaVuSans-34" d="M 2419 4116 
L 825 1625 
L 2419 1625 
L 2419 4116 
z
M 2253 4666 
L 3047 4666 
L 3047 1625 
L 3713 1625 
L 3713 1100 
L 3047 1100 
L 3047 0 
L 2419 0 
L 2419 1100 
L 313 1100 
L 313 1709 
L 2253 4666 
z
" transform="scale(0.015625)"/>
       </defs>
       <use xlink:href="#DejaVuSans-32"/>
       <use xlink:href="#DejaVuSans-30" transform="translate(63.623047 0)"/>
       <use xlink:href="#DejaVuSans-32" transform="translate(127.246094 0)"/>
       <use xlink:href="#DejaVuSans-34" transform="translate(190.869141 0)"/>
       <use xlink:href="#DejaVuSans-2d" transform="translate(254.492188 0)"/>
       <use xlink:href="#DejaVuSans-30" transform="translate(290.576172 0)"/>
       <use xlink:href="#DejaVuSans-31" transform="translate(354.199219 0)"/>
      </g>
     </g>
    </g>
   </g>
   <g id="matplotlib.axis_2">
    <g id="ytick_1">
     <g id="line2d_21">
      <path d="M 48.982813 265.240008 
L 495.382812 265.240008 
" clip-path="url(#peccdc7cff7)" style="fill: none; stroke: #b0b0b0; stroke-opacity: 0.25; stroke-width: 0.8; stroke-linecap: square"/>
     </g>
     <g id="line2d_22">
      <defs>
       <path id="mb15425b9d7" d="M 0 0 
L -3.5 0 
" style="stroke: #000000; stroke-width: 0.8"/>
      </defs>
      <g>
       <use xlink:href="#mb15425b9d7" x="48.982813" y="265.240008" style="stroke: #000000; stroke-width: 0.8"/>
      </g>
     </g>
     <g id="text_11">
      <!-- −25 -->
      <g transform="translate(20.878125 269.039226) scale(0.1 -0.1)">
       <defs>
        <path id="DejaVuSans-2212" d="M 678 2272 
L 4684 2272 
L 4684 1741 
L 678 1741 
L 678 2272 
z
" transform="scale(0.015625)"/>
       </defs>
       <use xlink:href="#DejaVuSans-2212"/>
       <use xlink:href="#DejaVuSans-32" transform="translate(83.789062 0)"/>
       <use xlink:href="#DejaVuSans-35" transform="translate(147.412109 0)"/>
      </g>
     </g>
    </g>
    <g id="ytick_2">
     <g id="line2d_23">
      <path d="M 48.982813 237.222076 
L 495.382812 237.222076 
" clip-path="url(#peccdc7cff7)" style="fill: none; stroke: #b0b0b0; stroke-opacity: 0.25; stroke-width: 0.8; stroke-linecap: square"/>
     </g>
     <g id="line2d_24">
      <g>
       <use xlink:href="#mb15425b9d7" x="48.982813" y="237.222076" style="stroke: #000000; stroke-width: 0.8"/>
      </g>
     </g>
     <g id="text_12">
      <!-- −20 -->
      <g transform="translate(20.878125 241.021294) scale(0.1 -0.1)">
       <use xlink:href="#DejaVuSans-2212"/>
       <use xlink:href="#DejaVuSans-32" transform="translate(83.789062 0)"/>
       <use xlink:href="#DejaVuSans-30" transform="translate(147.412109 0)"/>
      </g>
     </g>
    </g>
    <g id="ytick_3">
     <g id="line2d_25">
      <path d="M 48.982813 209.204144 
L 495.382812 209.204144 
" clip-path="url(#peccdc7cff7)" style="fill: none; stroke: #b0b0b0; stroke-opacity: 0.25; stroke-width: 0.8; stroke-linecap: square"/>
     </g>
     <g id="line2d_26">
      <g>
       <use xlink:href="#mb15425b9d7" x="48.982813" y="209.204144" style="stroke: #000000; stroke-width: 0.8"/>
      </g>
     </g>
     <g id="text_13">
      <!-- −15 -->
      <g transform="translate(20.878125 213.003362) scale(0.1 -0.1)">
       <use xlink:href="#DejaVuSans-2212"/>
       <use xlink:href="#DejaVuSans-31" transform="translate(83.789062 0)"/>
       <use xlink:href="#DejaVuSans-35" transform="translate(147.412109 0)"/>
      </g>
     </g>
    </g>
    <g id="ytick_4">
     <g id="line2d_27">
      <path d="M 48.982813 181.186212 
L 495.382812 181.186212 
" clip-path="url(#peccdc7cff7)" style="fill: none; stroke: #b0b0b0; stroke-opacity: 0.25; stroke-width: 0.8; stroke-linecap: square"/>
     </g>
     <g id="line2d_28">
      <g>
       <use xlink:href="#mb15425b9d7" x="48.982813" y="181.186212" style="stroke: #000000; stroke-width: 0.8"/>
      </g>
     </g>
     <g id="text_14">
      <!-- −10 -->
      <g transform="translate(20.878125 184.985431) scale(0.1 -0.1)">
       <use xlink:href="#DejaVuSans-2212"/>
       <use xlink:href="#DejaVuSans-31" transform="translate(83.789062 0)"/>
       <use xlink:href="#DejaVuSans-30" transform="translate(147.412109 0)"/>
      </g>
     </g>
    </g>
    <g id="ytick_5">
     <g id="line2d_29">
      <path d="M 48.982813 153.16828 
L 495.382812 153.16828 
" clip-path="url(#peccdc7cff7)" style="fill: none; stroke: #b0b0b0; stroke-opacity: 0.25; stroke-width: 0.8; stroke-linecap: square"/>
     </g>
     <g id="line2d_30">
      <g>
       <use xlink:href="#mb15425b9d7" x="48.982813" y="153.16828" style="stroke: #000000; stroke-width: 0.8"/>
      </g>
     </g>
     <g id="text_15">
      <!-- −5 -->
      <g transform="translate(27.240625 156.967499) scale(0.1 -0.1)">
       <use xlink:href="#DejaVuSans-2212"/>
       <use xlink:href="#DejaVuSans-35" transform="translate(83.789062 0)"/>
      </g>
     </g>
    </g>
    <g id="ytick_6">
     <g id="line2d_31">
      <path d="M 48.982813 125.150348 
L 495.382812 125.150348 
" clip-path="url(#peccdc7cff7)" style="fill: none; stroke: #b0b0b0; stroke-opacity: 0.25; stroke-width: 0.8; stroke-linecap: square"/>
     </g>
     <g id="line2d_32">
      <g>
       <use xlink:href="#mb15425b9d7" x="48.982813" y="125.150348" style="stroke: #000000; stroke-width: 0.8"/>
      </g>
     </g>
     <g id="text_16">
      <!-- 0 -->
      <g transform="translate(35.620313 128.949567) scale(0.1 -0.1)">
       <use xlink:href="#DejaVuSans-30"/>
      </g>
     </g>
    </g>
    <g id="ytick_7">
     <g id="line2d_33">
      <path d="M 48.982813 97.132416 
L 495.382812 97.132416 
" clip-path="url(#peccdc7cff7)" style="fill: none; stroke: #b0b0b0; stroke-opacity: 0.25; stroke-width: 0.8; stroke-linecap: square"/>
     </g>
     <g id="line2d_34">
      <g>
       <use xlink:href="#mb15425b9d7" x="48.982813" y="97.132416" style="stroke: #000000; stroke-width: 0.8"/>
      </g>
     </g>
     <g id="text_17">
      <!-- 5 -->
      <g transform="translate(35.620313 100.931635) scale(0.1 -0.1)">
       <use xlink:href="#DejaVuSans-35"/>
      </g>
     </g>
    </g>
    <g id="ytick_8">
     <g id="line2d_35">
      <path d="M 48.982813 69.114484 
L 495.382812 69.114484 
" clip-path="url(#peccdc7cff7)" style="fill: none; stroke: #b0b0b0; stroke-opacity: 0.25; stroke-width: 0.8; stroke-linecap: square"/>
     </g>
     <g id="line2d_36">
      <g>
       <use xlink:href="#mb15425b9d7" x="48.982813" y="69.114484" style="stroke: #000000; stroke-width: 0.8"/>
      </g>
     </g>
     <g id="text_18">
      <!-- 10 -->
      <g transform="translate(29.257813 72.913703) scale(0.1 -0.1)">
       <use xlink:href="#DejaVuSans-31"/>
       <use xlink:href="#DejaVuSans-30" transform="translate(63.623047 0)"/>
      </g>
     </g>
    </g>
    <g id="text_19">
     <!-- Cumulative return (%) -->
     <g transform="translate(14.798438 215.155094) rotate(-90) scale(0.1 -0.1)">
      <defs>
       <path id="DejaVuSans-43" d="M 4122 4306 
L 4122 3641 
Q 3803 3938 3442 4084 
Q 3081 4231 2675 4231 
Q 1875 4231 1450 3742 
Q 1025 3253 1025 2328 
Q 1025 1406 1450 917 
Q 1875 428 2675 428 
Q 3081 428 3442 575 
Q 3803 722 4122 1019 
L 4122 359 
Q 3791 134 3420 21 
Q 3050 -91 2638 -91 
Q 1578 -91 968 557 
Q 359 1206 359 2328 
Q 359 3453 968 4101 
Q 1578 4750 2638 4750 
Q 3056 4750 3426 4639 
Q 3797 4528 4122 4306 
z
" transform="scale(0.015625)"/>
       <path id="DejaVuSans-75" d="M 544 1381 
L 544 3500 
L 1119 3500 
L 1119 1403 
Q 1119 906 1312 657 
Q 1506 409 1894 409 
Q 2359 409 2629 706 
Q 2900 1003 2900 1516 
L 2900 3500 
L 3475 3500 
L 3475 0 
L 2900 0 
L 2900 538 
Q 2691 219 2414 64 
Q 2138 -91 1772 -91 
Q 1169 -91 856 284 
Q 544 659 544 1381 
z
M 1991 3584 
L 1991 3584 
z
" transform="scale(0.015625)"/>
       <path id="DejaVuSans-6d" d="M 3328 2828 
Q 3544 3216 3844 3400 
Q 4144 3584 4550 3584 
Q 5097 3584 5394 3201 
Q 5691 2819 5691 2113 
L 5691 0 
L 5113 0 
L 5113 2094 
Q 5113 2597 4934 2840 
Q 4756 3084 4391 3084 
Q 3944 3084 3684 2787 
Q 3425 2491 3425 1978 
L 3425 0 
L 2847 0 
L 2847 2094 
Q 2847 2600 2669 2842 
Q 2491 3084 2119 3084 
Q 1678 3084 1418 2786 
Q 1159 2488 1159 1978 
L 1159 0 
L 581 0 
L 581 3500 
L 1159 3500 
L 1159 2956 
Q 1356 3278 1631 3431 
Q 1906 3584 2284 3584 
Q 2666 3584 2933 3390 
Q 3200 3197 3328 2828 
z
" transform="scale(0.015625)"/>
       <path id="DejaVuSans-6c" d="M 603 4863 
L 1178 4863 
L 1178 0 
L 603 0 
L 603 4863 
z
" transform="scale(0.015625)"/>
       <path id="DejaVuSans-61" d="M 2194 1759 
Q 1497 1759 1228 1600 
Q 959 1441 959 1056 
Q 959 750 1161 570 
Q 1363 391 1709 391 
Q 2188 391 2477 730 
Q 2766 1069 2766 1631 
L 2766 1759 
L 2194 1759 
z
M 3341 1997 
L 3341 0 
L 2766 0 
L 2766 531 
Q 2569 213 2275 61 
Q 1981 -91 1556 -91 
Q 1019 -91 701 211 
Q 384 513 384 1019 
Q 384 1609 779 1909 
Q 1175 2209 1959 2209 
L 2766 2209 
L 2766 2266 
Q 2766 2663 2505 2880 
Q 2244 3097 1772 3097 
Q 1472 3097 1187 3025 
Q 903 2953 641 2809 
L 641 3341 
Q 956 3463 1253 3523 
Q 1550 3584 1831 3584 
Q 2591 3584 2966 3190 
Q 3341 2797 3341 1997 
z
" transform="scale(0.015625)"/>
       <path id="DejaVuSans-74" d="M 1172 4494 
L 1172 3500 
L 2356 3500 
L 2356 3053 
L 1172 3053 
L 1172 1153 
Q 1172 725 1289 603 
Q 1406 481 1766 481 
L 2356 481 
L 2356 0 
L 1766 0 
Q 1100 0 847 248 
Q 594 497 594 1153 
L 594 3053 
L 172 3053 
L 172 3500 
L 594 3500 
L 594 4494 
L 1172 4494 
z
" transform="scale(0.015625)"/>
       <path id="DejaVuSans-69" d="M 603 3500 
L 1178 3500 
L 1178 0 
L 603 0 
L 603 3500 
z
M 603 4863 
L 1178 4863 
L 1178 4134 
L 603 4134 
L 603 4863 
z
" transform="scale(0.015625)"/>
       <path id="DejaVuSans-76" d="M 191 3500 
L 800 3500 
L 1894 563 
L 2988 3500 
L 3597 3500 
L 2284 0 
L 1503 0 
L 191 3500 
z
" transform="scale(0.015625)"/>
       <path id="DejaVuSans-65" d="M 3597 1894 
L 3597 1613 
L 953 1613 
Q 991 1019 1311 708 
Q 1631 397 2203 397 
Q 2534 397 2845 478 
Q 3156 559 3463 722 
L 3463 178 
Q 3153 47 2828 -22 
Q 2503 -91 2169 -91 
Q 1331 -91 842 396 
Q 353 884 353 1716 
Q 353 2575 817 3079 
Q 1281 3584 2069 3584 
Q 2775 3584 3186 3129 
Q 3597 2675 3597 1894 
z
M 3022 2063 
Q 3016 2534 2758 2815 
Q 2500 3097 2075 3097 
Q 1594 3097 1305 2825 
Q 1016 2553 972 2059 
L 3022 2063 
z
" transform="scale(0.015625)"/>
       <path id="DejaVuSans-20" transform="scale(0.015625)"/>
       <path id="DejaVuSans-72" d="M 2631 2963 
Q 2534 3019 2420 3045 
Q 2306 3072 2169 3072 
Q 1681 3072 1420 2755 
Q 1159 2438 1159 1844 
L 1159 0 
L 581 0 
L 581 3500 
L 1159 3500 
L 1159 2956 
Q 1341 3275 1631 3429 
Q 1922 3584 2338 3584 
Q 2397 3584 2469 3576 
Q 2541 3569 2628 3553 
L 2631 2963 
z
" transform="scale(0.015625)"/>
       <path id="DejaVuSans-6e" d="M 3513 2113 
L 3513 0 
L 2938 0 
L 2938 2094 
Q 2938 2591 2744 2837 
Q 2550 3084 2163 3084 
Q 1697 3084 1428 2787 
Q 1159 2491 1159 1978 
L 1159 0 
L 581 0 
L 581 3500 
L 1159 3500 
L 1159 2956 
Q 1366 3272 1645 3428 
Q 1925 3584 2291 3584 
Q 2894 3584 3203 3211 
Q 3513 2838 3513 2113 
z
" transform="scale(0.015625)"/>
       <path id="DejaVuSans-28" d="M 1984 4856 
Q 1566 4138 1362 3434 
Q 1159 2731 1159 2009 
Q 1159 1288 1364 580 
Q 1569 -128 1984 -844 
L 1484 -844 
Q 1016 -109 783 600 
Q 550 1309 550 2009 
Q 550 2706 781 3412 
Q 1013 4119 1484 4856 
L 1984 4856 
z
" transform="scale(0.015625)"/>
       <path id="DejaVuSans-25" d="M 4653 2053 
Q 4381 2053 4226 1822 
Q 4072 1591 4072 1178 
Q 4072 772 4226 539 
Q 4381 306 4653 306 
Q 4919 306 5073 539 
Q 5228 772 5228 1178 
Q 5228 1588 5073 1820 
Q 4919 2053 4653 2053 
z
M 4653 2450 
Q 5147 2450 5437 2106 
Q 5728 1763 5728 1178 
Q 5728 594 5436 251 
Q 5144 -91 4653 -91 
Q 4153 -91 3862 251 
Q 3572 594 3572 1178 
Q 3572 1766 3864 2108 
Q 4156 2450 4653 2450 
z
M 1428 4353 
Q 1159 4353 1004 4120 
Q 850 3888 850 3481 
Q 850 3069 1003 2837 
Q 1156 2606 1428 2606 
Q 1700 2606 1854 2837 
Q 2009 3069 2009 3481 
Q 2009 3884 1853 4118 
Q 1697 4353 1428 4353 
z
M 4250 4750 
L 4750 4750 
L 1831 -91 
L 1331 -91 
L 4250 4750 
z
M 1428 4750 
Q 1922 4750 2215 4408 
Q 2509 4066 2509 3481 
Q 2509 2891 2217 2550 
Q 1925 2209 1428 2209 
Q 931 2209 642 2551 
Q 353 2894 353 3481 
Q 353 4063 643 4406 
Q 934 4750 1428 4750 
z
" transform="scale(0.015625)"/>
       <path id="DejaVuSans-29" d="M 513 4856 
L 1013 4856 
Q 1481 4119 1714 3412 
Q 1947 2706 1947 2009 
Q 1947 1309 1714 600 
Q 1481 -109 1013 -844 
L 513 -844 
Q 928 -128 1133 580 
Q 1338 1288 1338 2009 
Q 1338 2731 1133 3434 
Q 928 4138 513 4856 
z
" transform="scale(0.015625)"/>
      </defs>
      <use xlink:href="#DejaVuSans-43"/>
      <use xlink:href="#DejaVuSans-75" transform="translate(69.824219 0)"/>
      <use xlink:href="#DejaVuSans-6d" transform="translate(133.203125 0)"/>
      <use xlink:href="#DejaVuSans-75" transform="translate(230.615234 0)"/>
      <use xlink:href="#DejaVuSans-6c" transform="translate(293.994141 0)"/>
      <use xlink:href="#DejaVuSans-61" transform="translate(321.777344 0)"/>
      <use xlink:href="#DejaVuSans-74" transform="translate(383.056641 0)"/>
      <use xlink:href="#DejaVuSans-69" transform="translate(422.265625 0)"/>
      <use xlink:href="#DejaVuSans-76" transform="translate(450.048828 0)"/>
      <use xlink:href="#DejaVuSans-65" transform="translate(509.228516 0)"/>
      <use xlink:href="#DejaVuSans-20" transform="translate(570.751953 0)"/>
      <use xlink:href="#DejaVuSans-72" transform="translate(602.539062 0)"/>
      <use xlink:href="#DejaVuSans-65" transform="translate(641.402344 0)"/>
      <use xlink:href="#DejaVuSans-74" transform="translate(702.925781 0)"/>
      <use xlink:href="#DejaVuSans-75" transform="translate(742.134766 0)"/>
      <use xlink:href="#DejaVuSans-72" transform="translate(805.513672 0)"/>
      <use xlink:href="#DejaVuSans-6e" transform="translate(844.876953 0)"/>
      <use xlink:href="#DejaVuSans-20" transform="translate(908.255859 0)"/>
      <use xlink:href="#DejaVuSans-28" transform="translate(940.042969 0)"/>
      <use xlink:href="#DejaVuSans-25" transform="translate(979.056641 0)"/>
      <use xlink:href="#DejaVuSans-29" transform="translate(1074.076172 0)"/>
     </g>
    </g>
   </g>
   <g id="line2d_37">
    <path d="M 69.273722 125.150348 
L 101.383263 125.150348 
L 101.770125 136.803496 
L 102.930711 138.894798 
L 103.317573 137.71665 
L 104.091297 128.898519 
L 104.478159 123.461793 
L 105.638745 125.696926 
L 106.025607 128.682933 
L 106.412468 122.807871 
L 106.79933 123.985862 
L 107.186192 132.405721 
L 108.346778 139.767566 
L 108.73364 145.647906 
L 109.120502 142.308878 
L 109.507364 141.270859 
L 109.894226 136.632899 
L 111.054812 139.330578 
L 111.441674 138.181043 
L 111.828536 133.946443 
L 112.215398 135.88022 
L 112.60226 132.748725 
L 113.762845 137.012282 
L 114.536569 141.67514 
L 114.923431 149.316241 
L 115.310293 146.065857 
L 116.470879 148.988613 
L 116.857741 148.800835 
L 117.244603 149.337544 
L 173.339585 149.337544 
L 173.726447 152.226752 
L 174.113309 142.683361 
L 174.887033 155.355339 
L 176.047619 151.139893 
L 176.434481 153.557909 
L 176.821343 153.484209 
L 177.208205 154.420447 
L 177.595067 152.158041 
L 178.755652 142.964858 
L 179.142514 142.266144 
L 179.529376 137.9426 
L 179.916238 151.142641 
L 180.3031 151.34813 
L 181.463686 156.620156 
L 181.850548 164.19501 
L 182.23741 169.556503 
L 182.624272 171.518276 
L 183.011134 165.733988 
L 184.17172 173.839281 
L 184.558582 173.548786 
L 184.945444 176.412858 
L 185.332306 178.309303 
L 185.719167 172.066576 
L 186.879753 168.636988 
L 187.266615 160.169846 
L 187.653477 161.038075 
L 188.040339 165.295824 
L 188.427201 166.587626 
L 189.587787 164.971289 
L 189.974649 163.762824 
L 190.361511 170.405134 
L 190.748373 169.742348 
L 191.135235 168.224415 
L 192.295821 152.25233 
L 192.682683 139.996892 
L 193.069544 145.445848 
L 193.456406 147.197451 
L 193.843268 156.462581 
L 195.003854 160.094386 
L 195.390716 157.995239 
L 195.777578 150.19944 
L 196.16444 150.73475 
L 222.857914 150.73475 
L 223.244776 158.242664 
L 223.631638 161.1128 
L 225.179086 158.908755 
L 225.565948 160.646849 
L 225.95281 161.193397 
L 226.339672 162.671833 
L 227.500258 161.609003 
L 227.88712 152.169211 
L 228.273982 168.242185 
L 228.660844 169.607105 
L 229.047705 168.409781 
L 230.208291 166.466018 
L 230.595153 168.673975 
L 230.982015 179.353942 
L 231.368877 177.256177 
L 231.755739 166.507274 
L 232.916325 175.870896 
L 233.303187 170.457545 
L 233.690049 172.381421 
L 234.076911 172.656328 
L 234.463773 178.994054 
L 235.624359 180.921957 
L 236.011221 172.885892 
L 236.398082 169.185888 
L 236.784944 158.234917 
L 237.171806 150.625248 
L 238.332392 147.691934 
L 238.719254 136.208478 
L 239.106116 133.196721 
L 239.492978 127.570095 
L 239.87984 129.440986 
L 241.040426 128.885447 
L 241.427288 133.41403 
L 241.81415 126.707067 
L 242.201012 134.442527 
L 242.587874 129.133377 
L 243.748459 130.293774 
L 244.135321 122.32252 
L 244.522183 117.11137 
L 244.909045 104.440308 
L 245.295907 99.205088 
L 246.456493 110.046657 
L 246.843355 110.393808 
L 247.230217 118.312236 
L 247.617079 121.716142 
L 248.003941 111.283801 
L 249.164527 106.75816 
L 249.551389 111.477144 
L 249.938251 118.304287 
L 250.325113 117.967616 
L 250.711974 126.080936 
L 251.87256 130.457299 
L 252.259422 128.263789 
L 252.646284 120.371467 
L 253.033146 116.114076 
L 253.420008 131.445785 
L 254.967456 128.714857 
L 255.354318 125.830633 
L 255.74118 114.755859 
L 256.128042 128.602184 
L 257.288628 132.427876 
L 257.67549 128.380694 
L 258.062351 138.745455 
L 258.449213 128.863929 
L 258.836075 126.286123 
L 259.996661 120.46302 
L 260.383523 124.208853 
L 260.770385 118.587442 
L 261.157247 111.156909 
L 261.544109 109.434414 
L 262.704695 107.696193 
L 263.091557 105.702706 
L 263.478419 111.563796 
L 264.252143 113.397836 
L 265.412728 110.644684 
L 265.79959 103.589611 
L 266.186452 110.819728 
L 266.573314 111.5664 
L 266.960176 101.155062 
L 268.120762 106.230248 
L 268.507624 111.803156 
L 268.894486 110.293661 
L 269.281348 104.319367 
L 269.66821 104.123407 
L 270.828796 94.659262 
L 271.60252 82.250918 
L 271.989382 78.10478 
L 272.376243 60.774764 
L 273.536829 62.186279 
L 273.923691 76.87194 
L 274.310553 64.917422 
L 274.697415 68.193161 
L 275.084277 67.269852 
L 276.244863 57.352109 
L 277.405449 89.695472 
L 277.792311 95.228345 
L 278.952897 91.987315 
L 279.339759 88.122681 
L 279.72662 86.019 
L 280.113482 95.978708 
L 280.500344 111.982087 
L 281.66093 111.493094 
L 282.047792 114.61943 
L 282.434654 111.348816 
L 282.821516 106.376169 
L 283.208378 105.298619 
L 284.755826 98.134329 
L 285.142688 94.268026 
L 285.52955 99.129264 
L 285.916412 100.274713 
L 287.076997 98.773824 
L 287.463859 92.849573 
L 287.850721 95.525236 
L 288.237583 91.705163 
L 288.624445 93.478023 
L 289.785031 94.194247 
L 290.171893 88.159313 
L 290.558755 102.159812 
L 291.332479 121.064498 
L 292.493065 136.541812 
L 292.879927 137.090779 
L 323.055158 137.090779 
L 323.44202 143.825892 
L 323.828882 141.452197 
L 324.989468 143.995108 
L 325.37633 145.731858 
L 325.763192 144.421901 
L 326.150054 140.277587 
L 326.536916 142.384153 
L 327.697502 135.296024 
L 328.084364 142.675755 
L 328.471226 142.525875 
L 328.858088 125.221342 
L 329.24495 123.607098 
L 330.405535 113.745264 
L 330.792397 113.002494 
L 331.179259 108.883261 
L 331.566121 109.160781 
L 331.952983 110.2231 
L 333.113569 115.465117 
L 333.500431 112.399406 
L 333.887293 118.112408 
L 334.274155 113.448052 
L 334.661017 105.833199 
L 335.821603 103.161494 
L 336.208465 105.042335 
L 336.595327 101.754825 
L 336.982189 103.796764 
L 337.36905 97.11167 
L 338.529636 109.786613 
L 338.916498 111.985857 
L 339.690222 135.261698 
L 340.077084 126.070186 
L 341.23767 119.91507 
L 341.624532 124.665097 
L 342.011394 134.576345 
L 342.398256 153.724552 
L 342.785118 157.07586 
L 343.945704 141.393649 
L 344.332566 138.437297 
L 344.719427 141.989812 
L 345.106289 138.838648 
L 345.493151 148.875979 
L 346.653737 150.680255 
L 347.040599 149.934328 
L 347.427461 150.380388 
L 347.814323 145.169963 
L 348.201185 142.822106 
L 349.361771 138.342883 
L 349.748633 142.735571 
L 350.135495 136.746491 
L 350.522357 125.80224 
L 350.909219 132.169792 
L 352.069804 137.923364 
L 352.456666 138.47095 
L 364.062525 138.47095 
L 364.449387 139.952743 
L 365.609973 138.510211 
L 365.996835 144.982234 
L 366.770558 135.805884 
L 367.15742 133.149668 
L 368.318006 129.337222 
L 368.704868 127.243746 
L 369.09173 113.328161 
L 369.478592 113.811524 
L 369.865454 115.800421 
L 371.02604 120.815766 
L 372.186626 141.537827 
L 372.573488 141.890296 
L 373.734073 142.433914 
L 475.091903 142.433914 
L 475.091903 142.433914 
" clip-path="url(#peccdc7cff7)" style="fill: none; stroke: #1f6feb; stroke-width: 2; stroke-linecap: square"/>
   </g>
   <g id="line2d_38">
    <path d="M 69.273722 125.150348 
L 70.434307 131.989368 
L 71.208031 120.416514 
L 71.594893 133.382609 
L 71.981755 141.834439 
L 73.142341 140.890843 
L 73.529203 142.845182 
L 73.916065 142.846058 
L 74.302927 148.265268 
L 74.689789 142.457237 
L 75.850375 137.255294 
L 76.237237 136.710955 
L 76.624099 129.12572 
L 77.010961 125.883662 
L 77.397822 131.513806 
L 78.558408 128.945639 
L 78.94527 135.203032 
L 79.332132 129.260113 
L 79.718994 129.482073 
L 80.105856 130.603198 
L 81.266442 135.008855 
L 81.653304 126.761476 
L 82.040166 127.685077 
L 82.81389 132.663916 
L 83.974476 129.00991 
L 84.748199 123.564183 
L 85.135061 120.538506 
L 85.521923 105.714762 
L 86.682509 108.420117 
L 87.069371 111.84183 
L 87.456233 117.302953 
L 87.843095 112.972857 
L 88.229957 105.047468 
L 89.390543 105.724685 
L 90.164267 116.963974 
L 90.937991 107.143123 
L 92.098576 103.244667 
L 92.485438 107.760641 
L 92.8723 106.032943 
L 93.259162 105.104906 
L 93.646024 103.463375 
L 95.193472 95.52871 
L 95.580334 90.583557 
L 95.967196 89.981814 
L 96.354058 87.792553 
L 97.514644 83.126918 
L 97.901506 93.450136 
L 98.288368 95.598985 
L 98.67523 98.802006 
L 99.062091 103.16636 
L 100.222677 104.969818 
L 100.609539 94.343158 
L 100.996401 100.336534 
L 101.383263 93.379147 
L 101.770125 105.100875 
L 102.930711 107.313006 
L 103.317573 106.066788 
L 104.091297 96.739172 
L 104.478159 90.988326 
L 105.638745 93.3526 
L 106.025607 96.51113 
L 106.412468 90.296623 
L 106.79933 91.542675 
L 107.186192 100.449009 
L 108.346778 108.2362 
L 108.73364 114.45629 
L 109.120502 110.924342 
L 109.507364 109.826349 
L 109.894226 104.920422 
L 111.054812 107.773964 
L 111.441674 106.558012 
L 111.828536 102.078749 
L 112.215398 104.124255 
L 112.60226 100.811831 
L 113.762845 105.321724 
L 114.536569 110.253988 
L 114.923431 118.336571 
L 115.310293 114.898389 
L 116.470879 117.990012 
L 116.857741 117.791386 
L 117.631465 111.209251 
L 118.018327 106.489537 
L 119.178913 107.057754 
L 119.565775 109.873478 
L 119.952637 110.30885 
L 120.72636 131.320598 
L 121.886946 139.93835 
L 122.273808 146.320437 
L 122.66067 143.619211 
L 123.047532 149.368158 
L 123.434394 151.688873 
L 124.59498 143.192554 
L 124.981842 145.398087 
L 125.368704 140.487797 
L 125.755566 146.452016 
L 126.142428 147.671733 
L 127.689876 155.715464 
L 128.076737 150.239118 
L 128.463599 161.115043 
L 128.850461 158.268758 
L 130.011047 156.656725 
L 130.397909 160.308897 
L 130.784771 169.240672 
L 131.171633 168.690267 
L 131.558495 171.860958 
L 132.719081 170.321763 
L 133.105943 170.083575 
L 133.492805 159.975481 
L 133.879667 161.377972 
L 134.266529 167.672406 
L 135.427114 166.45338 
L 135.813976 164.977188 
L 136.200838 156.31174 
L 136.5877 150.874899 
L 136.974562 148.473048 
L 138.135148 138.85029 
L 138.52201 146.485311 
L 138.908872 150.500571 
L 139.295734 156.310504 
L 139.682596 158.674808 
L 140.843182 167.203084 
L 141.230044 163.133096 
L 141.616906 164.420038 
L 142.003768 173.433997 
L 142.390629 179.535571 
L 143.551215 177.526844 
L 143.938077 172.289392 
L 144.324939 159.738603 
L 144.711801 140.920231 
L 145.098663 138.095821 
L 146.259249 144.449413 
L 146.646111 158.011113 
L 147.032973 156.207932 
L 147.419835 161.241472 
L 147.806697 163.743728 
L 148.967283 167.458537 
L 149.354145 168.229594 
L 149.741006 161.465379 
L 150.127868 160.371827 
L 150.51473 161.265699 
L 151.675316 167.637031 
L 152.062178 177.838887 
L 152.44904 180.691914 
L 152.835902 180.916705 
L 153.222764 169.994245 
L 154.38335 169.084439 
L 154.770212 162.853737 
L 155.157074 165.871971 
L 155.930798 178.904905 
L 157.091383 183.194153 
L 157.478245 170.095885 
L 157.865107 175.049089 
L 158.251969 169.783847 
L 158.638831 175.239586 
L 160.186279 166.906789 
L 160.573141 167.77713 
L 160.960003 167.926811 
L 161.346865 171.875036 
L 162.507451 169.014962 
L 162.894313 171.724486 
L 163.668037 186.730842 
L 164.054898 185.596802 
L 165.215484 175.931692 
L 165.602346 174.850294 
L 165.989208 175.474784 
L 166.37607 173.62004 
L 166.762932 165.430507 
L 167.923518 163.95525 
L 168.31038 166.416959 
L 168.697242 159.37461 
L 169.084104 156.554851 
L 169.470966 146.60857 
L 170.631552 145.314296 
L 171.405275 161.652339 
L 172.178999 139.785072 
L 173.339585 140.850501 
L 173.726447 143.240783 
L 174.113309 133.536584 
L 174.887033 146.422089 
L 176.047619 142.135611 
L 176.434481 144.594372 
L 176.821343 144.51943 
L 177.208205 145.471444 
L 177.595067 143.170915 
L 178.755652 133.822825 
L 179.142514 133.112337 
L 179.529376 128.715939 
L 179.916238 142.138406 
L 180.3031 142.347357 
L 181.463686 147.708218 
L 181.850548 155.41071 
L 182.23741 160.862547 
L 182.624272 162.857376 
L 183.011134 156.975621 
L 184.17172 165.21749 
L 184.558582 164.922101 
L 184.945444 167.834433 
L 185.332306 169.762834 
L 185.719167 163.414915 
L 186.879753 159.927538 
L 187.266615 151.317722 
L 187.653477 152.20058 
L 188.040339 156.530074 
L 188.427201 157.843643 
L 189.587787 156.20007 
L 189.974649 154.971242 
L 190.361511 161.725478 
L 190.748373 161.051523 
L 191.135235 159.508012 
L 192.295821 143.266793 
L 192.682683 130.804847 
L 193.069544 136.34562 
L 193.456406 138.126737 
L 193.843268 147.547988 
L 195.003854 151.240989 
L 195.390716 149.106471 
L 195.777578 141.179311 
L 197.711888 163.445683 
L 198.09875 164.359532 
L 198.485612 170.858559 
L 198.872474 174.015621 
L 199.259336 179.268267 
L 200.419921 179.739434 
L 201.193645 198.742823 
L 201.580507 186.04534 
L 201.967369 193.603919 
L 203.127955 199.938569 
L 203.514817 189.017031 
L 203.901679 171.300866 
L 204.288541 178.37802 
L 204.675403 180.513092 
L 205.835989 178.33761 
L 206.222851 167.603204 
L 206.609713 173.597847 
L 206.996575 175.000266 
L 207.383436 170.112866 
L 208.544022 167.31329 
L 208.930884 169.543906 
L 209.317746 170.268779 
L 209.704608 178.598484 
L 210.09147 179.944106 
L 211.252056 181.456839 
L 211.638918 179.94947 
L 212.02578 183.206831 
L 212.412642 180.255476 
L 212.799504 173.97558 
L 213.96009 172.918094 
L 214.346952 170.646874 
L 214.733813 170.215308 
L 215.120675 170.111717 
L 215.507537 174.45292 
L 216.668123 172.405663 
L 217.054985 172.901819 
L 217.828709 149.630155 
L 218.215571 147.035514 
L 219.376157 151.836918 
L 219.763019 158.808206 
L 220.149881 151.118765 
L 220.536743 149.323952 
L 220.923605 146.117819 
L 222.08419 157.186956 
L 222.471052 151.167424 
L 222.857914 148.138213 
L 223.244776 155.14521 
L 223.631638 158.032207 
L 225.179086 155.815214 
L 225.565948 157.563519 
L 225.95281 158.113277 
L 226.339672 159.600399 
L 227.500258 158.531325 
L 227.88712 149.036078 
L 228.273982 165.203474 
L 228.660844 166.576413 
L 229.047705 165.372054 
L 230.208291 163.416873 
L 230.595153 165.637801 
L 230.982015 176.380507 
L 231.368877 174.270419 
L 231.755739 163.458371 
L 232.916325 172.877001 
L 233.303187 167.431848 
L 233.690049 169.367026 
L 234.076911 169.643549 
L 234.463773 176.018505 
L 235.624359 177.957734 
L 236.011221 169.874461 
L 236.398082 166.152721 
L 236.784944 155.137418 
L 237.171806 147.483046 
L 238.332392 144.532499 
L 238.719254 132.981583 
L 239.106116 129.952134 
L 239.492978 124.292454 
L 239.87984 126.174335 
L 241.040426 125.615532 
L 241.427288 130.170719 
L 241.81415 123.424356 
L 242.201012 131.205258 
L 242.587874 125.86492 
L 243.748459 127.032133 
L 244.135321 119.014052 
L 244.522183 113.772288 
L 244.909045 101.02679 
L 245.295907 95.760815 
L 246.456493 106.666073 
L 246.843355 107.015263 
L 247.230217 114.980209 
L 247.617079 118.404111 
L 248.003941 107.910485 
L 249.164527 103.358257 
L 249.551389 108.104964 
L 249.938251 114.972213 
L 250.325113 114.633565 
L 250.711974 122.794546 
L 251.87256 127.196618 
L 252.259422 124.990223 
L 252.646284 117.051537 
L 253.033146 112.769136 
L 253.420008 128.190912 
L 254.967456 125.443941 
L 255.354318 122.542773 
L 255.74118 111.40294 
L 256.128042 125.330605 
L 257.288628 129.178772 
L 257.67549 125.107815 
L 258.062351 135.533464 
L 258.449213 125.593889 
L 258.836075 123.000939 
L 259.996661 117.143628 
L 260.383523 120.911466 
L 260.770385 115.257032 
L 261.157247 107.782848 
L 261.544109 106.050233 
L 262.704695 104.301801 
L 263.091557 102.296603 
L 263.478419 108.192124 
L 264.252143 110.036939 
L 265.412728 107.267613 
L 265.79959 100.171095 
L 266.186452 107.443685 
L 266.573314 108.194745 
L 266.960176 97.722245 
L 268.120762 102.827245 
L 268.507624 108.432891 
L 268.894486 106.914529 
L 269.281348 100.905138 
L 269.66821 100.708027 
L 270.828796 91.188285 
L 271.60252 78.707047 
L 271.989382 74.536552 
L 272.376243 57.10473 
L 273.536829 58.524537 
L 273.923691 73.29647 
L 274.310553 61.271724 
L 274.697415 64.566706 
L 275.084277 63.637974 
L 276.244863 53.661969 
L 277.405449 86.195334 
L 277.792311 91.76071 
L 278.952897 88.500641 
L 279.339759 84.613304 
L 279.72662 82.497264 
L 280.113482 92.515482 
L 280.500344 108.612873 
L 281.66093 108.121008 
L 282.047792 111.265709 
L 282.434654 107.975882 
L 282.821516 102.974023 
L 283.208378 101.890143 
L 284.755826 94.683766 
L 285.142688 90.79475 
L 285.52955 95.684545 
L 285.916412 96.836724 
L 287.076997 95.327017 
L 287.463859 89.367964 
L 287.850721 92.059346 
L 288.237583 88.216831 
L 288.624445 90.000106 
L 289.785031 90.720537 
L 290.171893 84.650151 
L 290.558755 98.732896 
L 291.332479 117.748639 
L 292.879927 137.683468 
L 293.266789 132.623974 
L 293.653651 134.400634 
L 294.040512 132.98054 
L 295.201098 125.599282 
L 295.58796 116.493437 
L 295.974822 116.851607 
L 296.361684 107.423859 
L 296.748546 106.668664 
L 297.909132 112.341553 
L 298.295994 116.301468 
L 298.682856 126.213106 
L 299.069718 132.031526 
L 299.45658 134.294043 
L 300.617166 128.841633 
L 301.004028 117.113709 
L 301.390889 126.351641 
L 301.777751 123.597219 
L 302.164613 130.458924 
L 303.325199 127.176478 
L 303.712061 127.942565 
L 304.098923 139.95009 
L 304.485785 133.728481 
L 304.872647 137.610337 
L 306.033233 141.000504 
L 306.420095 147.838179 
L 306.806957 151.936414 
L 307.193819 149.082367 
L 307.580681 150.19212 
L 308.741266 147.969194 
L 309.128128 145.521562 
L 309.51499 136.78597 
L 309.901852 138.929164 
L 310.288714 148.423076 
L 311.4493 141.39175 
L 311.836162 143.443469 
L 312.223024 136.034697 
L 312.609886 133.39059 
L 312.996748 134.148487 
L 314.157334 131.725291 
L 314.931058 104.067648 
L 315.31792 103.466957 
L 315.704781 102.230385 
L 316.865367 94.530373 
L 317.252229 100.380243 
L 317.639091 97.919389 
L 318.025953 97.984228 
L 318.412815 95.648948 
L 319.573401 101.401592 
L 320.733987 133.631741 
L 321.120849 136.551206 
L 322.281435 138.369793 
L 322.668297 125.389566 
L 323.055158 117.792624 
L 323.44202 124.197022 
L 323.828882 121.737311 
L 324.989468 124.372369 
L 325.37633 126.172053 
L 325.763192 124.814627 
L 326.150054 120.520137 
L 326.536916 122.703038 
L 327.697502 115.358058 
L 328.084364 123.005207 
L 328.471226 122.849896 
L 328.858088 104.918302 
L 329.24495 103.245562 
L 330.405535 93.026367 
L 330.792397 92.256682 
L 331.179259 87.98818 
L 331.566121 88.275756 
L 331.952983 89.376571 
L 333.113569 94.808542 
L 333.500431 91.631739 
L 333.887293 97.551762 
L 334.274155 92.718384 
L 334.661017 84.827594 
L 335.821603 82.059074 
L 336.208465 84.008072 
L 336.595327 80.601432 
L 336.982189 82.717365 
L 337.36905 75.790025 
L 338.529636 88.924267 
L 338.916498 91.203205 
L 339.690222 115.322488 
L 340.077084 105.797905 
L 341.23767 99.419747 
L 341.624532 104.3419 
L 342.011394 114.6123 
L 342.398256 134.454377 
L 342.785118 137.927126 
L 343.945704 121.676641 
L 344.332566 118.613161 
L 344.719427 122.294407 
L 345.106289 119.029056 
L 345.493151 129.430107 
L 346.653737 131.299764 
L 347.040599 130.526808 
L 347.427461 130.989031 
L 347.814323 125.589797 
L 348.201185 123.156861 
L 349.361771 118.515326 
L 349.748633 123.06719 
L 350.135495 116.861085 
L 350.522357 105.52025 
L 350.909219 112.118541 
L 352.069804 118.080605 
L 352.456666 108.796441 
L 352.843528 110.004038 
L 353.23039 100.109977 
L 353.617252 103.093985 
L 354.777838 92.716855 
L 355.1647 91.662034 
L 355.551562 89.699849 
L 355.938424 78.285447 
L 356.325286 80.794909 
L 357.485872 87.466211 
L 357.872734 90.557711 
L 358.259596 87.199881 
L 358.646458 98.219177 
L 359.033319 93.591016 
L 360.193905 97.287941 
L 360.580767 89.010588 
L 360.967629 105.788868 
L 361.354491 111.120114 
L 361.741353 122.514955 
L 362.901939 127.957823 
L 363.288801 126.186468 
L 363.675663 127.276485 
L 364.062525 128.859912 
L 364.449387 129.81109 
L 365.609973 128.341742 
L 365.996835 134.934078 
L 366.770558 125.587143 
L 367.15742 122.881549 
L 368.318006 118.998232 
L 368.704868 116.865838 
L 369.09173 102.691568 
L 369.478592 103.183917 
L 369.865454 105.209787 
L 371.02604 110.318365 
L 372.186626 131.42564 
L 372.573488 131.784661 
L 373.734073 129.44771 
L 374.120935 128.995057 
L 374.507797 133.973723 
L 375.281521 122.789675 
L 376.442107 123.75435 
L 376.828969 128.027011 
L 377.215831 124.233804 
L 377.602693 122.853796 
L 377.989555 132.436284 
L 379.150141 132.776741 
L 379.537003 130.925072 
L 379.923865 136.770605 
L 380.310727 135.409078 
L 380.697588 144.821181 
L 381.858174 135.971893 
L 382.245036 127.568849 
L 382.631898 129.145703 
L 383.01876 126.602082 
L 383.405622 142.425067 
L 384.95307 151.580272 
L 385.339932 158.300152 
L 385.726794 153.654729 
L 386.113656 140.644532 
L 387.274242 148.176166 
L 387.661104 153.442679 
L 388.047965 151.830539 
L 388.434827 141.303508 
L 388.821689 149.120653 
L 389.982275 147.407685 
L 390.369137 135.407698 
L 391.142861 154.218737 
L 391.529723 156.806851 
L 392.690309 159.994298 
L 393.077171 154.738682 
L 393.464033 153.090785 
L 393.850895 164.206882 
L 394.237757 160.867759 
L 395.398342 164.386983 
L 395.785204 156.250178 
L 396.558928 164.01011 
L 396.94579 160.507707 
L 398.106376 155.573213 
L 398.493238 152.609402 
L 398.8801 163.175712 
L 399.266962 159.687248 
L 399.653824 166.069376 
L 400.81441 164.496571 
L 401.201272 173.219915 
L 401.588134 170.365785 
L 401.974996 175.225852 
L 402.361857 182.919292 
L 403.909305 176.920255 
L 404.296167 180.552644 
L 404.683029 171.579474 
L 405.069891 174.187618 
L 406.230477 173.888259 
L 406.617339 172.131946 
L 407.004201 175.83333 
L 407.391063 172.841126 
L 407.777925 176.010561 
L 408.938511 178.419697 
L 409.325373 169.956655 
L 409.712234 176.252506 
L 410.099096 190.68683 
L 410.485958 180.927341 
L 411.646544 165.148613 
L 412.033406 167.569525 
L 412.420268 179.367469 
L 413.193992 182.77769 
L 414.354578 183.821826 
L 414.74144 190.381101 
L 415.515164 183.576859 
L 415.902026 192.399102 
L 417.062611 188.144864 
L 417.449473 175.639584 
L 417.836335 174.484175 
L 418.223197 176.44677 
L 418.610059 177.211844 
L 419.770645 173.342734 
L 420.157507 183.769404 
L 420.544369 182.678096 
L 420.931231 184.928526 
L 421.318093 173.602356 
L 422.478679 174.568983 
L 422.865541 164.135409 
L 423.252403 170.892501 
L 423.639265 167.149472 
L 424.026126 165.054809 
L 425.186712 170.351176 
L 425.573574 169.150103 
L 425.960436 161.477243 
L 426.347298 163.405008 
L 426.73416 173.796351 
L 427.894746 173.801854 
L 428.281608 179.212025 
L 428.66847 181.186818 
L 429.055332 181.579559 
L 429.442194 191.690306 
L 430.60278 201.075322 
L 430.989642 198.167389 
L 431.376503 201.117864 
L 431.763365 215.704909 
L 432.150227 211.164472 
L 433.310813 209.516382 
L 433.697675 213.48216 
L 434.084537 220.789552 
L 434.471399 216.011215 
L 434.858261 213.944548 
L 436.018847 200.170292 
L 436.792571 195.246131 
L 437.179433 196.129344 
L 437.566295 191.210349 
L 438.72688 187.389049 
L 439.113742 179.749322 
L 440.274328 188.090557 
L 441.434914 183.247334 
L 441.821776 174.032458 
L 442.5955 179.224708 
L 442.982362 177.21131 
L 444.142948 178.606772 
L 444.52981 172.679831 
L 444.916672 186.251768 
L 445.690395 195.603751 
L 447.237843 214.346017 
L 447.624705 219.398749 
L 448.011567 220.429229 
L 448.398429 214.081874 
L 449.559015 215.372159 
L 449.945877 221.05894 
L 450.332739 221.283426 
L 450.719601 215.30781 
L 451.106463 220.689498 
L 452.267049 225.648922 
L 452.653911 222.463718 
L 453.040772 223.600685 
L 453.427634 219.904652 
L 453.814496 219.887779 
L 454.975082 215.856793 
L 455.361944 221.561454 
L 455.748806 221.535943 
L 456.135668 222.614946 
L 456.52253 229.228609 
L 457.683116 237.619846 
L 458.069978 233.828638 
L 458.45684 235.636892 
L 458.843702 241.033038 
L 459.230564 241.456931 
L 460.391149 235.315247 
L 460.778011 247.381835 
L 461.164873 255.094139 
L 461.551735 259.749387 
L 461.938597 252.131555 
L 463.099183 250.57248 
L 463.486045 246.461374 
L 464.259769 258.035826 
L 464.646631 255.646539 
L 465.807217 255.259793 
L 466.194079 252.330685 
L 466.580941 253.218678 
L 466.967803 251.686645 
L 467.354664 250.775779 
L 468.51525 246.611559 
L 468.902112 242.251943 
L 469.288974 250.698022 
L 469.675836 262.182317 
L 470.062698 256.977124 
L 471.223284 250.738709 
L 471.610146 255.945168 
L 471.997008 265.341969 
L 472.38387 264.758196 
L 472.770732 259.946935 
L 474.31818 247.789845 
L 474.705041 249.650824 
L 475.091903 254.210969 
L 475.091903 254.210969 
" clip-path="url(#peccdc7cff7)" style="fill: none; stroke-dasharray: 6.66,2.88; stroke-dashoffset: 0; stroke: #8b949e; stroke-width: 1.8"/>
   </g>
   <g id="line2d_39">
    <path d="M 48.982813 125.150348 
L 495.382812 125.150348 
" clip-path="url(#peccdc7cff7)" style="fill: none; stroke: #d0d7de; stroke-linecap: square"/>
   </g>
   <g id="patch_3">
    <path d="M 48.982813 275.925969 
L 48.982813 43.077969 
" style="fill: none; stroke: #000000; stroke-width: 0.8; stroke-linejoin: miter; stroke-linecap: square"/>
   </g>
   <g id="patch_4">
    <path d="M 48.982813 275.925969 
L 495.382813 275.925969 
" style="fill: none; stroke: #000000; stroke-width: 0.8; stroke-linejoin: miter; stroke-linecap: square"/>
   </g>
   <g id="text_20">
    <!-- Does the rule add value over simply holding the series? -->
    <g style="fill: #57606a" transform="translate(146.556172 37.71353) scale(0.09 -0.09)">
     <defs>
      <path id="DejaVuSans-Oblique-44" d="M 1081 4666 
L 2438 4666 
Q 3519 4666 4070 4208 
Q 4622 3750 4622 2847 
Q 4622 2250 4412 1698 
Q 4203 1147 3834 769 
Q 3463 381 2891 190 
Q 2319 0 1538 0 
L 172 0 
L 1081 4666 
z
M 1613 4147 
L 909 519 
L 1734 519 
Q 2794 519 3375 1128 
Q 3956 1738 3956 2847 
Q 3956 3519 3581 3833 
Q 3206 4147 2406 4147 
L 1613 4147 
z
" transform="scale(0.015625)"/>
      <path id="DejaVuSans-Oblique-6f" d="M 1625 -91 
Q 1009 -91 651 289 
Q 294 669 294 1325 
Q 294 1706 417 2101 
Q 541 2497 738 2766 
Q 1047 3184 1428 3384 
Q 1809 3584 2291 3584 
Q 2888 3584 3255 3212 
Q 3622 2841 3622 2241 
Q 3622 1825 3500 1412 
Q 3378 1000 3181 728 
Q 2875 309 2494 109 
Q 2113 -91 1625 -91 
z
M 891 1344 
Q 891 869 1089 633 
Q 1288 397 1691 397 
Q 2269 397 2648 901 
Q 3028 1406 3028 2181 
Q 3028 2634 2825 2865 
Q 2622 3097 2228 3097 
Q 1903 3097 1650 2945 
Q 1397 2794 1197 2484 
Q 1050 2253 970 1956 
Q 891 1659 891 1344 
z
" transform="scale(0.015625)"/>
      <path id="DejaVuSans-Oblique-65" d="M 3078 2063 
Q 3088 2113 3092 2166 
Q 3097 2219 3097 2272 
Q 3097 2653 2873 2875 
Q 2650 3097 2266 3097 
Q 1838 3097 1509 2826 
Q 1181 2556 1013 2059 
L 3078 2063 
z
M 3578 1613 
L 903 1613 
Q 884 1494 878 1425 
Q 872 1356 872 1306 
Q 872 872 1139 634 
Q 1406 397 1894 397 
Q 2269 397 2603 481 
Q 2938 566 3225 728 
L 3116 159 
Q 2806 34 2476 -28 
Q 2147 -91 1806 -91 
Q 1078 -91 686 257 
Q 294 606 294 1247 
Q 294 1794 489 2264 
Q 684 2734 1063 3103 
Q 1306 3334 1642 3459 
Q 1978 3584 2356 3584 
Q 2950 3584 3301 3228 
Q 3653 2872 3653 2272 
Q 3653 2128 3634 1964 
Q 3616 1800 3578 1613 
z
" transform="scale(0.015625)"/>
      <path id="DejaVuSans-Oblique-73" d="M 3200 3397 
L 3091 2853 
Q 2863 2978 2609 3040 
Q 2356 3103 2088 3103 
Q 1634 3103 1373 2948 
Q 1113 2794 1113 2528 
Q 1113 2219 1719 2053 
Q 1766 2041 1788 2034 
L 1972 1978 
Q 2547 1819 2739 1644 
Q 2931 1469 2931 1166 
Q 2931 609 2489 259 
Q 2047 -91 1331 -91 
Q 1053 -91 747 -37 
Q 441 16 72 128 
L 184 722 
Q 500 559 806 475 
Q 1113 391 1394 391 
Q 1816 391 2080 572 
Q 2344 753 2344 1031 
Q 2344 1331 1650 1516 
L 1591 1531 
L 1394 1581 
Q 956 1697 753 1886 
Q 550 2075 550 2369 
Q 550 2928 970 3256 
Q 1391 3584 2113 3584 
Q 2397 3584 2667 3537 
Q 2938 3491 3200 3397 
z
" transform="scale(0.015625)"/>
      <path id="DejaVuSans-Oblique-20" transform="scale(0.015625)"/>
      <path id="DejaVuSans-Oblique-74" d="M 2706 3500 
L 2619 3053 
L 1472 3053 
L 1100 1153 
Q 1081 1047 1072 975 
Q 1063 903 1063 863 
Q 1063 663 1183 572 
Q 1303 481 1569 481 
L 2150 481 
L 2053 0 
L 1503 0 
Q 991 0 739 200 
Q 488 400 488 806 
Q 488 878 497 964 
Q 506 1050 525 1153 
L 897 3053 
L 409 3053 
L 500 3500 
L 978 3500 
L 1172 4494 
L 1747 4494 
L 1556 3500 
L 2706 3500 
z
" transform="scale(0.015625)"/>
      <path id="DejaVuSans-Oblique-68" d="M 3566 2113 
L 3156 0 
L 2578 0 
L 2988 2091 
Q 3016 2238 3031 2350 
Q 3047 2463 3047 2528 
Q 3047 2791 2881 2937 
Q 2716 3084 2419 3084 
Q 1956 3084 1617 2771 
Q 1278 2459 1178 1941 
L 800 0 
L 225 0 
L 1172 4863 
L 1747 4863 
L 1375 2950 
Q 1594 3244 1934 3414 
Q 2275 3584 2650 3584 
Q 3113 3584 3367 3334 
Q 3622 3084 3622 2631 
Q 3622 2519 3608 2391 
Q 3594 2263 3566 2113 
z
" transform="scale(0.015625)"/>
      <path id="DejaVuSans-Oblique-72" d="M 2853 2969 
Q 2766 3016 2653 3041 
Q 2541 3066 2413 3066 
Q 1953 3066 1609 2717 
Q 1266 2369 1153 1784 
L 800 0 
L 225 0 
L 909 3500 
L 1484 3500 
L 1375 2956 
Q 1603 3259 1920 3421 
Q 2238 3584 2597 3584 
Q 2691 3584 2781 3573 
Q 2872 3563 2963 3538 
L 2853 2969 
z
" transform="scale(0.015625)"/>
      <path id="DejaVuSans-Oblique-75" d="M 428 1388 
L 838 3500 
L 1416 3500 
L 1006 1409 
Q 975 1256 961 1147 
Q 947 1038 947 966 
Q 947 700 1109 554 
Q 1272 409 1569 409 
Q 2031 409 2368 721 
Q 2706 1034 2809 1563 
L 3194 3500 
L 3769 3500 
L 3091 0 
L 2516 0 
L 2631 550 
Q 2388 244 2052 76 
Q 1716 -91 1338 -91 
Q 878 -91 622 161 
Q 366 413 366 863 
Q 366 956 381 1097 
Q 397 1238 428 1388 
z
" transform="scale(0.015625)"/>
      <path id="DejaVuSans-Oblique-6c" d="M 1172 4863 
L 1747 4863 
L 800 0 
L 225 0 
L 1172 4863 
z
" transform="scale(0.015625)"/>
      <path id="DejaVuSans-Oblique-61" d="M 3438 1997 
L 3047 0 
L 2472 0 
L 2578 531 
Q 2325 219 2001 64 
Q 1678 -91 1281 -91 
Q 834 -91 548 182 
Q 263 456 263 884 
Q 263 1497 752 1853 
Q 1241 2209 2100 2209 
L 2900 2209 
L 2931 2363 
Q 2938 2388 2941 2417 
Q 2944 2447 2944 2509 
Q 2944 2788 2717 2942 
Q 2491 3097 2081 3097 
Q 1800 3097 1504 3025 
Q 1209 2953 897 2809 
L 997 3341 
Q 1322 3463 1633 3523 
Q 1944 3584 2234 3584 
Q 2853 3584 3176 3315 
Q 3500 3047 3500 2534 
Q 3500 2431 3484 2292 
Q 3469 2153 3438 1997 
z
M 2816 1759 
L 2241 1759 
Q 1534 1759 1195 1570 
Q 856 1381 856 984 
Q 856 709 1029 553 
Q 1203 397 1509 397 
Q 1978 397 2328 733 
Q 2678 1069 2791 1631 
L 2816 1759 
z
" transform="scale(0.015625)"/>
      <path id="DejaVuSans-Oblique-64" d="M 2675 525 
Q 2444 222 2128 65 
Q 1813 -91 1428 -91 
Q 903 -91 598 267 
Q 294 625 294 1247 
Q 294 1766 478 2236 
Q 663 2706 1013 3078 
Q 1244 3325 1534 3454 
Q 1825 3584 2144 3584 
Q 2481 3584 2739 3421 
Q 2997 3259 3138 2956 
L 3513 4863 
L 4091 4863 
L 3144 0 
L 2566 0 
L 2675 525 
z
M 891 1350 
Q 891 897 1095 644 
Q 1300 391 1663 391 
Q 1931 391 2161 520 
Q 2391 650 2566 903 
Q 2750 1166 2856 1509 
Q 2963 1853 2963 2188 
Q 2963 2622 2758 2865 
Q 2553 3109 2194 3109 
Q 1922 3109 1687 2981 
Q 1453 2853 1288 2613 
Q 1106 2353 998 2009 
Q 891 1666 891 1350 
z
" transform="scale(0.015625)"/>
      <path id="DejaVuSans-Oblique-76" d="M 459 3500 
L 1069 3500 
L 1581 525 
L 3256 3500 
L 3866 3500 
L 1875 0 
L 1100 0 
L 459 3500 
z
" transform="scale(0.015625)"/>
      <path id="DejaVuSans-Oblique-69" d="M 1172 4863 
L 1747 4863 
L 1606 4134 
L 1031 4134 
L 1172 4863 
z
M 909 3500 
L 1484 3500 
L 800 0 
L 225 0 
L 909 3500 
z
" transform="scale(0.015625)"/>
      <path id="DejaVuSans-Oblique-6d" d="M 5747 2113 
L 5338 0 
L 4763 0 
L 5166 2094 
Q 5191 2228 5203 2325 
Q 5216 2422 5216 2491 
Q 5216 2772 5059 2928 
Q 4903 3084 4622 3084 
Q 4203 3084 3875 2770 
Q 3547 2456 3450 1953 
L 3066 0 
L 2491 0 
L 2900 2094 
Q 2925 2209 2937 2307 
Q 2950 2406 2950 2484 
Q 2950 2769 2794 2926 
Q 2638 3084 2363 3084 
Q 1938 3084 1609 2770 
Q 1281 2456 1184 1953 
L 800 0 
L 225 0 
L 909 3500 
L 1484 3500 
L 1375 2956 
Q 1609 3263 1923 3423 
Q 2238 3584 2597 3584 
Q 2978 3584 3223 3384 
Q 3469 3184 3519 2828 
Q 3781 3197 4126 3390 
Q 4472 3584 4856 3584 
Q 5306 3584 5551 3325 
Q 5797 3066 5797 2591 
Q 5797 2488 5784 2364 
Q 5772 2241 5747 2113 
z
" transform="scale(0.015625)"/>
      <path id="DejaVuSans-Oblique-70" d="M 3175 2156 
Q 3175 2616 2975 2859 
Q 2775 3103 2400 3103 
Q 2144 3103 1911 2972 
Q 1678 2841 1497 2591 
Q 1319 2344 1212 1994 
Q 1106 1644 1106 1300 
Q 1106 863 1306 627 
Q 1506 391 1875 391 
Q 2147 391 2380 519 
Q 2613 647 2778 891 
Q 2956 1147 3065 1494 
Q 3175 1841 3175 2156 
z
M 1394 2969 
Q 1625 3272 1939 3428 
Q 2253 3584 2638 3584 
Q 3175 3584 3472 3232 
Q 3769 2881 3769 2247 
Q 3769 1728 3584 1258 
Q 3400 788 3053 416 
Q 2822 169 2531 39 
Q 2241 -91 1919 -91 
Q 1547 -91 1294 64 
Q 1041 219 916 525 
L 556 -1331 
L -19 -1331 
L 922 3500 
L 1497 3500 
L 1394 2969 
z
" transform="scale(0.015625)"/>
      <path id="DejaVuSans-Oblique-79" d="M 1588 -325 
Q 1188 -997 936 -1164 
Q 684 -1331 294 -1331 
L -159 -1331 
L -63 -850 
L 269 -850 
Q 509 -850 678 -719 
Q 847 -588 1056 -206 
L 1234 128 
L 459 3500 
L 1069 3500 
L 1650 819 
L 3256 3500 
L 3859 3500 
L 1588 -325 
z
" transform="scale(0.015625)"/>
      <path id="DejaVuSans-Oblique-6e" d="M 3566 2113 
L 3156 0 
L 2578 0 
L 2988 2091 
Q 3016 2238 3031 2350 
Q 3047 2463 3047 2528 
Q 3047 2791 2881 2937 
Q 2716 3084 2419 3084 
Q 1956 3084 1622 2776 
Q 1288 2469 1184 1941 
L 800 0 
L 225 0 
L 903 3500 
L 1478 3500 
L 1363 2950 
Q 1603 3253 1940 3418 
Q 2278 3584 2650 3584 
Q 3113 3584 3367 3334 
Q 3622 3084 3622 2631 
Q 3622 2519 3608 2391 
Q 3594 2263 3566 2113 
z
" transform="scale(0.015625)"/>
      <path id="DejaVuSans-Oblique-67" d="M 3816 3500 
L 3219 434 
Q 3047 -456 2561 -893 
Q 2075 -1331 1253 -1331 
Q 950 -1331 690 -1286 
Q 431 -1241 206 -1147 
L 313 -588 
Q 525 -725 762 -790 
Q 1000 -856 1269 -856 
Q 1816 -856 2167 -557 
Q 2519 -259 2631 300 
L 2681 563 
Q 2441 288 2122 144 
Q 1803 0 1434 0 
Q 903 0 598 351 
Q 294 703 294 1319 
Q 294 1803 478 2267 
Q 663 2731 997 3091 
Q 1219 3328 1514 3456 
Q 1809 3584 2131 3584 
Q 2484 3584 2746 3420 
Q 3009 3256 3138 2956 
L 3238 3500 
L 3816 3500 
z
M 2950 2216 
Q 2950 2641 2750 2872 
Q 2550 3103 2181 3103 
Q 1953 3103 1747 3012 
Q 1541 2922 1394 2759 
Q 1156 2491 1023 2127 
Q 891 1763 891 1375 
Q 891 944 1092 712 
Q 1294 481 1672 481 
Q 2219 481 2584 976 
Q 2950 1472 2950 2216 
z
" transform="scale(0.015625)"/>
      <path id="DejaVuSans-Oblique-3f" d="M 1594 794 
L 1441 0 
L 806 0 
L 959 794 
L 1594 794 
z
M 903 4397 
Q 1222 4575 1539 4662 
Q 1856 4750 2188 4750 
Q 2691 4750 2981 4515 
Q 3272 4281 3272 3878 
Q 3272 3556 3105 3275 
Q 2938 2994 2559 2688 
L 2234 2425 
Q 1972 2219 1884 2072 
Q 1797 1925 1741 1638 
L 1663 1253 
L 1069 1253 
L 1166 1734 
Q 1222 2028 1344 2233 
Q 1466 2438 1813 2725 
L 2144 3003 
Q 2406 3222 2512 3387 
Q 2619 3553 2619 3731 
Q 2619 3969 2448 4103 
Q 2278 4238 1978 4238 
Q 1728 4238 1420 4127 
Q 1113 4016 788 3809 
L 903 4397 
z
" transform="scale(0.015625)"/>
     </defs>
     <use xlink:href="#DejaVuSans-Oblique-44"/>
     <use xlink:href="#DejaVuSans-Oblique-6f" transform="translate(77.001953 0)"/>
     <use xlink:href="#DejaVuSans-Oblique-65" transform="translate(138.183594 0)"/>
     <use xlink:href="#DejaVuSans-Oblique-73" transform="translate(199.707031 0)"/>
     <use xlink:href="#DejaVuSans-Oblique-20" transform="translate(251.806641 0)"/>
     <use xlink:href="#DejaVuSans-Oblique-74" transform="translate(283.59375 0)"/>
     <use xlink:href="#DejaVuSans-Oblique-68" transform="translate(322.802734 0)"/>
     <use xlink:href="#DejaVuSans-Oblique-65" transform="translate(386.181641 0)"/>
     <use xlink:href="#DejaVuSans-Oblique-20" transform="translate(447.705078 0)"/>
     <use xlink:href="#DejaVuSans-Oblique-72" transform="translate(479.492188 0)"/>
     <use xlink:href="#DejaVuSans-Oblique-75" transform="translate(520.605469 0)"/>
     <use xlink:href="#DejaVuSans-Oblique-6c" transform="translate(583.984375 0)"/>
     <use xlink:href="#DejaVuSans-Oblique-65" transform="translate(611.767578 0)"/>
     <use xlink:href="#DejaVuSans-Oblique-20" transform="translate(673.291016 0)"/>
     <use xlink:href="#DejaVuSans-Oblique-61" transform="translate(705.078125 0)"/>
     <use xlink:href="#DejaVuSans-Oblique-64" transform="translate(766.357422 0)"/>
     <use xlink:href="#DejaVuSans-Oblique-64" transform="translate(829.833984 0)"/>
     <use xlink:href="#DejaVuSans-Oblique-20" transform="translate(893.310547 0)"/>
     <use xlink:href="#DejaVuSans-Oblique-76" transform="translate(925.097656 0)"/>
     <use xlink:href="#DejaVuSans-Oblique-61" transform="translate(984.277344 0)"/>
     <use xlink:href="#DejaVuSans-Oblique-6c" transform="translate(1045.556641 0)"/>
     <use xlink:href="#DejaVuSans-Oblique-75" transform="translate(1073.339844 0)"/>
     <use xlink:href="#DejaVuSans-Oblique-65" transform="translate(1136.71875 0)"/>
     <use xlink:href="#DejaVuSans-Oblique-20" transform="translate(1198.242188 0)"/>
     <use xlink:href="#DejaVuSans-Oblique-6f" transform="translate(1230.029297 0)"/>
     <use xlink:href="#DejaVuSans-Oblique-76" transform="translate(1291.210938 0)"/>
     <use xlink:href="#DejaVuSans-Oblique-65" transform="translate(1350.390625 0)"/>
     <use xlink:href="#DejaVuSans-Oblique-72" transform="translate(1411.914062 0)"/>
     <use xlink:href="#DejaVuSans-Oblique-20" transform="translate(1453.027344 0)"/>
     <use xlink:href="#DejaVuSans-Oblique-73" transform="translate(1484.814453 0)"/>
     <use xlink:href="#DejaVuSans-Oblique-69" transform="translate(1536.914062 0)"/>
     <use xlink:href="#DejaVuSans-Oblique-6d" transform="translate(1564.697266 0)"/>
     <use xlink:href="#DejaVuSans-Oblique-70" transform="translate(1662.109375 0)"/>
     <use xlink:href="#DejaVuSans-Oblique-6c" transform="translate(1725.585938 0)"/>
     <use xlink:href="#DejaVuSans-Oblique-79" transform="translate(1753.369141 0)"/>
     <use xlink:href="#DejaVuSans-Oblique-20" transform="translate(1812.548828 0)"/>
     <use xlink:href="#DejaVuSans-Oblique-68" transform="translate(1844.335938 0)"/>
     <use xlink:href="#DejaVuSans-Oblique-6f" transform="translate(1907.714844 0)"/>
     <use xlink:href="#DejaVuSans-Oblique-6c" transform="translate(1968.896484 0)"/>
     <use xlink:href="#DejaVuSans-Oblique-64" transform="translate(1996.679688 0)"/>
     <use xlink:href="#DejaVuSans-Oblique-69" transform="translate(2060.15625 0)"/>
     <use xlink:href="#DejaVuSans-Oblique-6e" transform="translate(2087.939453 0)"/>
     <use xlink:href="#DejaVuSans-Oblique-67" transform="translate(2151.318359 0)"/>
     <use xlink:href="#DejaVuSans-Oblique-20" transform="translate(2214.794922 0)"/>
     <use xlink:href="#DejaVuSans-Oblique-74" transform="translate(2246.582031 0)"/>
     <use xlink:href="#DejaVuSans-Oblique-68" transform="translate(2285.791016 0)"/>
     <use xlink:href="#DejaVuSans-Oblique-65" transform="translate(2349.169922 0)"/>
     <use xlink:href="#DejaVuSans-Oblique-20" transform="translate(2410.693359 0)"/>
     <use xlink:href="#DejaVuSans-Oblique-73" transform="translate(2442.480469 0)"/>
     <use xlink:href="#DejaVuSans-Oblique-65" transform="translate(2494.580078 0)"/>
     <use xlink:href="#DejaVuSans-Oblique-72" transform="translate(2556.103516 0)"/>
     <use xlink:href="#DejaVuSans-Oblique-69" transform="translate(2597.216797 0)"/>
     <use xlink:href="#DejaVuSans-Oblique-65" transform="translate(2625 0)"/>
     <use xlink:href="#DejaVuSans-Oblique-73" transform="translate(2686.523438 0)"/>
     <use xlink:href="#DejaVuSans-Oblique-3f" transform="translate(2738.623047 0)"/>
    </g>
   </g>
   <g id="text_21">
    <g id="patch_5">
     <path d="M 329.381469 271.183767 
L 490.918813 271.183767 
Q 493.618812 271.183767 493.618812 268.483767 
L 493.618812 249.695424 
Q 493.618812 246.995424 490.918813 246.995424 
L 329.381469 246.995424 
Q 326.681469 246.995424 326.681469 249.695424 
L 326.681469 268.483767 
Q 326.681469 271.183767 329.381469 271.183767 
z
" style="fill: #f6f8fa; stroke: #d0d7de; stroke-linejoin: miter"/>
    </g>
    <!-- Strategy outperformed the baseline -->
    <g style="fill: #57606a" transform="translate(329.381469 256.534018) scale(0.09 -0.09)">
     <defs>
      <path id="DejaVuSans-53" d="M 3425 4513 
L 3425 3897 
Q 3066 4069 2747 4153 
Q 2428 4238 2131 4238 
Q 1616 4238 1336 4038 
Q 1056 3838 1056 3469 
Q 1056 3159 1242 3001 
Q 1428 2844 1947 2747 
L 2328 2669 
Q 3034 2534 3370 2195 
Q 3706 1856 3706 1288 
Q 3706 609 3251 259 
Q 2797 -91 1919 -91 
Q 1588 -91 1214 -16 
Q 841 59 441 206 
L 441 856 
Q 825 641 1194 531 
Q 1563 422 1919 422 
Q 2459 422 2753 634 
Q 3047 847 3047 1241 
Q 3047 1584 2836 1778 
Q 2625 1972 2144 2069 
L 1759 2144 
Q 1053 2284 737 2584 
Q 422 2884 422 3419 
Q 422 4038 858 4394 
Q 1294 4750 2059 4750 
Q 2388 4750 2728 4690 
Q 3069 4631 3425 4513 
z
" transform="scale(0.015625)"/>
      <path id="DejaVuSans-67" d="M 2906 1791 
Q 2906 2416 2648 2759 
Q 2391 3103 1925 3103 
Q 1463 3103 1205 2759 
Q 947 2416 947 1791 
Q 947 1169 1205 825 
Q 1463 481 1925 481 
Q 2391 481 2648 825 
Q 2906 1169 2906 1791 
z
M 3481 434 
Q 3481 -459 3084 -895 
Q 2688 -1331 1869 -1331 
Q 1566 -1331 1297 -1286 
Q 1028 -1241 775 -1147 
L 775 -588 
Q 1028 -725 1275 -790 
Q 1522 -856 1778 -856 
Q 2344 -856 2625 -561 
Q 2906 -266 2906 331 
L 2906 616 
Q 2728 306 2450 153 
Q 2172 0 1784 0 
Q 1141 0 747 490 
Q 353 981 353 1791 
Q 353 2603 747 3093 
Q 1141 3584 1784 3584 
Q 2172 3584 2450 3431 
Q 2728 3278 2906 2969 
L 2906 3500 
L 3481 3500 
L 3481 434 
z
" transform="scale(0.015625)"/>
      <path id="DejaVuSans-79" d="M 2059 -325 
Q 1816 -950 1584 -1140 
Q 1353 -1331 966 -1331 
L 506 -1331 
L 506 -850 
L 844 -850 
Q 1081 -850 1212 -737 
Q 1344 -625 1503 -206 
L 1606 56 
L 191 3500 
L 800 3500 
L 1894 763 
L 2988 3500 
L 3597 3500 
L 2059 -325 
z
" transform="scale(0.015625)"/>
      <path id="DejaVuSans-6f" d="M 1959 3097 
Q 1497 3097 1228 2736 
Q 959 2375 959 1747 
Q 959 1119 1226 758 
Q 1494 397 1959 397 
Q 2419 397 2687 759 
Q 2956 1122 2956 1747 
Q 2956 2369 2687 2733 
Q 2419 3097 1959 3097 
z
M 1959 3584 
Q 2709 3584 3137 3096 
Q 3566 2609 3566 1747 
Q 3566 888 3137 398 
Q 2709 -91 1959 -91 
Q 1206 -91 779 398 
Q 353 888 353 1747 
Q 353 2609 779 3096 
Q 1206 3584 1959 3584 
z
" transform="scale(0.015625)"/>
      <path id="DejaVuSans-70" d="M 1159 525 
L 1159 -1331 
L 581 -1331 
L 581 3500 
L 1159 3500 
L 1159 2969 
Q 1341 3281 1617 3432 
Q 1894 3584 2278 3584 
Q 2916 3584 3314 3078 
Q 3713 2572 3713 1747 
Q 3713 922 3314 415 
Q 2916 -91 2278 -91 
Q 1894 -91 1617 61 
Q 1341 213 1159 525 
z
M 3116 1747 
Q 3116 2381 2855 2742 
Q 2594 3103 2138 3103 
Q 1681 3103 1420 2742 
Q 1159 2381 1159 1747 
Q 1159 1113 1420 752 
Q 1681 391 2138 391 
Q 2594 391 2855 752 
Q 3116 1113 3116 1747 
z
" transform="scale(0.015625)"/>
      <path id="DejaVuSans-66" d="M 2375 4863 
L 2375 4384 
L 1825 4384 
Q 1516 4384 1395 4259 
Q 1275 4134 1275 3809 
L 1275 3500 
L 2222 3500 
L 2222 3053 
L 1275 3053 
L 1275 0 
L 697 0 
L 697 3053 
L 147 3053 
L 147 3500 
L 697 3500 
L 697 3744 
Q 697 4328 969 4595 
Q 1241 4863 1831 4863 
L 2375 4863 
z
" transform="scale(0.015625)"/>
      <path id="DejaVuSans-64" d="M 2906 2969 
L 2906 4863 
L 3481 4863 
L 3481 0 
L 2906 0 
L 2906 525 
Q 2725 213 2448 61 
Q 2172 -91 1784 -91 
Q 1150 -91 751 415 
Q 353 922 353 1747 
Q 353 2572 751 3078 
Q 1150 3584 1784 3584 
Q 2172 3584 2448 3432 
Q 2725 3281 2906 2969 
z
M 947 1747 
Q 947 1113 1208 752 
Q 1469 391 1925 391 
Q 2381 391 2643 752 
Q 2906 1113 2906 1747 
Q 2906 2381 2643 2742 
Q 2381 3103 1925 3103 
Q 1469 3103 1208 2742 
Q 947 2381 947 1747 
z
" transform="scale(0.015625)"/>
      <path id="DejaVuSans-68" d="M 3513 2113 
L 3513 0 
L 2938 0 
L 2938 2094 
Q 2938 2591 2744 2837 
Q 2550 3084 2163 3084 
Q 1697 3084 1428 2787 
Q 1159 2491 1159 1978 
L 1159 0 
L 581 0 
L 581 4863 
L 1159 4863 
L 1159 2956 
Q 1366 3272 1645 3428 
Q 1925 3584 2291 3584 
Q 2894 3584 3203 3211 
Q 3513 2838 3513 2113 
z
" transform="scale(0.015625)"/>
      <path id="DejaVuSans-62" d="M 3116 1747 
Q 3116 2381 2855 2742 
Q 2594 3103 2138 3103 
Q 1681 3103 1420 2742 
Q 1159 2381 1159 1747 
Q 1159 1113 1420 752 
Q 1681 391 2138 391 
Q 2594 391 2855 752 
Q 3116 1113 3116 1747 
z
M 1159 2969 
Q 1341 3281 1617 3432 
Q 1894 3584 2278 3584 
Q 2916 3584 3314 3078 
Q 3713 2572 3713 1747 
Q 3713 922 3314 415 
Q 2916 -91 2278 -91 
Q 1894 -91 1617 61 
Q 1341 213 1159 525 
L 1159 0 
L 581 0 
L 581 4863 
L 1159 4863 
L 1159 2969 
z
" transform="scale(0.015625)"/>
      <path id="DejaVuSans-73" d="M 2834 3397 
L 2834 2853 
Q 2591 2978 2328 3040 
Q 2066 3103 1784 3103 
Q 1356 3103 1142 2972 
Q 928 2841 928 2578 
Q 928 2378 1081 2264 
Q 1234 2150 1697 2047 
L 1894 2003 
Q 2506 1872 2764 1633 
Q 3022 1394 3022 966 
Q 3022 478 2636 193 
Q 2250 -91 1575 -91 
Q 1294 -91 989 -36 
Q 684 19 347 128 
L 347 722 
Q 666 556 975 473 
Q 1284 391 1588 391 
Q 1994 391 2212 530 
Q 2431 669 2431 922 
Q 2431 1156 2273 1281 
Q 2116 1406 1581 1522 
L 1381 1569 
Q 847 1681 609 1914 
Q 372 2147 372 2553 
Q 372 3047 722 3315 
Q 1072 3584 1716 3584 
Q 2034 3584 2315 3537 
Q 2597 3491 2834 3397 
z
" transform="scale(0.015625)"/>
     </defs>
     <use xlink:href="#DejaVuSans-53"/>
     <use xlink:href="#DejaVuSans-74" transform="translate(63.476562 0)"/>
     <use xlink:href="#DejaVuSans-72" transform="translate(102.685547 0)"/>
     <use xlink:href="#DejaVuSans-61" transform="translate(143.798828 0)"/>
     <use xlink:href="#DejaVuSans-74" transform="translate(205.078125 0)"/>
     <use xlink:href="#DejaVuSans-65" transform="translate(244.287109 0)"/>
     <use xlink:href="#DejaVuSans-67" transform="translate(305.810547 0)"/>
     <use xlink:href="#DejaVuSans-79" transform="translate(369.287109 0)"/>
     <use xlink:href="#DejaVuSans-20" transform="translate(428.466797 0)"/>
     <use xlink:href="#DejaVuSans-6f" transform="translate(460.253906 0)"/>
     <use xlink:href="#DejaVuSans-75" transform="translate(521.435547 0)"/>
     <use xlink:href="#DejaVuSans-74" transform="translate(584.814453 0)"/>
     <use xlink:href="#DejaVuSans-70" transform="translate(624.023438 0)"/>
     <use xlink:href="#DejaVuSans-65" transform="translate(687.5 0)"/>
     <use xlink:href="#DejaVuSans-72" transform="translate(749.023438 0)"/>
     <use xlink:href="#DejaVuSans-66" transform="translate(790.136719 0)"/>
     <use xlink:href="#DejaVuSans-6f" transform="translate(825.341797 0)"/>
     <use xlink:href="#DejaVuSans-72" transform="translate(886.523438 0)"/>
     <use xlink:href="#DejaVuSans-6d" transform="translate(925.886719 0)"/>
     <use xlink:href="#DejaVuSans-65" transform="translate(1023.298828 0)"/>
     <use xlink:href="#DejaVuSans-64" transform="translate(1084.822266 0)"/>
     <use xlink:href="#DejaVuSans-20" transform="translate(1148.298828 0)"/>
     <use xlink:href="#DejaVuSans-74" transform="translate(1180.085938 0)"/>
     <use xlink:href="#DejaVuSans-68" transform="translate(1219.294922 0)"/>
     <use xlink:href="#DejaVuSans-65" transform="translate(1282.673828 0)"/>
     <use xlink:href="#DejaVuSans-20" transform="translate(1344.197266 0)"/>
     <use xlink:href="#DejaVuSans-62" transform="translate(1375.984375 0)"/>
     <use xlink:href="#DejaVuSans-61" transform="translate(1439.460938 0)"/>
     <use xlink:href="#DejaVuSans-73" transform="translate(1500.740234 0)"/>
     <use xlink:href="#DejaVuSans-65" transform="translate(1552.839844 0)"/>
     <use xlink:href="#DejaVuSans-6c" transform="translate(1614.363281 0)"/>
     <use xlink:href="#DejaVuSans-69" transform="translate(1642.146484 0)"/>
     <use xlink:href="#DejaVuSans-6e" transform="translate(1669.929688 0)"/>
     <use xlink:href="#DejaVuSans-65" transform="translate(1733.308594 0)"/>
    </g>
    <!-- (-3.1% vs -23.0%) -->
    <g style="fill: #57606a" transform="translate(410.211313 266.612049) scale(0.09 -0.09)">
     <defs>
      <path id="DejaVuSans-2e" d="M 684 794 
L 1344 794 
L 1344 0 
L 684 0 
L 684 794 
z
" transform="scale(0.015625)"/>
     </defs>
     <use xlink:href="#DejaVuSans-28"/>
     <use xlink:href="#DejaVuSans-2d" transform="translate(39.013672 0)"/>
     <use xlink:href="#DejaVuSans-33" transform="translate(75.097656 0)"/>
     <use xlink:href="#DejaVuSans-2e" transform="translate(138.720703 0)"/>
     <use xlink:href="#DejaVuSans-31" transform="translate(170.507812 0)"/>
     <use xlink:href="#DejaVuSans-25" transform="translate(234.130859 0)"/>
     <use xlink:href="#DejaVuSans-20" transform="translate(329.150391 0)"/>
     <use xlink:href="#DejaVuSans-76" transform="translate(360.9375 0)"/>
     <use xlink:href="#DejaVuSans-73" transform="translate(420.117188 0)"/>
     <use xlink:href="#DejaVuSans-20" transform="translate(472.216797 0)"/>
     <use xlink:href="#DejaVuSans-2d" transform="translate(504.003906 0)"/>
     <use xlink:href="#DejaVuSans-32" transform="translate(540.087891 0)"/>
     <use xlink:href="#DejaVuSans-33" transform="translate(603.710938 0)"/>
     <use xlink:href="#DejaVuSans-2e" transform="translate(667.333984 0)"/>
     <use xlink:href="#DejaVuSans-30" transform="translate(699.121094 0)"/>
     <use xlink:href="#DejaVuSans-25" transform="translate(762.744141 0)"/>
     <use xlink:href="#DejaVuSans-29" transform="translate(857.763672 0)"/>
    </g>
   </g>
   <g id="text_22">
    <!-- Strategy vs Baseline: Cumulative Return -->
    <g transform="translate(123.157109 17.077969) scale(0.13 -0.13)">
     <defs>
      <path id="DejaVuSans-Bold-53" d="M 3834 4519 
L 3834 3531 
Q 3450 3703 3084 3790 
Q 2719 3878 2394 3878 
Q 1963 3878 1756 3759 
Q 1550 3641 1550 3391 
Q 1550 3203 1689 3098 
Q 1828 2994 2194 2919 
L 2706 2816 
Q 3484 2659 3812 2340 
Q 4141 2022 4141 1434 
Q 4141 663 3683 286 
Q 3225 -91 2284 -91 
Q 1841 -91 1394 -6 
Q 947 78 500 244 
L 500 1259 
Q 947 1022 1364 901 
Q 1781 781 2169 781 
Q 2563 781 2772 912 
Q 2981 1044 2981 1288 
Q 2981 1506 2839 1625 
Q 2697 1744 2272 1838 
L 1806 1941 
Q 1106 2091 782 2419 
Q 459 2747 459 3303 
Q 459 4000 909 4375 
Q 1359 4750 2203 4750 
Q 2588 4750 2994 4692 
Q 3400 4634 3834 4519 
z
" transform="scale(0.015625)"/>
      <path id="DejaVuSans-Bold-74" d="M 1759 4494 
L 1759 3500 
L 2913 3500 
L 2913 2700 
L 1759 2700 
L 1759 1216 
Q 1759 972 1856 886 
Q 1953 800 2241 800 
L 2816 800 
L 2816 0 
L 1856 0 
Q 1194 0 917 276 
Q 641 553 641 1216 
L 641 2700 
L 84 2700 
L 84 3500 
L 641 3500 
L 641 4494 
L 1759 4494 
z
" transform="scale(0.015625)"/>
      <path id="DejaVuSans-Bold-72" d="M 3138 2547 
Q 2991 2616 2845 2648 
Q 2700 2681 2553 2681 
Q 2122 2681 1889 2404 
Q 1656 2128 1656 1613 
L 1656 0 
L 538 0 
L 538 3500 
L 1656 3500 
L 1656 2925 
Q 1872 3269 2151 3426 
Q 2431 3584 2822 3584 
Q 2878 3584 2943 3579 
Q 3009 3575 3134 3559 
L 3138 2547 
z
" transform="scale(0.015625)"/>
      <path id="DejaVuSans-Bold-61" d="M 2106 1575 
Q 1756 1575 1579 1456 
Q 1403 1338 1403 1106 
Q 1403 894 1545 773 
Q 1688 653 1941 653 
Q 2256 653 2472 879 
Q 2688 1106 2688 1447 
L 2688 1575 
L 2106 1575 
z
M 3816 1997 
L 3816 0 
L 2688 0 
L 2688 519 
Q 2463 200 2181 54 
Q 1900 -91 1497 -91 
Q 953 -91 614 226 
Q 275 544 275 1050 
Q 275 1666 698 1953 
Q 1122 2241 2028 2241 
L 2688 2241 
L 2688 2328 
Q 2688 2594 2478 2717 
Q 2269 2841 1825 2841 
Q 1466 2841 1156 2769 
Q 847 2697 581 2553 
L 581 3406 
Q 941 3494 1303 3539 
Q 1666 3584 2028 3584 
Q 2975 3584 3395 3211 
Q 3816 2838 3816 1997 
z
" transform="scale(0.015625)"/>
      <path id="DejaVuSans-Bold-65" d="M 4031 1759 
L 4031 1441 
L 1416 1441 
Q 1456 1047 1700 850 
Q 1944 653 2381 653 
Q 2734 653 3104 758 
Q 3475 863 3866 1075 
L 3866 213 
Q 3469 63 3072 -14 
Q 2675 -91 2278 -91 
Q 1328 -91 801 392 
Q 275 875 275 1747 
Q 275 2603 792 3093 
Q 1309 3584 2216 3584 
Q 3041 3584 3536 3087 
Q 4031 2591 4031 1759 
z
M 2881 2131 
Q 2881 2450 2695 2645 
Q 2509 2841 2209 2841 
Q 1884 2841 1681 2658 
Q 1478 2475 1428 2131 
L 2881 2131 
z
" transform="scale(0.015625)"/>
      <path id="DejaVuSans-Bold-67" d="M 2919 594 
Q 2688 288 2409 144 
Q 2131 0 1766 0 
Q 1125 0 706 504 
Q 288 1009 288 1791 
Q 288 2575 706 3076 
Q 1125 3578 1766 3578 
Q 2131 3578 2409 3434 
Q 2688 3291 2919 2981 
L 2919 3500 
L 4044 3500 
L 4044 353 
Q 4044 -491 3511 -936 
Q 2978 -1381 1966 -1381 
Q 1638 -1381 1331 -1331 
Q 1025 -1281 716 -1178 
L 716 -306 
Q 1009 -475 1290 -558 
Q 1572 -641 1856 -641 
Q 2406 -641 2662 -400 
Q 2919 -159 2919 353 
L 2919 594 
z
M 2181 2772 
Q 1834 2772 1640 2515 
Q 1447 2259 1447 1791 
Q 1447 1309 1634 1061 
Q 1822 813 2181 813 
Q 2531 813 2725 1069 
Q 2919 1325 2919 1791 
Q 2919 2259 2725 2515 
Q 2531 2772 2181 2772 
z
" transform="scale(0.015625)"/>
      <path id="DejaVuSans-Bold-79" d="M 78 3500 
L 1197 3500 
L 2138 1125 
L 2938 3500 
L 4056 3500 
L 2584 -331 
Q 2363 -916 2067 -1148 
Q 1772 -1381 1288 -1381 
L 641 -1381 
L 641 -647 
L 991 -647 
Q 1275 -647 1404 -556 
Q 1534 -466 1606 -231 
L 1638 -134 
L 78 3500 
z
" transform="scale(0.015625)"/>
      <path id="DejaVuSans-Bold-20" transform="scale(0.015625)"/>
      <path id="DejaVuSans-Bold-76" d="M 97 3500 
L 1216 3500 
L 2088 1081 
L 2956 3500 
L 4078 3500 
L 2700 0 
L 1472 0 
L 97 3500 
z
" transform="scale(0.015625)"/>
      <path id="DejaVuSans-Bold-73" d="M 3272 3391 
L 3272 2541 
Q 2913 2691 2578 2766 
Q 2244 2841 1947 2841 
Q 1628 2841 1473 2761 
Q 1319 2681 1319 2516 
Q 1319 2381 1436 2309 
Q 1553 2238 1856 2203 
L 2053 2175 
Q 2913 2066 3209 1816 
Q 3506 1566 3506 1031 
Q 3506 472 3093 190 
Q 2681 -91 1863 -91 
Q 1516 -91 1145 -36 
Q 775 19 384 128 
L 384 978 
Q 719 816 1070 734 
Q 1422 653 1784 653 
Q 2113 653 2278 743 
Q 2444 834 2444 1013 
Q 2444 1163 2330 1236 
Q 2216 1309 1875 1350 
L 1678 1375 
Q 931 1469 631 1722 
Q 331 1975 331 2491 
Q 331 3047 712 3315 
Q 1094 3584 1881 3584 
Q 2191 3584 2531 3537 
Q 2872 3491 3272 3391 
z
" transform="scale(0.015625)"/>
      <path id="DejaVuSans-Bold-42" d="M 2456 2859 
Q 2741 2859 2887 2984 
Q 3034 3109 3034 3353 
Q 3034 3594 2887 3720 
Q 2741 3847 2456 3847 
L 1791 3847 
L 1791 2859 
L 2456 2859 
z
M 2497 819 
Q 2859 819 3042 972 
Q 3225 1125 3225 1434 
Q 3225 1738 3044 1889 
Q 2863 2041 2497 2041 
L 1791 2041 
L 1791 819 
L 2497 819 
z
M 3616 2497 
Q 4003 2384 4215 2081 
Q 4428 1778 4428 1338 
Q 4428 663 3972 331 
Q 3516 0 2584 0 
L 588 0 
L 588 4666 
L 2394 4666 
Q 3366 4666 3802 4372 
Q 4238 4078 4238 3431 
Q 4238 3091 4078 2852 
Q 3919 2613 3616 2497 
z
" transform="scale(0.015625)"/>
      <path id="DejaVuSans-Bold-6c" d="M 538 4863 
L 1656 4863 
L 1656 0 
L 538 0 
L 538 4863 
z
" transform="scale(0.015625)"/>
      <path id="DejaVuSans-Bold-69" d="M 538 3500 
L 1656 3500 
L 1656 0 
L 538 0 
L 538 3500 
z
M 538 4863 
L 1656 4863 
L 1656 3950 
L 538 3950 
L 538 4863 
z
" transform="scale(0.015625)"/>
      <path id="DejaVuSans-Bold-6e" d="M 4056 2131 
L 4056 0 
L 2931 0 
L 2931 347 
L 2931 1631 
Q 2931 2084 2911 2256 
Q 2891 2428 2841 2509 
Q 2775 2619 2662 2680 
Q 2550 2741 2406 2741 
Q 2056 2741 1856 2470 
Q 1656 2200 1656 1722 
L 1656 0 
L 538 0 
L 538 3500 
L 1656 3500 
L 1656 2988 
Q 1909 3294 2193 3439 
Q 2478 3584 2822 3584 
Q 3428 3584 3742 3212 
Q 4056 2841 4056 2131 
z
" transform="scale(0.015625)"/>
      <path id="DejaVuSans-Bold-3a" d="M 716 3500 
L 1844 3500 
L 1844 2291 
L 716 2291 
L 716 3500 
z
M 716 1209 
L 1844 1209 
L 1844 0 
L 716 0 
L 716 1209 
z
" transform="scale(0.015625)"/>
      <path id="DejaVuSans-Bold-43" d="M 4288 256 
Q 3956 84 3597 -3 
Q 3238 -91 2847 -91 
Q 1681 -91 1000 561 
Q 319 1213 319 2328 
Q 319 3447 1000 4098 
Q 1681 4750 2847 4750 
Q 3238 4750 3597 4662 
Q 3956 4575 4288 4403 
L 4288 3438 
Q 3953 3666 3628 3772 
Q 3303 3878 2944 3878 
Q 2300 3878 1931 3465 
Q 1563 3053 1563 2328 
Q 1563 1606 1931 1193 
Q 2300 781 2944 781 
Q 3303 781 3628 887 
Q 3953 994 4288 1222 
L 4288 256 
z
" transform="scale(0.015625)"/>
      <path id="DejaVuSans-Bold-75" d="M 500 1363 
L 500 3500 
L 1625 3500 
L 1625 3150 
Q 1625 2866 1622 2436 
Q 1619 2006 1619 1863 
Q 1619 1441 1641 1255 
Q 1663 1069 1716 984 
Q 1784 875 1895 815 
Q 2006 756 2150 756 
Q 2500 756 2700 1025 
Q 2900 1294 2900 1772 
L 2900 3500 
L 4019 3500 
L 4019 0 
L 2900 0 
L 2900 506 
Q 2647 200 2364 54 
Q 2081 -91 1741 -91 
Q 1134 -91 817 281 
Q 500 653 500 1363 
z
" transform="scale(0.015625)"/>
      <path id="DejaVuSans-Bold-6d" d="M 3781 2919 
Q 3994 3244 4286 3414 
Q 4578 3584 4928 3584 
Q 5531 3584 5847 3212 
Q 6163 2841 6163 2131 
L 6163 0 
L 5038 0 
L 5038 1825 
Q 5041 1866 5042 1909 
Q 5044 1953 5044 2034 
Q 5044 2406 4934 2573 
Q 4825 2741 4581 2741 
Q 4263 2741 4089 2478 
Q 3916 2216 3909 1719 
L 3909 0 
L 2784 0 
L 2784 1825 
Q 2784 2406 2684 2573 
Q 2584 2741 2328 2741 
Q 2006 2741 1831 2477 
Q 1656 2213 1656 1722 
L 1656 0 
L 531 0 
L 531 3500 
L 1656 3500 
L 1656 2988 
Q 1863 3284 2130 3434 
Q 2397 3584 2719 3584 
Q 3081 3584 3359 3409 
Q 3638 3234 3781 2919 
z
" transform="scale(0.015625)"/>
      <path id="DejaVuSans-Bold-52" d="M 2297 2597 
Q 2675 2597 2839 2737 
Q 3003 2878 3003 3200 
Q 3003 3519 2839 3656 
Q 2675 3794 2297 3794 
L 1791 3794 
L 1791 2597 
L 2297 2597 
z
M 1791 1766 
L 1791 0 
L 588 0 
L 588 4666 
L 2425 4666 
Q 3347 4666 3776 4356 
Q 4206 4047 4206 3378 
Q 4206 2916 3982 2619 
Q 3759 2322 3309 2181 
Q 3556 2125 3751 1926 
Q 3947 1728 4147 1325 
L 4800 0 
L 3519 0 
L 2950 1159 
Q 2778 1509 2601 1637 
Q 2425 1766 2131 1766 
L 1791 1766 
z
" transform="scale(0.015625)"/>
     </defs>
     <use xlink:href="#DejaVuSans-Bold-53"/>
     <use xlink:href="#DejaVuSans-Bold-74" transform="translate(72.021484 0)"/>
     <use xlink:href="#DejaVuSans-Bold-72" transform="translate(119.824219 0)"/>
     <use xlink:href="#DejaVuSans-Bold-61" transform="translate(169.140625 0)"/>
     <use xlink:href="#DejaVuSans-Bold-74" transform="translate(236.621094 0)"/>
     <use xlink:href="#DejaVuSans-Bold-65" transform="translate(284.423828 0)"/>
     <use xlink:href="#DejaVuSans-Bold-67" transform="translate(352.246094 0)"/>
     <use xlink:href="#DejaVuSans-Bold-79" transform="translate(423.828125 0)"/>
     <use xlink:href="#DejaVuSans-Bold-20" transform="translate(489.013672 0)"/>
     <use xlink:href="#DejaVuSans-Bold-76" transform="translate(523.828125 0)"/>
     <use xlink:href="#DejaVuSans-Bold-73" transform="translate(589.013672 0)"/>
     <use xlink:href="#DejaVuSans-Bold-20" transform="translate(648.535156 0)"/>
     <use xlink:href="#DejaVuSans-Bold-42" transform="translate(683.349609 0)"/>
     <use xlink:href="#DejaVuSans-Bold-61" transform="translate(759.570312 0)"/>
     <use xlink:href="#DejaVuSans-Bold-73" transform="translate(827.050781 0)"/>
     <use xlink:href="#DejaVuSans-Bold-65" transform="translate(886.572266 0)"/>
     <use xlink:href="#DejaVuSans-Bold-6c" transform="translate(954.394531 0)"/>
     <use xlink:href="#DejaVuSans-Bold-69" transform="translate(988.671875 0)"/>
     <use xlink:href="#DejaVuSans-Bold-6e" transform="translate(1022.949219 0)"/>
     <use xlink:href="#DejaVuSans-Bold-65" transform="translate(1094.140625 0)"/>
     <use xlink:href="#DejaVuSans-Bold-3a" transform="translate(1161.962891 0)"/>
     <use xlink:href="#DejaVuSans-Bold-20" transform="translate(1201.953125 0)"/>
     <use xlink:href="#DejaVuSans-Bold-43" transform="translate(1236.767578 0)"/>
     <use xlink:href="#DejaVuSans-Bold-75" transform="translate(1310.15625 0)"/>
     <use xlink:href="#DejaVuSans-Bold-6d" transform="translate(1381.347656 0)"/>
     <use xlink:href="#DejaVuSans-Bold-75" transform="translate(1485.546875 0)"/>
     <use xlink:href="#DejaVuSans-Bold-6c" transform="translate(1556.738281 0)"/>
     <use xlink:href="#DejaVuSans-Bold-61" transform="translate(1591.015625 0)"/>
     <use xlink:href="#DejaVuSans-Bold-74" transform="translate(1658.496094 0)"/>
     <use xlink:href="#DejaVuSans-Bold-69" transform="translate(1706.298828 0)"/>
     <use xlink:href="#DejaVuSans-Bold-76" transform="translate(1740.576172 0)"/>
     <use xlink:href="#DejaVuSans-Bold-65" transform="translate(1805.761719 0)"/>
     <use xlink:href="#DejaVuSans-Bold-20" transform="translate(1873.583984 0)"/>
     <use xlink:href="#DejaVuSans-Bold-52" transform="translate(1908.398438 0)"/>
     <use xlink:href="#DejaVuSans-Bold-65" transform="translate(1985.400391 0)"/>
     <use xlink:href="#DejaVuSans-Bold-74" transform="translate(2053.222656 0)"/>
     <use xlink:href="#DejaVuSans-Bold-75" transform="translate(2101.025391 0)"/>
     <use xlink:href="#DejaVuSans-Bold-72" transform="translate(2172.216797 0)"/>
     <use xlink:href="#DejaVuSans-Bold-6e" transform="translate(2221.533203 0)"/>
    </g>
   </g>
   <g id="legend_1">
    <g id="line2d_40">
     <path d="M 57.982813 56.176406 
L 67.982813 56.176406 
L 77.982813 56.176406 
" style="fill: none; stroke: #1f6feb; stroke-width: 2; stroke-linecap: square"/>
    </g>
    <g id="text_23">
     <!-- Strategy -->
     <g transform="translate(85.982813 59.676406) scale(0.1 -0.1)">
      <use xlink:href="#DejaVuSans-53"/>
      <use xlink:href="#DejaVuSans-74" transform="translate(63.476562 0)"/>
      <use xlink:href="#DejaVuSans-72" transform="translate(102.685547 0)"/>
      <use xlink:href="#DejaVuSans-61" transform="translate(143.798828 0)"/>
      <use xlink:href="#DejaVuSans-74" transform="translate(205.078125 0)"/>
      <use xlink:href="#DejaVuSans-65" transform="translate(244.287109 0)"/>
      <use xlink:href="#DejaVuSans-67" transform="translate(305.810547 0)"/>
      <use xlink:href="#DejaVuSans-79" transform="translate(369.287109 0)"/>
     </g>
    </g>
    <g id="line2d_41">
     <path d="M 57.982813 70.854531 
L 67.982813 70.854531 
L 77.982813 70.854531 
" style="fill: none; stroke-dasharray: 6.66,2.88; stroke-dashoffset: 0; stroke: #8b949e; stroke-width: 1.8"/>
    </g>
    <g id="text_24">
     <!-- Baseline (buy &amp; hold) -->
     <g transform="translate(85.982813 74.354531) scale(0.1 -0.1)">
      <defs>
       <path id="DejaVuSans-42" d="M 1259 2228 
L 1259 519 
L 2272 519 
Q 2781 519 3026 730 
Q 3272 941 3272 1375 
Q 3272 1813 3026 2020 
Q 2781 2228 2272 2228 
L 1259 2228 
z
M 1259 4147 
L 1259 2741 
L 2194 2741 
Q 2656 2741 2882 2914 
Q 3109 3088 3109 3444 
Q 3109 3797 2882 3972 
Q 2656 4147 2194 4147 
L 1259 4147 
z
M 628 4666 
L 2241 4666 
Q 2963 4666 3353 4366 
Q 3744 4066 3744 3513 
Q 3744 3084 3544 2831 
Q 3344 2578 2956 2516 
Q 3422 2416 3680 2098 
Q 3938 1781 3938 1306 
Q 3938 681 3513 340 
Q 3088 0 2303 0 
L 628 0 
L 628 4666 
z
" transform="scale(0.015625)"/>
       <path id="DejaVuSans-26" d="M 1556 2509 
Q 1272 2256 1139 2004 
Q 1006 1753 1006 1478 
Q 1006 1022 1337 719 
Q 1669 416 2169 416 
Q 2466 416 2725 514 
Q 2984 613 3213 813 
L 1556 2509 
z
M 1997 2859 
L 3584 1234 
Q 3769 1513 3872 1830 
Q 3975 2147 3994 2503 
L 4575 2503 
Q 4538 2091 4375 1687 
Q 4213 1284 3922 891 
L 4794 0 
L 4006 0 
L 3559 459 
Q 3234 181 2878 45 
Q 2522 -91 2113 -91 
Q 1359 -91 881 339 
Q 403 769 403 1441 
Q 403 1841 612 2192 
Q 822 2544 1241 2853 
Q 1091 3050 1012 3245 
Q 934 3441 934 3628 
Q 934 4134 1281 4442 
Q 1628 4750 2203 4750 
Q 2463 4750 2720 4694 
Q 2978 4638 3244 4525 
L 3244 3956 
Q 2972 4103 2725 4179 
Q 2478 4256 2266 4256 
Q 1938 4256 1733 4082 
Q 1528 3909 1528 3634 
Q 1528 3475 1620 3314 
Q 1713 3153 1997 2859 
z
" transform="scale(0.015625)"/>
      </defs>
      <use xlink:href="#DejaVuSans-42"/>
      <use xlink:href="#DejaVuSans-61" transform="translate(68.603516 0)"/>
      <use xlink:href="#DejaVuSans-73" transform="translate(129.882812 0)"/>
      <use xlink:href="#DejaVuSans-65" transform="translate(181.982422 0)"/>
      <use xlink:href="#DejaVuSans-6c" transform="translate(243.505859 0)"/>
      <use xlink:href="#DejaVuSans-69" transform="translate(271.289062 0)"/>
      <use xlink:href="#DejaVuSans-6e" transform="translate(299.072266 0)"/>
      <use xlink:href="#DejaVuSans-65" transform="translate(362.451172 0)"/>
      <use xlink:href="#DejaVuSans-20" transform="translate(423.974609 0)"/>
      <use xlink:href="#DejaVuSans-28" transform="translate(455.761719 0)"/>
      <use xlink:href="#DejaVuSans-62" transform="translate(494.775391 0)"/>
      <use xlink:href="#DejaVuSans-75" transform="translate(558.251953 0)"/>
      <use xlink:href="#DejaVuSans-79" transform="translate(621.630859 0)"/>
      <use xlink:href="#DejaVuSans-20" transform="translate(680.810547 0)"/>
      <use xlink:href="#DejaVuSans-26" transform="translate(712.597656 0)"/>
      <use xlink:href="#DejaVuSans-20" transform="translate(790.576172 0)"/>
      <use xlink:href="#DejaVuSans-68" transform="translate(822.363281 0)"/>
      <use xlink:href="#DejaVuSans-6f" transform="translate(885.742188 0)"/>
      <use xlink:href="#DejaVuSans-6c" transform="translate(946.923828 0)"/>
      <use xlink:href="#DejaVuSans-64" transform="translate(974.707031 0)"/>
      <use xlink:href="#DejaVuSans-29" transform="translate(1038.183594 0)"/>
     </g>
    </g>
   </g>
  </g>
 </g>
 <defs>
  <clipPath id="peccdc7cff7">
   <rect x="48.982813" y="43.077969" width="446.4" height="232.848"/>
  </clipPath>
 </defs>
</svg>
