<?xml version="1.0" encoding="utf-8" standalone="no"?>
<!DOCTYPE svg PUBLIC "-//W3C//DTD SVG 1.1//EN"
  "http://www.w3.org/Graphics/SVG/1.1/DTD/svg11.dtd">
<svg xmlns:xlink="http://www.w3.org/1999/xlink" width="520.978959pt" height="299.804094pt" viewBox="0 0 520.978959 299.804094" xmlns="http://www.w3.org/2000/svg" version="1.1">
 <metadata>
  <rdf:RDF xmlns:dc="http://purl.org/dc/elements/1.1/" xmlns:cc="http://creativecommons.org/ns#" xmlns:rdf="http://www.w3.org/1999/02/22-rdf-syntax-ns#">
   <cc:Work>
    <dc:type rdf:resource="http://purl.org/dc/dcmitype/StillImage"/>
    <dc:date>2026-06-14T11:31:08.427598</dc:date>
    <dc:format>image/svg+xml</dc:format>
    <dc:creator>
     <cc:Agent>
      <dc:title>Matplotlib v3.10.5, https://matplotlib.org/</dc:title>
     </cc:Agent>
    </dc:creator>
   </cc:Work>
  </rdf:RDF>
 </metadata>
 <defs>
  <style type="text/css">*{stroke-linejoin: round; stroke-linecap: butt}</style>
 </defs>
 <g id="figure_1">
  <g id="patch_1">
   <path d="M 0 299.804094 
L 520.978959 299.804094 
L 520.978959 -0 
L 0 -0 
z
" style="fill: #ffffff"/>
  </g>
  <g id="axes_1">
   <g id="patch_2">
    <path d="M 48.982813 275.925969 
L 495.382812 275.925969 
L 495.382812 43.077969 
L 48.982813 43.077969 
z
" style="fill: #ffffff"/>
   </g>
   <g id="matplotlib.axis_1">
    <g id="xtick_1">
     <g id="line2d_1">
      <path d="M 69.273722 275.925969 
L 69.273722 43.077969 
" clip-path="url(#p4cc25cf2ab)" style="fill: none; stroke: #b0b0b0; stroke-opacity: 0.25; stroke-width: 0.8; stroke-linecap: square"/>
     </g>
     <g id="line2d_2">
      <defs>
       <path id="mec46d0986a" d="M 0 0 
L 0 3.5 
" style="stroke: #000000; stroke-width: 0.8"/>
      </defs>
      <g>
       <use xlink:href="#mec46d0986a" x="69.273722" y="275.925969" style="stroke: #000000; stroke-width: 0.8"/>
      </g>
     </g>
     <g id="text_1">
      <!-- 2021-01 -->
      <g transform="translate(48.382315 290.524406) scale(0.1 -0.1)">
       <defs>
        <path id="DejaVuSans-32" d="M 1228 531 
L 3431 531 
L 3431 0 
L 469 0 
L 469 531 
Q 828 903 1448 1529 
Q 2069 2156 2228 2338 
Q 2531 2678 2651 2914 
Q 2772 3150 2772 3378 
Q 2772 3750 2511 3984 
Q 2250 4219 1831 4219 
Q 1534 4219 1204 4116 
Q 875 4013 500 3803 
L 500 4441 
Q 881 4594 1212 4672 
Q 1544 4750 1819 4750 
Q 2544 4750 2975 4387 
Q 3406 4025 3406 3419 
Q 3406 3131 3298 2873 
Q 3191 2616 2906 2266 
Q 2828 2175 2409 1742 
Q 1991 1309 1228 531 
z
" transform="scale(0.015625)"/>
        <path id="DejaVuSans-30" d="M 2034 4250 
Q 1547 4250 1301 3770 
Q 1056 3291 1056 2328 
Q 1056 1369 1301 889 
Q 1547 409 2034 409 
Q 2525 409 2770 889 
Q 3016 1369 3016 2328 
Q 3016 3291 2770 3770 
Q 2525 4250 2034 4250 
z
M 2034 4750 
Q 2819 4750 3233 4129 
Q 3647 3509 3647 2328 
Q 3647 1150 3233 529 
Q 2819 -91 2034 -91 
Q 1250 -91 836 529 
Q 422 1150 422 2328 
Q 422 3509 836 4129 
Q 1250 4750 2034 4750 
z
" transform="scale(0.015625)"/>
        <path id="DejaVuSans-31" d="M 794 531 
L 1825 531 
L 1825 4091 
L 703 3866 
L 703 4441 
L 1819 4666 
L 2450 4666 
L 2450 531 
L 3481 531 
L 3481 0 
L 794 0 
L 794 531 
z
" transform="scale(0.015625)"/>
        <path id="DejaVuSans-2d" d="M 313 2009 
L 1997 2009 
L 1997 1497 
L 313 1497 
L 313 2009 
z
" transform="scale(0.015625)"/>
       </defs>
       <use xlink:href="#DejaVuSans-32"/>
       <use xlink:href="#DejaVuSans-30" transform="translate(63.623047 0)"/>
       <use xlink:href="#DejaVuSans-32" transform="translate(127.246094 0)"/>
       <use xlink:href="#DejaVuSans-31" transform="translate(190.869141 0)"/>
       <use xlink:href="#DejaVuSans-2d" transform="translate(254.492188 0)"/>
       <use xlink:href="#DejaVuSans-30" transform="translate(290.576172 0)"/>
       <use xlink:href="#DejaVuSans-31" transform="translate(354.199219 0)"/>
      </g>
     </g>
    </g>
    <g id="xtick_2">
     <g id="line2d_3">
      <path d="M 115.697155 275.925969 
L 115.697155 43.077969 
" clip-path="url(#p4cc25cf2ab)" style="fill: none; stroke: #b0b0b0; stroke-opacity: 0.25; stroke-width: 0.8; stroke-linecap: square"/>
     </g>
     <g id="line2d_4">
      <g>
       <use xlink:href="#mec46d0986a" x="115.697155" y="275.925969" style="stroke: #000000; stroke-width: 0.8"/>
      </g>
     </g>
     <g id="text_2">
      <!-- 2021-05 -->
      <g transform="translate(94.805749 290.524406) scale(0.1 -0.1)">
       <defs>
        <path id="DejaVuSans-35" d="M 691 4666 
L 3169 4666 
L 3169 4134 
L 1269 4134 
L 1269 2991 
Q 1406 3038 1543 3061 
Q 1681 3084 1819 3084 
Q 2600 3084 3056 2656 
Q 3513 2228 3513 1497 
Q 3513 744 3044 326 
Q 2575 -91 1722 -91 
Q 1428 -91 1123 -41 
Q 819 9 494 109 
L 494 744 
Q 775 591 1075 516 
Q 1375 441 1709 441 
Q 2250 441 2565 725 
Q 2881 1009 2881 1497 
Q 2881 1984 2565 2268 
Q 2250 2553 1709 2553 
Q 1456 2553 1204 2497 
Q 953 2441 691 2322 
L 691 4666 
z
" transform="scale(0.015625)"/>
       </defs>
       <use xlink:href="#DejaVuSans-32"/>
       <use xlink:href="#DejaVuSans-30" transform="translate(63.623047 0)"/>
       <use xlink:href="#DejaVuSans-32" transform="translate(127.246094 0)"/>
       <use xlink:href="#DejaVuSans-31" transform="translate(190.869141 0)"/>
       <use xlink:href="#DejaVuSans-2d" transform="translate(254.492188 0)"/>
       <use xlink:href="#DejaVuSans-30" transform="translate(290.576172 0)"/>
       <use xlink:href="#DejaVuSans-35" transform="translate(354.199219 0)"/>
      </g>
     </g>
    </g>
    <g id="xtick_3">
     <g id="line2d_5">
      <path d="M 163.281175 275.925969 
L 163.281175 43.077969 
" clip-path="url(#p4cc25cf2ab)" style="fill: none; stroke: #b0b0b0; stroke-opacity: 0.25; stroke-width: 0.8; stroke-linecap: square"/>
     </g>
     <g id="line2d_6">
      <g>
       <use xlink:href="#mec46d0986a" x="163.281175" y="275.925969" style="stroke: #000000; stroke-width: 0.8"/>
      </g>
     </g>
     <g id="text_3">
      <!-- 2021-09 -->
      <g transform="translate(142.389768 290.524406) scale(0.1 -0.1)">
       <defs>
        <path id="DejaVuSans-39" d="M 703 97 
L 703 672 
Q 941 559 1184 500 
Q 1428 441 1663 441 
Q 2288 441 2617 861 
Q 2947 1281 2994 2138 
Q 2813 1869 2534 1725 
Q 2256 1581 1919 1581 
Q 1219 1581 811 2004 
Q 403 2428 403 3163 
Q 403 3881 828 4315 
Q 1253 4750 1959 4750 
Q 2769 4750 3195 4129 
Q 3622 3509 3622 2328 
Q 3622 1225 3098 567 
Q 2575 -91 1691 -91 
Q 1453 -91 1209 -44 
Q 966 3 703 97 
z
M 1959 2075 
Q 2384 2075 2632 2365 
Q 2881 2656 2881 3163 
Q 2881 3666 2632 3958 
Q 2384 4250 1959 4250 
Q 1534 4250 1286 3958 
Q 1038 3666 1038 3163 
Q 1038 2656 1286 2365 
Q 1534 2075 1959 2075 
z
" transform="scale(0.015625)"/>
       </defs>
       <use xlink:href="#DejaVuSans-32"/>
       <use xlink:href="#DejaVuSans-30" transform="translate(63.623047 0)"/>
       <use xlink:href="#DejaVuSans-32" transform="translate(127.246094 0)"/>
       <use xlink:href="#DejaVuSans-31" transform="translate(190.869141 0)"/>
       <use xlink:href="#DejaVuSans-2d" transform="translate(254.492188 0)"/>
       <use xlink:href="#DejaVuSans-30" transform="translate(290.576172 0)"/>
       <use xlink:href="#DejaVuSans-39" transform="translate(354.199219 0)"/>
      </g>
     </g>
    </g>
    <g id="xtick_4">
     <g id="line2d_7">
      <path d="M 210.478332 275.925969 
L 210.478332 43.077969 
" clip-path="url(#p4cc25cf2ab)" style="fill: none; stroke: #b0b0b0; stroke-opacity: 0.25; stroke-width: 0.8; stroke-linecap: square"/>
     </g>
     <g id="line2d_8">
      <g>
       <use xlink:href="#mec46d0986a" x="210.478332" y="275.925969" style="stroke: #000000; stroke-width: 0.8"/>
      </g>
     </g>
     <g id="text_4">
      <!-- 2022-01 -->
      <g transform="translate(189.586926 290.524406) scale(0.1 -0.1)">
       <use xlink:href="#DejaVuSans-32"/>
       <use xlink:href="#DejaVuSans-30" transform="translate(63.623047 0)"/>
       <use xlink:href="#DejaVuSans-32" transform="translate(127.246094 0)"/>
       <use xlink:href="#DejaVuSans-32" transform="translate(190.869141 0)"/>
       <use xlink:href="#DejaVuSans-2d" transform="translate(254.492188 0)"/>
       <use xlink:href="#DejaVuSans-30" transform="translate(290.576172 0)"/>
       <use xlink:href="#DejaVuSans-31" transform="translate(354.199219 0)"/>
      </g>
     </g>
    </g>
    <g id="xtick_5">
     <g id="line2d_9">
      <path d="M 256.901766 275.925969 
L 256.901766 43.077969 
" clip-path="url(#p4cc25cf2ab)" style="fill: none; stroke: #b0b0b0; stroke-opacity: 0.25; stroke-width: 0.8; stroke-linecap: square"/>
     </g>
     <g id="line2d_10">
      <g>
       <use xlink:href="#mec46d0986a" x="256.901766" y="275.925969" style="stroke: #000000; stroke-width: 0.8"/>
      </g>
     </g>
     <g id="text_5">
      <!-- 2022-05 -->
      <g transform="translate(236.010359 290.524406) scale(0.1 -0.1)">
       <use xlink:href="#DejaVuSans-32"/>
       <use xlink:href="#DejaVuSans-30" transform="translate(63.623047 0)"/>
       <use xlink:href="#DejaVuSans-32" transform="translate(127.246094 0)"/>
       <use xlink:href="#DejaVuSans-32" transform="translate(190.869141 0)"/>
       <use xlink:href="#DejaVuSans-2d" transform="translate(254.492188 0)"/>
       <use xlink:href="#DejaVuSans-30" transform="translate(290.576172 0)"/>
       <use xlink:href="#DejaVuSans-35" transform="translate(354.199219 0)"/>
      </g>
     </g>
    </g>
    <g id="xtick_6">
     <g id="line2d_11">
      <path d="M 304.485785 275.925969 
L 304.485785 43.077969 
" clip-path="url(#p4cc25cf2ab)" style="fill: none; stroke: #b0b0b0; stroke-opacity: 0.25; stroke-width: 0.8; stroke-linecap: square"/>
     </g>
     <g id="line2d_12">
      <g>
       <use xlink:href="#mec46d0986a" x="304.485785" y="275.925969" style="stroke: #000000; stroke-width: 0.8"/>
      </g>
     </g>
     <g id="text_6">
      <!-- 2022-09 -->
      <g transform="translate(283.594379 290.524406) scale(0.1 -0.1)">
       <use xlink:href="#DejaVuSans-32"/>
       <use xlink:href="#DejaVuSans-30" transform="translate(63.623047 0)"/>
       <use xlink:href="#DejaVuSans-32" transform="translate(127.246094 0)"/>
       <use xlink:href="#DejaVuSans-32" transform="translate(190.869141 0)"/>
       <use xlink:href="#DejaVuSans-2d" transform="translate(254.492188 0)"/>
       <use xlink:href="#DejaVuSans-30" transform="translate(290.576172 0)"/>
       <use xlink:href="#DejaVuSans-39" transform="translate(354.199219 0)"/>
      </g>
     </g>
    </g>
    <g id="xtick_7">
     <g id="line2d_13">
      <path d="M 351.682942 275.925969 
L 351.682942 43.077969 
" clip-path="url(#p4cc25cf2ab)" style="fill: none; stroke: #b0b0b0; stroke-opacity: 0.25; stroke-width: 0.8; stroke-linecap: square"/>
     </g>
     <g id="line2d_14">
      <g>
       <use xlink:href="#mec46d0986a" x="351.682942" y="275.925969" style="stroke: #000000; stroke-width: 0.8"/>
      </g>
     </g>
     <g id="text_7">
      <!-- 2023-01 -->
      <g transform="translate(330.791536 290.524406) scale(0.1 -0.1)">
       <defs>
        <path id="DejaVuSans-33" d="M 2597 2516 
Q 3050 2419 3304 2112 
Q 3559 1806 3559 1356 
Q 3559 666 3084 287 
Q 2609 -91 1734 -91 
Q 1441 -91 1130 -33 
Q 819 25 488 141 
L 488 750 
Q 750 597 1062 519 
Q 1375 441 1716 441 
Q 2309 441 2620 675 
Q 2931 909 2931 1356 
Q 2931 1769 2642 2001 
Q 2353 2234 1838 2234 
L 1294 2234 
L 1294 2753 
L 1863 2753 
Q 2328 2753 2575 2939 
Q 2822 3125 2822 3475 
Q 2822 3834 2567 4026 
Q 2313 4219 1838 4219 
Q 1578 4219 1281 4162 
Q 984 4106 628 3988 
L 628 4550 
Q 988 4650 1302 4700 
Q 1616 4750 1894 4750 
Q 2613 4750 3031 4423 
Q 3450 4097 3450 3541 
Q 3450 3153 3228 2886 
Q 3006 2619 2597 2516 
z
" transform="scale(0.015625)"/>
       </defs>
       <use xlink:href="#DejaVuSans-32"/>
       <use xlink:href="#DejaVuSans-30" transform="translate(63.623047 0)"/>
       <use xlink:href="#DejaVuSans-32" transform="translate(127.246094 0)"/>
       <use xlink:href="#DejaVuSans-33" transform="translate(190.869141 0)"/>
       <use xlink:href="#DejaVuSans-2d" transform="translate(254.492188 0)"/>
       <use xlink:href="#DejaVuSans-30" transform="translate(290.576172 0)"/>
       <use xlink:href="#DejaVuSans-31" transform="translate(354.199219 0)"/>
      </g>
     </g>
    </g>
    <g id="xtick_8">
     <g id="line2d_15">
      <path d="M 398.106376 275.925969 
L 398.106376 43.077969 
" clip-path="url(#p4cc25cf2ab)" style="fill: none; stroke: #b0b0b0; stroke-opacity: 0.25; stroke-width: 0.8; stroke-linecap: square"/>
     </g>
     <g id="line2d_16">
      <g>
       <use xlink:href="#mec46d0986a" x="398.106376" y="275.925969" style="stroke: #000000; stroke-width: 0.8"/>
      </g>
     </g>
     <g id="text_8">
      <!-- 2023-05 -->
      <g transform="translate(377.21497 290.524406) scale(0.1 -0.1)">
       <use xlink:href="#DejaVuSans-32"/>
       <use xlink:href="#DejaVuSans-30" transform="translate(63.623047 0)"/>
       <use xlink:href="#DejaVuSans-32" transform="translate(127.246094 0)"/>
       <use xlink:href="#DejaVuSans-33" transform="translate(190.869141 0)"/>
       <use xlink:href="#DejaVuSans-2d" transform="translate(254.492188 0)"/>
       <use xlink:href="#DejaVuSans-30" transform="translate(290.576172 0)"/>
       <use xlink:href="#DejaVuSans-35" transform="translate(354.199219 0)"/>
      </g>
     </g>
    </g>
    <g id="xtick_9">
     <g id="line2d_17">
      <path d="M 445.690395 275.925969 
L 445.690395 43.077969 
" clip-path="url(#p4cc25cf2ab)" style="fill: none; stroke: #b0b0b0; stroke-opacity: 0.25; stroke-width: 0.8; stroke-linecap: square"/>
     </g>
     <g id="line2d_18">
      <g>
       <use xlink:href="#mec46d0986a" x="445.690395" y="275.925969" style="stroke: #000000; stroke-width: 0.8"/>
      </g>
     </g>
     <g id="text_9">
      <!-- 2023-09 -->
      <g transform="translate(424.798989 290.524406) scale(0.1 -0.1)">
       <use xlink:href="#DejaVuSans-32"/>
       <use xlink:href="#DejaVuSans-30" transform="translate(63.623047 0)"/>
       <use xlink:href="#DejaVuSans-32" transform="translate(127.246094 0)"/>
       <use xlink:href="#DejaVuSans-33" transform="translate(190.869141 0)"/>
       <use xlink:href="#DejaVuSans-2d" transform="translate(254.492188 0)"/>
       <use xlink:href="#DejaVuSans-30" transform="translate(290.576172 0)"/>
       <use xlink:href="#DejaVuSans-39" transform="translate(354.199219 0)"/>
      </g>
     </g>
    </g>
    <g id="xtick_10">
     <g id="line2d_19">
      <path d="M 492.887553 275.925969 
L 492.887553 43.077969 
" clip-path="url(#p4cc25cf2ab)" style="fill: none; stroke: #b0b0b0; stroke-opacity: 0.25; stroke-width: 0.8; stroke-linecap: square"/>
     </g>
     <g id="line2d_20">
      <g>
       <use xlink:href="#mec46d0986a" x="492.887553" y="275.925969" style="stroke: #000000; stroke-width: 0.8"/>
      </g>
     </g>
     <g id="text_10">
      <!-- 2024-01 -->
      <g transform="translate(471.996147 290.524406) scale(0.1 -0.1)">
       <defs>
        <path id="DejaVuSans-34" d="M 2419 4116 
L 825 1625 
L 2419 1625 
L 2419 4116 
z
M 2253 4666 
L 3047 4666 
L 3047 1625 
L 3713 1625 
L 3713 1100 
L 3047 1100 
L 3047 0 
L 2419 0 
L 2419 1100 
L 313 1100 
L 313 1709 
L 2253 4666 
z
" transform="scale(0.015625)"/>
       </defs>
       <use xlink:href="#DejaVuSans-32"/>
       <use xlink:href="#DejaVuSans-30" transform="translate(63.623047 0)"/>
       <use xlink:href="#DejaVuSans-32" transform="translate(127.246094 0)"/>
       <use xlink:href="#DejaVuSans-34" transform="translate(190.869141 0)"/>
       <use xlink:href="#DejaVuSans-2d" transform="translate(254.492188 0)"/>
       <use xlink:href="#DejaVuSans-30" transform="translate(290.576172 0)"/>
       <use xlink:href="#DejaVuSans-31" transform="translate(354.199219 0)"/>
      </g>
     </g>
    </g>
   </g>
   <g id="matplotlib.axis_2">
    <g id="ytick_1">
     <g id="line2d_21">
      <path d="M 48.982813 241.029432 
L 495.382812 241.029432 
" clip-path="url(#p4cc25cf2ab)" style="fill: none; stroke: #b0b0b0; stroke-opacity: 0.25; stroke-width: 0.8; stroke-linecap: square"/>
     </g>
     <g id="line2d_22">
      <defs>
       <path id="m3ddfd927bf" d="M 0 0 
L -3.5 0 
" style="stroke: #000000; stroke-width: 0.8"/>
      </defs>
      <g>
       <use xlink:href="#m3ddfd927bf" x="48.982813" y="241.029432" style="stroke: #000000; stroke-width: 0.8"/>
      </g>
     </g>
     <g id="text_11">
      <!-- −20 -->
      <g transform="translate(20.878125 244.828651) scale(0.1 -0.1)">
       <defs>
        <path id="DejaVuSans-2212" d="M 678 2272 
L 4684 2272 
L 4684 1741 
L 678 1741 
L 678 2272 
z
" transform="scale(0.015625)"/>
       </defs>
       <use xlink:href="#DejaVuSans-2212"/>
       <use xlink:href="#DejaVuSans-32" transform="translate(83.789062 0)"/>
       <use xlink:href="#DejaVuSans-30" transform="translate(147.412109 0)"/>
      </g>
     </g>
    </g>
    <g id="ytick_2">
     <g id="line2d_23">
      <path d="M 48.982813 192.580671 
L 495.382812 192.580671 
" clip-path="url(#p4cc25cf2ab)" style="fill: none; stroke: #b0b0b0; stroke-opacity: 0.25; stroke-width: 0.8; stroke-linecap: square"/>
     </g>
     <g id="line2d_24">
      <g>
       <use xlink:href="#m3ddfd927bf" x="48.982813" y="192.580671" style="stroke: #000000; stroke-width: 0.8"/>
      </g>
     </g>
     <g id="text_12">
      <!-- −10 -->
      <g transform="translate(20.878125 196.379889) scale(0.1 -0.1)">
       <use xlink:href="#DejaVuSans-2212"/>
       <use xlink:href="#DejaVuSans-31" transform="translate(83.789062 0)"/>
       <use xlink:href="#DejaVuSans-30" transform="translate(147.412109 0)"/>
      </g>
     </g>
    </g>
    <g id="ytick_3">
     <g id="line2d_25">
      <path d="M 48.982813 144.131909 
L 495.382812 144.131909 
" clip-path="url(#p4cc25cf2ab)" style="fill: none; stroke: #b0b0b0; stroke-opacity: 0.25; stroke-width: 0.8; stroke-linecap: square"/>
     </g>
     <g id="line2d_26">
      <g>
       <use xlink:href="#m3ddfd927bf" x="48.982813" y="144.131909" style="stroke: #000000; stroke-width: 0.8"/>
      </g>
     </g>
     <g id="text_13">
      <!-- 0 -->
      <g transform="translate(35.620313 147.931128) scale(0.1 -0.1)">
       <use xlink:href="#DejaVuSans-30"/>
      </g>
     </g>
    </g>
    <g id="ytick_4">
     <g id="line2d_27">
      <path d="M 48.982813 95.683148 
L 495.382812 95.683148 
" clip-path="url(#p4cc25cf2ab)" style="fill: none; stroke: #b0b0b0; stroke-opacity: 0.25; stroke-width: 0.8; stroke-linecap: square"/>
     </g>
     <g id="line2d_28">
      <g>
       <use xlink:href="#m3ddfd927bf" x="48.982813" y="95.683148" style="stroke: #000000; stroke-width: 0.8"/>
      </g>
     </g>
     <g id="text_14">
      <!-- 10 -->
      <g transform="translate(29.257813 99.482366) scale(0.1 -0.1)">
       <use xlink:href="#DejaVuSans-31"/>
       <use xlink:href="#DejaVuSans-30" transform="translate(63.623047 0)"/>
      </g>
     </g>
    </g>
    <g id="ytick_5">
     <g id="line2d_29">
      <path d="M 48.982813 47.234386 
L 495.382812 47.234386 
" clip-path="url(#p4cc25cf2ab)" style="fill: none; stroke: #b0b0b0; stroke-opacity: 0.25; stroke-width: 0.8; stroke-linecap: square"/>
     </g>
     <g id="line2d_30">
      <g>
       <use xlink:href="#m3ddfd927bf" x="48.982813" y="47.234386" style="stroke: #000000; stroke-width: 0.8"/>
      </g>
     </g>
     <g id="text_15">
      <!-- 20 -->
      <g transform="translate(29.257813 51.033605) scale(0.1 -0.1)">
       <use xlink:href="#DejaVuSans-32"/>
       <use xlink:href="#DejaVuSans-30" transform="translate(63.623047 0)"/>
      </g>
     </g>
    </g>
    <g id="text_16">
     <!-- Cumulative return (%) -->
     <g transform="translate(14.798438 215.155094) rotate(-90) scale(0.1 -0.1)">
      <defs>
       <path id="DejaVuSans-43" d="M 4122 4306 
L 4122 3641 
Q 3803 3938 3442 4084 
Q 3081 4231 2675 4231 
Q 1875 4231 1450 3742 
Q 1025 3253 1025 2328 
Q 1025 1406 1450 917 
Q 1875 428 2675 428 
Q 3081 428 3442 575 
Q 3803 722 4122 1019 
L 4122 359 
Q 3791 134 3420 21 
Q 3050 -91 2638 -91 
Q 1578 -91 968 557 
Q 359 1206 359 2328 
Q 359 3453 968 4101 
Q 1578 4750 2638 4750 
Q 3056 4750 3426 4639 
Q 3797 4528 4122 4306 
z
" transform="scale(0.015625)"/>
       <path id="DejaVuSans-75" d="M 544 1381 
L 544 3500 
L 1119 3500 
L 1119 1403 
Q 1119 906 1312 657 
Q 1506 409 1894 409 
Q 2359 409 2629 706 
Q 2900 1003 2900 1516 
L 2900 3500 
L 3475 3500 
L 3475 0 
L 2900 0 
L 2900 538 
Q 2691 219 2414 64 
Q 2138 -91 1772 -91 
Q 1169 -91 856 284 
Q 544 659 544 1381 
z
M 1991 3584 
L 1991 3584 
z
" transform="scale(0.015625)"/>
       <path id="DejaVuSans-6d" d="M 3328 2828 
Q 3544 3216 3844 3400 
Q 4144 3584 4550 3584 
Q 5097 3584 5394 3201 
Q 5691 2819 5691 2113 
L 5691 0 
L 5113 0 
L 5113 2094 
Q 5113 2597 4934 2840 
Q 4756 3084 4391 3084 
Q 3944 3084 3684 2787 
Q 3425 2491 3425 1978 
L 3425 0 
L 2847 0 
L 2847 2094 
Q 2847 2600 2669 2842 
Q 2491 3084 2119 3084 
Q 1678 3084 1418 2786 
Q 1159 2488 1159 1978 
L 1159 0 
L 581 0 
L 581 3500 
L 1159 3500 
L 1159 2956 
Q 1356 3278 1631 3431 
Q 1906 3584 2284 3584 
Q 2666 3584 2933 3390 
Q 3200 3197 3328 2828 
z
" transform="scale(0.015625)"/>
       <path id="DejaVuSans-6c" d="M 603 4863 
L 1178 4863 
L 1178 0 
L 603 0 
L 603 4863 
z
" transform="scale(0.015625)"/>
       <path id="DejaVuSans-61" d="M 2194 1759 
Q 1497 1759 1228 1600 
Q 959 1441 959 1056 
Q 959 750 1161 570 
Q 1363 391 1709 391 
Q 2188 391 2477 730 
Q 2766 1069 2766 1631 
L 2766 1759 
L 2194 1759 
z
M 3341 1997 
L 3341 0 
L 2766 0 
L 2766 531 
Q 2569 213 2275 61 
Q 1981 -91 1556 -91 
Q 1019 -91 701 211 
Q 384 513 384 1019 
Q 384 1609 779 1909 
Q 1175 2209 1959 2209 
L 2766 2209 
L 2766 2266 
Q 2766 2663 2505 2880 
Q 2244 3097 1772 3097 
Q 1472 3097 1187 3025 
Q 903 2953 641 2809 
L 641 3341 
Q 956 3463 1253 3523 
Q 1550 3584 1831 3584 
Q 2591 3584 2966 3190 
Q 3341 2797 3341 1997 
z
" transform="scale(0.015625)"/>
       <path id="DejaVuSans-74" d="M 1172 4494 
L 1172 3500 
L 2356 3500 
L 2356 3053 
L 1172 3053 
L 1172 1153 
Q 1172 725 1289 603 
Q 1406 481 1766 481 
L 2356 481 
L 2356 0 
L 1766 0 
Q 1100 0 847 248 
Q 594 497 594 1153 
L 594 3053 
L 172 3053 
L 172 3500 
L 594 3500 
L 594 4494 
L 1172 4494 
z
" transform="scale(0.015625)"/>
       <path id="DejaVuSans-69" d="M 603 3500 
L 1178 3500 
L 1178 0 
L 603 0 
L 603 3500 
z
M 603 4863 
L 1178 4863 
L 1178 4134 
L 603 4134 
L 603 4863 
z
" transform="scale(0.015625)"/>
       <path id="DejaVuSans-76" d="M 191 3500 
L 800 3500 
L 1894 563 
L 2988 3500 
L 3597 3500 
L 2284 0 
L 1503 0 
L 191 3500 
z
" transform="scale(0.015625)"/>
       <path id="DejaVuSans-65" d="M 3597 1894 
L 3597 1613 
L 953 1613 
Q 991 1019 1311 708 
Q 1631 397 2203 397 
Q 2534 397 2845 478 
Q 3156 559 3463 722 
L 3463 178 
Q 3153 47 2828 -22 
Q 2503 -91 2169 -91 
Q 1331 -91 842 396 
Q 353 884 353 1716 
Q 353 2575 817 3079 
Q 1281 3584 2069 3584 
Q 2775 3584 3186 3129 
Q 3597 2675 3597 1894 
z
M 3022 2063 
Q 3016 2534 2758 2815 
Q 2500 3097 2075 3097 
Q 1594 3097 1305 2825 
Q 1016 2553 972 2059 
L 3022 2063 
z
" transform="scale(0.015625)"/>
       <path id="DejaVuSans-20" transform="scale(0.015625)"/>
       <path id="DejaVuSans-72" d="M 2631 2963 
Q 2534 3019 2420 3045 
Q 2306 3072 2169 3072 
Q 1681 3072 1420 2755 
Q 1159 2438 1159 1844 
L 1159 0 
L 581 0 
L 581 3500 
L 1159 3500 
L 1159 2956 
Q 1341 3275 1631 3429 
Q 1922 3584 2338 3584 
Q 2397 3584 2469 3576 
Q 2541 3569 2628 3553 
L 2631 2963 
z
" transform="scale(0.015625)"/>
       <path id="DejaVuSans-6e" d="M 3513 2113 
L 3513 0 
L 2938 0 
L 2938 2094 
Q 2938 2591 2744 2837 
Q 2550 3084 2163 3084 
Q 1697 3084 1428 2787 
Q 1159 2491 1159 1978 
L 1159 0 
L 581 0 
L 581 3500 
L 1159 3500 
L 1159 2956 
Q 1366 3272 1645 3428 
Q 1925 3584 2291 3584 
Q 2894 3584 3203 3211 
Q 3513 2838 3513 2113 
z
" transform="scale(0.015625)"/>
       <path id="DejaVuSans-28" d="M 1984 4856 
Q 1566 4138 1362 3434 
Q 1159 2731 1159 2009 
Q 1159 1288 1364 580 
Q 1569 -128 1984 -844 
L 1484 -844 
Q 1016 -109 783 600 
Q 550 1309 550 2009 
Q 550 2706 781 3412 
Q 1013 4119 1484 4856 
L 1984 4856 
z
" transform="scale(0.015625)"/>
       <path id="DejaVuSans-25" d="M 4653 2053 
Q 4381 2053 4226 1822 
Q 4072 1591 4072 1178 
Q 4072 772 4226 539 
Q 4381 306 4653 306 
Q 4919 306 5073 539 
Q 5228 772 5228 1178 
Q 5228 1588 5073 1820 
Q 4919 2053 4653 2053 
z
M 4653 2450 
Q 5147 2450 5437 2106 
Q 5728 1763 5728 1178 
Q 5728 594 5436 251 
Q 5144 -91 4653 -91 
Q 4153 -91 3862 251 
Q 3572 594 3572 1178 
Q 3572 1766 3864 2108 
Q 4156 2450 4653 2450 
z
M 1428 4353 
Q 1159 4353 1004 4120 
Q 850 3888 850 3481 
Q 850 3069 1003 2837 
Q 1156 2606 1428 2606 
Q 1700 2606 1854 2837 
Q 2009 3069 2009 3481 
Q 2009 3884 1853 4118 
Q 1697 4353 1428 4353 
z
M 4250 4750 
L 4750 4750 
L 1831 -91 
L 1331 -91 
L 4250 4750 
z
M 1428 4750 
Q 1922 4750 2215 4408 
Q 2509 4066 2509 3481 
Q 2509 2891 2217 2550 
Q 1925 2209 1428 2209 
Q 931 2209 642 2551 
Q 353 2894 353 3481 
Q 353 4063 643 4406 
Q 934 4750 1428 4750 
z
" transform="scale(0.015625)"/>
       <path id="DejaVuSans-29" d="M 513 4856 
L 1013 4856 
Q 1481 4119 1714 3412 
Q 1947 2706 1947 2009 
Q 1947 1309 1714 600 
Q 1481 -109 1013 -844 
L 513 -844 
Q 928 -128 1133 580 
Q 1338 1288 1338 2009 
Q 1338 2731 1133 3434 
Q 928 4138 513 4856 
z
" transform="scale(0.015625)"/>
      </defs>
      <use xlink:href="#DejaVuSans-43"/>
      <use xlink:href="#DejaVuSans-75" transform="translate(69.824219 0)"/>
      <use xlink:href="#DejaVuSans-6d" transform="translate(133.203125 0)"/>
      <use xlink:href="#DejaVuSans-75" transform="translate(230.615234 0)"/>
      <use xlink:href="#DejaVuSans-6c" transform="translate(293.994141 0)"/>
      <use xlink:href="#DejaVuSans-61" transform="translate(321.777344 0)"/>
      <use xlink:href="#DejaVuSans-74" transform="translate(383.056641 0)"/>
      <use xlink:href="#DejaVuSans-69" transform="translate(422.265625 0)"/>
      <use xlink:href="#DejaVuSans-76" transform="translate(450.048828 0)"/>
      <use xlink:href="#DejaVuSans-65" transform="translate(509.228516 0)"/>
      <use xlink:href="#DejaVuSans-20" transform="translate(570.751953 0)"/>
      <use xlink:href="#DejaVuSans-72" transform="translate(602.539062 0)"/>
      <use xlink:href="#DejaVuSans-65" transform="translate(641.402344 0)"/>
      <use xlink:href="#DejaVuSans-74" transform="translate(702.925781 0)"/>
      <use xlink:href="#DejaVuSans-75" transform="translate(742.134766 0)"/>
      <use xlink:href="#DejaVuSans-72" transform="translate(805.513672 0)"/>
      <use xlink:href="#DejaVuSans-6e" transform="translate(844.876953 0)"/>
      <use xlink:href="#DejaVuSans-20" transform="translate(908.255859 0)"/>
      <use xlink:href="#DejaVuSans-28" transform="translate(940.042969 0)"/>
      <use xlink:href="#DejaVuSans-25" transform="translate(979.056641 0)"/>
      <use xlink:href="#DejaVuSans-29" transform="translate(1074.076172 0)"/>
     </g>
    </g>
   </g>
   <g id="line2d_31">
    <path d="M 69.273722 144.131909 
L 108.73364 144.131909 
L 109.120502 141.619852 
L 109.507364 140.689228 
L 109.894226 136.53112 
L 111.054812 137.023209 
L 114.149707 137.023209 
L 114.536569 139.663706 
L 114.923431 146.533748 
L 115.310293 143.611359 
L 116.470879 146.23918 
L 116.857741 146.070351 
L 117.631465 140.475662 
L 118.018327 140.963806 
L 120.339499 140.963806 
L 120.72636 149.750808 
L 121.886946 157.197323 
L 122.273808 162.712021 
L 122.66067 160.377918 
L 123.047532 165.345527 
L 123.434394 167.350834 
L 124.59498 160.009248 
L 124.981842 161.915028 
L 125.368704 157.672094 
L 125.755566 162.825717 
L 126.142428 163.879663 
L 127.689876 170.830172 
L 128.076737 166.098114 
L 128.463599 175.495894 
L 128.850461 173.036447 
L 130.011047 171.643506 
L 130.397909 174.799311 
L 130.784771 182.51717 
L 131.171633 182.04157 
L 131.558495 184.781333 
L 132.719081 183.45133 
L 133.105943 183.245514 
L 133.492805 174.51121 
L 133.879667 175.723089 
L 134.266529 181.162047 
L 135.427114 180.108699 
L 135.813976 178.833135 
L 136.200838 171.345407 
L 136.5877 171.802681 
L 140.843182 171.802681 
L 141.230044 168.672352 
L 141.616906 169.1323 
L 142.003768 169.1323 
L 142.390629 175.066757 
L 143.551215 173.266141 
L 143.938077 168.571307 
L 144.324939 157.320825 
L 144.711801 157.792124 
L 152.062178 157.792124 
L 152.44904 160.908928 
L 152.835902 161.117195 
L 153.222764 150.997589 
L 154.38335 151.475211 
L 155.930798 151.475211 
L 157.091383 155.992177 
L 157.478245 143.668034 
L 157.865107 144.152986 
L 163.281175 144.152986 
L 163.668037 151.914764 
L 164.054898 150.830911 
L 165.215484 141.59353 
L 165.602346 142.080556 
L 185.332306 142.080556 
L 185.719167 136.578664 
L 186.879753 137.070705 
L 190.361511 137.070705 
L 190.748373 136.929776 
L 191.135235 137.421466 
L 197.711888 137.421466 
L 198.09875 138.772485 
L 198.485612 144.881153 
L 198.872474 147.848588 
L 199.259336 152.785739 
L 200.419921 153.228606 
L 201.193645 171.090571 
L 201.580507 159.155752 
L 201.967369 166.260331 
L 203.127955 172.214496 
L 203.514817 161.948951 
L 203.901679 145.296893 
L 204.288541 145.780216 
L 230.982015 145.780216 
L 231.368877 144.261922 
L 231.755739 144.74628 
L 234.463773 144.74628 
L 235.624359 147.071877 
L 236.011221 139.402738 
L 236.398082 139.891955 
L 258.062351 139.891955 
L 258.449213 131.548027 
L 258.836075 132.045098 
L 282.047792 132.045098 
L 282.434654 129.696809 
L 282.821516 130.195732 
L 290.945617 130.195732 
L 291.332479 139.382923 
L 292.879927 156.560678 
L 293.266789 152.200934 
L 293.653651 153.731874 
L 294.040512 152.508186 
L 295.201098 146.147788 
L 295.58796 138.301321 
L 295.974822 138.791639 
L 298.682856 138.791639 
L 299.069718 144.377203 
L 299.45658 146.356699 
L 300.617166 141.586338 
L 301.004028 131.325473 
L 301.390889 131.822767 
L 301.777751 129.872332 
L 302.164613 130.371079 
L 303.325199 127.922794 
L 303.712061 128.423491 
L 304.098923 128.423491 
L 304.485785 123.219401 
L 304.872647 126.774965 
L 306.033233 129.880168 
L 306.420095 136.143096 
L 306.806957 139.896851 
L 307.193819 137.282703 
L 307.580681 138.299175 
L 308.741266 136.263099 
L 309.128128 134.021204 
L 309.51499 126.01989 
L 309.901852 126.522489 
L 310.288714 126.522489 
L 311.4493 120.451321 
L 311.836162 120.959489 
L 342.398256 120.959489 
L 342.785118 124.666425 
L 343.945704 109.710703 
L 344.332566 110.229612 
L 344.719427 110.229612 
L 345.106289 107.74253 
L 345.493151 108.263407 
L 346.653737 110.533312 
L 347.040599 109.810737 
L 347.427461 110.242832 
L 347.814323 105.195518 
L 348.201185 102.921159 
L 349.361771 103.446857 
L 362.901939 103.446857 
L 363.288801 102.303542 
L 363.675663 102.829858 
L 364.062525 102.829858 
L 364.449387 104.254095 
L 365.609973 102.867594 
L 365.996835 109.088228 
L 366.770558 100.268311 
L 367.15742 100.796662 
L 371.799764 100.796662 
L 372.186626 106.819645 
L 372.573488 107.157748 
L 373.734073 104.956959 
L 374.120935 104.530679 
L 374.507797 109.219265 
L 374.894659 103.47316 
L 375.281521 103.998306 
L 377.989555 103.998306 
L 379.150141 104.84587 
L 379.537003 103.091213 
L 379.923865 103.616742 
L 380.310727 102.839111 
L 380.697588 111.835112 
L 381.858174 103.377044 
L 382.245036 95.345492 
L 382.631898 95.878766 
L 383.405622 95.878766 
L 384.566208 103.647766 
L 384.95307 105.39058 
L 385.339932 111.975796 
L 385.726794 107.423466 
L 386.113656 94.673989 
L 387.274242 95.207934 
L 387.661104 100.969427 
L 388.047965 99.370667 
L 388.434827 88.931012 
L 388.821689 89.4707 
L 389.982275 88.288065 
L 390.369137 76.238345 
L 390.755999 76.790726 
L 391.142861 76.790726 
L 391.529723 80.03072 
L 392.690309 83.33806 
L 393.077171 77.884758 
L 393.464033 76.174878 
L 393.850895 87.709097 
L 394.237757 84.244375 
L 395.398342 87.895972 
L 395.785204 79.453108 
L 396.558928 87.504924 
L 396.94579 83.870781 
L 398.106376 78.75068 
L 398.493238 79.300549 
L 398.8801 79.300549 
L 399.266962 76.181177 
L 399.653824 76.733616 
L 400.81441 75.614453 
L 401.201272 84.873452 
L 401.588134 81.844064 
L 401.974996 87.002563 
L 402.361857 95.168416 
L 403.909305 88.80101 
L 404.296167 92.656445 
L 404.683029 83.132279 
L 405.069891 85.900577 
L 406.230477 85.582835 
L 406.617339 83.718677 
L 407.004201 87.647343 
L 407.391063 84.471403 
L 407.777925 85.015551 
L 408.938511 88.129557 
L 409.325373 79.109076 
L 409.712234 79.658587 
L 410.099096 95.767253 
L 410.485958 85.257686 
L 411.646544 68.266267 
L 412.033406 68.82662 
L 412.420268 68.82662 
L 413.193992 73.156312 
L 414.354578 74.309968 
L 414.74144 81.557252 
L 415.515164 74.039307 
L 415.902026 83.786923 
L 417.062611 79.086454 
L 417.449473 65.269485 
L 417.836335 65.832835 
L 420.931231 65.832835 
L 421.318093 53.661969 
L 422.478679 54.236926 
L 429.442194 54.236926 
L 430.60278 65.727441 
L 430.989642 62.348542 
L 431.376503 65.776873 
L 431.763365 82.726422 
L 432.150227 77.450621 
L 433.310813 75.535607 
L 433.697675 80.143679 
L 434.084537 88.634569 
L 434.471399 83.082337 
L 434.858261 80.680955 
L 436.018847 64.675833 
L 436.405709 65.239777 
L 446.850981 65.239777 
L 447.624705 78.136327 
L 448.011567 79.35334 
L 448.398429 71.857019 
L 449.559015 73.380864 
L 449.945877 80.097038 
L 450.332739 80.362159 
L 450.719601 73.304866 
L 451.106463 79.660721 
L 452.267049 85.517876 
L 452.653911 81.756101 
L 453.040772 83.098877 
L 453.427634 78.733807 
L 453.814496 78.713879 
L 454.975082 73.953224 
L 455.748806 75.031533 
L 456.135668 76.318942 
L 456.52253 84.210014 
L 457.683116 94.221992 
L 458.069978 89.698524 
L 458.45684 91.856037 
L 458.843702 98.294432 
L 459.230564 98.800198 
L 460.391149 91.472266 
L 460.778011 105.869478 
L 461.164873 115.07139 
L 461.551735 120.625784 
L 461.938597 111.536593 
L 463.099183 109.676387 
L 463.486045 104.771233 
L 464.259769 118.581255 
L 464.646631 115.730485 
L 465.807217 115.26904 
L 466.194079 111.774183 
L 466.580941 112.833689 
L 466.967803 111.00575 
L 467.354664 109.918952 
L 468.51525 104.950426 
L 468.902112 105.474095 
L 469.675836 105.474095 
L 470.062698 99.564683 
L 471.223284 91.86289 
L 471.610146 92.399647 
L 471.997008 104.665792 
L 472.38387 103.93782 
L 472.770732 97.938114 
L 473.931318 86.257893 
L 474.31818 86.800255 
L 475.091903 86.800255 
L 475.091903 86.800255 
" clip-path="url(#p4cc25cf2ab)" style="fill: none; stroke: #1f6feb; stroke-width: 2; stroke-linecap: square"/>
   </g>
   <g id="line2d_32">
    <path d="M 69.273722 144.131909 
L 70.434307 150.044945 
L 71.208031 140.039023 
L 71.594893 151.249545 
L 71.981755 158.55702 
L 73.142341 157.741184 
L 73.529203 159.430911 
L 73.916065 159.431668 
L 74.302927 164.117133 
L 74.689789 159.095493 
L 75.850375 154.597879 
L 76.237237 154.127241 
L 76.624099 147.569027 
L 77.010961 144.765934 
L 77.397822 149.633773 
L 78.558408 147.413328 
L 78.94527 152.823487 
L 79.332132 147.685223 
L 79.718994 147.877131 
L 80.105856 148.846458 
L 81.266442 152.655601 
L 81.653304 145.524895 
L 82.040166 146.323443 
L 82.81389 150.62816 
L 83.974476 147.468897 
L 84.748199 142.760506 
L 85.135061 140.144498 
L 85.521923 127.327849 
L 86.682509 129.666906 
L 87.069371 132.625328 
L 87.456233 137.34703 
L 87.843095 133.603217 
L 88.229957 126.750904 
L 89.390543 127.336428 
L 90.164267 137.053948 
L 90.937991 128.562813 
L 92.098576 125.192197 
L 92.485438 129.096721 
L 92.8723 127.602949 
L 93.259162 126.800565 
L 93.646024 125.381293 
L 95.193472 118.52096 
L 95.580334 114.245367 
L 95.967196 113.725098 
L 96.354058 111.832257 
L 97.514644 107.798336 
L 97.901506 116.723819 
L 98.288368 118.58172 
L 98.67523 121.351061 
L 99.062091 125.124493 
L 100.222677 126.683768 
L 100.609539 117.495928 
L 100.996401 122.677818 
L 101.383263 116.662442 
L 101.770125 126.79708 
L 102.930711 128.709695 
L 103.317573 127.632211 
L 104.091297 119.567528 
L 104.478159 114.595332 
L 105.638745 116.639489 
L 106.025607 119.370362 
L 106.412468 113.997283 
L 106.79933 115.074623 
L 107.186192 122.775064 
L 108.346778 129.507891 
L 108.73364 134.885797 
L 109.120502 131.832065 
L 109.507364 130.882738 
L 109.894226 126.641059 
L 111.054812 129.10824 
L 111.441674 128.056925 
L 111.828536 124.184142 
L 112.215398 125.952691 
L 112.60226 123.088761 
L 113.762845 126.988026 
L 114.536569 131.252476 
L 114.923431 138.240699 
L 115.310293 135.268037 
L 116.470879 137.941063 
L 116.857741 137.769331 
L 117.631465 132.078399 
L 118.018327 127.997721 
L 119.178913 128.489003 
L 119.565775 130.923486 
L 119.952637 131.299909 
L 120.72636 149.466724 
L 121.886946 156.917657 
L 122.273808 162.435626 
L 122.66067 160.100139 
L 123.047532 165.070694 
L 123.434394 167.077191 
L 124.59498 159.73125 
L 124.981842 161.63816 
L 125.368704 157.392709 
L 125.755566 162.54939 
L 126.142428 163.603961 
L 127.689876 170.558593 
L 128.076737 165.823728 
L 128.463599 175.227083 
L 128.850461 172.766177 
L 130.011047 171.37241 
L 130.397909 174.530087 
L 130.784771 182.252524 
L 131.171633 181.776643 
L 131.558495 184.518031 
L 132.719081 183.187238 
L 133.105943 182.9813 
L 133.492805 174.241814 
L 133.879667 175.454412 
L 134.266529 180.896597 
L 135.427114 179.842624 
L 135.813976 178.566304 
L 136.200838 171.074134 
L 136.5877 166.373427 
L 136.974562 164.29678 
L 138.135148 155.976917 
L 138.52201 162.578177 
L 138.908872 166.049782 
L 139.295734 171.073065 
L 139.682596 173.117249 
L 140.843182 180.49082 
L 141.230044 176.971897 
L 141.616906 178.084591 
L 142.003768 185.878085 
L 142.390629 191.153522 
L 143.551215 189.416771 
L 143.938077 184.888456 
L 144.324939 174.037009 
L 144.711801 157.766593 
L 145.098663 155.324601 
L 146.259249 160.817934 
L 146.646111 172.543417 
L 147.032973 170.984381 
L 147.419835 175.336394 
L 147.806697 177.499851 
L 148.967283 180.711686 
L 149.354145 181.378344 
L 149.741006 175.529984 
L 150.127868 174.584496 
L 150.51473 175.35734 
L 151.675316 180.866012 
L 152.062178 189.686564 
L 152.44904 192.153299 
L 152.835902 192.347654 
L 153.222764 182.904065 
L 154.38335 182.117445 
L 154.770212 176.730363 
L 155.157074 179.339936 
L 155.930798 190.608246 
L 157.091383 194.316742 
L 157.478245 182.991943 
L 157.865107 187.274498 
L 158.251969 182.722154 
L 158.638831 187.439202 
L 160.186279 180.234643 
L 160.573141 180.987142 
L 160.960003 181.116557 
L 161.346865 184.530203 
L 162.507451 182.057375 
L 162.894313 184.400037 
L 163.668037 197.374573 
L 164.054898 196.394079 
L 165.215484 188.037598 
L 165.602346 187.102618 
L 165.989208 187.642554 
L 166.37607 186.038937 
L 166.762932 178.958245 
L 167.923518 177.682734 
L 168.31038 179.811134 
L 168.697242 173.7223 
L 169.084104 171.284329 
L 169.470966 162.684746 
L 170.631552 161.565714 
L 171.405275 175.691631 
L 172.178999 156.785132 
L 173.339585 157.706304 
L 173.726447 159.772949 
L 174.113309 151.382672 
L 174.887033 162.523515 
L 176.047619 158.817414 
L 176.434481 160.943265 
L 176.821343 160.87847 
L 177.208205 161.701584 
L 177.595067 159.712541 
L 178.755652 151.630156 
L 179.142514 151.015867 
L 179.529376 147.214729 
L 179.916238 158.81983 
L 180.3031 159.00049 
L 181.463686 163.635506 
L 181.850548 170.295101 
L 182.23741 175.008774 
L 182.624272 176.733509 
L 183.011134 171.648127 
L 184.17172 178.77407 
L 184.558582 178.518675 
L 184.945444 181.036686 
L 185.332306 182.703987 
L 185.719167 177.215559 
L 186.879753 174.200363 
L 187.266615 166.756292 
L 187.653477 167.519614 
L 188.040339 171.262906 
L 188.427201 172.398622 
L 189.587787 170.977584 
L 189.974649 169.915136 
L 190.361511 175.754867 
L 190.748373 175.172164 
L 191.135235 173.83764 
L 192.295821 159.795437 
L 192.682683 149.020805 
L 193.069544 153.811372 
L 193.456406 155.351331 
L 193.843268 163.49697 
L 195.003854 166.689949 
L 195.390716 164.844439 
L 195.777578 157.990595 
L 197.711888 177.242161 
L 198.09875 178.032277 
L 198.485612 183.651354 
L 198.872474 186.380958 
L 199.259336 190.922411 
L 200.419921 191.329783 
L 201.193645 207.760165 
L 201.580507 196.781886 
L 201.967369 203.317054 
L 203.127955 208.79401 
L 203.514817 199.351218 
L 203.901679 184.033774 
L 204.288541 190.1527 
L 204.675403 191.998689 
L 205.835989 190.117762 
L 206.222851 180.836765 
L 206.609713 186.01975 
L 206.996575 187.232285 
L 207.383436 183.006626 
L 208.544022 180.586105 
L 208.930884 182.514701 
L 209.317746 183.141428 
L 209.704608 190.343314 
L 210.09147 191.506742 
L 211.252056 192.814656 
L 211.638918 191.511381 
L 212.02578 194.327703 
L 212.412642 191.775954 
L 212.799504 186.346339 
L 213.96009 185.432033 
L 214.346952 183.46833 
L 214.733813 183.095197 
L 215.120675 183.005632 
L 215.507537 186.759048 
L 216.668123 184.988984 
L 217.054985 185.417962 
L 217.828709 165.297218 
L 218.215571 163.053884 
L 219.376157 167.205191 
L 219.763019 173.232585 
L 220.149881 166.584274 
L 220.536743 165.032474 
L 220.923605 162.260442 
L 222.08419 171.830848 
L 222.471052 166.626344 
L 222.857914 164.00728 
L 223.244776 170.065549 
L 223.631638 172.561655 
L 225.179086 170.644836 
L 225.565948 172.156426 
L 225.95281 172.631748 
L 226.339672 173.917518 
L 227.500258 172.993193 
L 227.88712 164.783577 
L 228.273982 178.761952 
L 228.660844 179.948998 
L 229.047705 178.907707 
L 230.208291 177.217251 
L 230.595153 179.137472 
L 230.982015 188.425645 
L 231.368877 186.601257 
L 231.755739 177.253131 
L 232.916325 185.396504 
L 233.303187 180.68861 
L 233.690049 182.36177 
L 234.076911 182.600852 
L 234.463773 188.112657 
L 235.624359 189.78932 
L 236.011221 182.8005 
L 236.398082 179.582673 
L 236.784944 170.058812 
L 237.171806 163.440821 
L 238.332392 160.88977 
L 238.719254 150.902817 
L 239.106116 148.283547 
L 239.492978 143.390172 
L 239.87984 145.017251 
L 241.040426 144.534109 
L 241.427288 148.472536 
L 241.81415 142.639612 
L 242.201012 149.367001 
L 242.587874 144.74973 
L 243.748459 145.758905 
L 244.135321 138.826451 
L 244.522183 134.294408 
L 244.909045 123.274615 
L 245.295907 118.721639 
L 246.456493 128.150354 
L 246.843355 128.452265 
L 247.230217 135.338779 
L 247.617079 138.299094 
L 248.003941 129.226276 
L 249.164527 125.290408 
L 249.551389 129.394424 
L 249.938251 135.331866 
L 250.325113 135.03907 
L 250.711974 142.095077 
L 251.87256 145.90112 
L 252.259422 143.993464 
L 252.646284 137.129655 
L 253.033146 133.427079 
L 253.420008 146.760789 
L 254.967456 144.38575 
L 255.354318 141.877393 
L 255.74118 132.245862 
L 256.128042 144.28776 
L 257.288628 147.614895 
L 257.67549 144.095135 
L 258.062351 153.10918 
L 258.449213 144.515396 
L 258.836075 142.273524 
L 259.996661 137.209277 
L 260.383523 140.46696 
L 260.770385 135.578121 
L 261.157247 129.115921 
L 261.544109 127.617898 
L 262.704695 126.106198 
L 263.091557 124.372499 
L 263.478419 129.469783 
L 264.252143 131.064815 
L 265.412728 128.670448 
L 265.79959 122.534778 
L 266.186452 128.82268 
L 266.573314 129.472048 
L 266.960176 120.417496 
L 268.120762 124.831293 
L 268.507624 129.67795 
L 268.894486 128.36517 
L 269.281348 123.169434 
L 269.66821 122.999012 
L 270.828796 114.768216 
L 271.60252 103.976904 
L 271.989382 100.371083 
L 272.376243 85.299482 
L 273.536829 86.52705 
L 273.923691 99.298904 
L 274.310553 88.902276 
L 274.697415 91.751127 
L 275.084277 90.948142 
L 276.244863 82.322861 
L 277.405449 110.451297 
L 277.792311 115.263137 
L 278.952897 112.444472 
L 279.339759 109.08347 
L 279.72662 107.253936 
L 280.113482 115.915715 
L 280.500344 129.833563 
L 281.66093 129.408295 
L 282.047792 132.127212 
L 282.434654 129.282819 
L 282.821516 124.958197 
L 283.208378 124.021072 
L 284.755826 117.790419 
L 285.142688 114.427965 
L 285.52955 118.655695 
L 285.916412 119.651872 
L 287.076997 118.346576 
L 287.463859 113.194362 
L 287.850721 115.521338 
L 288.237583 112.199089 
L 288.624445 113.740914 
L 289.785031 114.3638 
L 290.171893 109.115328 
L 290.558755 121.291308 
L 291.332479 137.732371 
L 292.879927 154.968079 
L 293.266789 150.593626 
L 293.653651 152.129731 
L 294.040512 150.901915 
L 295.201098 144.520059 
L 295.58796 136.64712 
L 295.974822 136.956795 
L 296.361684 128.805538 
L 296.748546 128.152595 
L 297.909132 133.05739 
L 298.295994 136.481143 
L 298.682856 145.050773 
L 299.069718 150.081394 
L 299.45658 152.037573 
L 300.617166 147.323404 
L 301.004028 137.183409 
L 301.390889 145.170551 
L 301.777751 142.78907 
L 302.164613 148.721719 
L 303.325199 145.883707 
L 303.712061 146.546068 
L 304.098923 156.927807 
L 304.485785 151.548587 
L 304.872647 154.90485 
L 306.033233 157.835998 
L 306.420095 163.74787 
L 306.806957 167.291215 
L 307.193819 164.823598 
L 307.580681 165.783094 
L 308.741266 163.861146 
L 309.128128 161.744917 
L 309.51499 154.192099 
L 309.901852 156.045112 
L 310.288714 164.253574 
L 311.4493 158.17427 
L 311.836162 159.948192 
L 312.223024 153.542547 
L 312.609886 151.256445 
L 312.996748 151.911725 
L 314.157334 149.816623 
L 314.931058 125.903749 
L 315.31792 125.38439 
L 315.704781 124.315247 
L 316.865367 117.657795 
L 317.252229 122.715609 
L 317.639091 120.587947 
L 318.025953 120.644007 
L 318.412815 118.624918 
L 319.573401 123.59867 
L 320.733987 151.464945 
L 321.120849 153.989122 
L 322.281435 155.561478 
L 322.668297 144.338738 
L 323.055158 137.770401 
L 323.44202 143.307661 
L 323.828882 141.180988 
L 324.989468 143.459266 
L 325.37633 145.015278 
L 325.763192 143.841644 
L 326.150054 140.128616 
L 326.536916 142.015959 
L 327.697502 135.665468 
L 328.084364 142.277214 
L 328.471226 142.142932 
L 328.858088 126.639227 
L 329.24495 125.192971 
L 330.405535 116.357427 
L 330.792397 115.691955 
L 331.179259 112.001397 
L 331.566121 112.250036 
L 331.952983 113.201803 
L 333.113569 117.8983 
L 333.500431 115.151628 
L 333.887293 120.270096 
L 334.274155 116.091145 
L 334.661017 109.268746 
L 335.821603 106.875076 
L 336.208465 108.560184 
L 336.595327 105.614795 
L 336.982189 107.444236 
L 337.36905 101.454839 
L 338.529636 112.81074 
L 338.916498 114.781116 
L 339.690222 135.634715 
L 340.077084 127.399734 
L 341.23767 121.885161 
L 341.624532 126.140868 
L 342.011394 135.020684 
L 342.398256 152.176199 
L 342.785118 155.178747 
L 343.945704 141.128533 
L 344.332566 138.479839 
L 344.719427 141.662655 
L 345.106289 138.839423 
L 345.493151 147.832201 
L 346.653737 149.448711 
L 347.040599 148.780411 
L 347.427461 149.18005 
L 347.814323 144.511858 
L 348.201185 142.408335 
L 349.361771 138.395251 
L 349.748633 142.330805 
L 350.135495 136.964989 
L 350.522357 127.159672 
L 350.909219 132.864573 
L 352.069804 138.01939 
L 352.456666 129.992277 
L 352.843528 131.036368 
L 353.23039 122.481935 
L 353.617252 125.061917 
L 354.777838 116.089822 
L 355.1647 115.177821 
L 355.551562 113.48131 
L 355.938424 103.612387 
L 356.325286 105.782075 
L 357.485872 111.550101 
L 357.872734 114.223021 
L 358.259596 111.319831 
L 358.646458 120.847145 
L 359.033319 116.845625 
L 360.193905 120.041996 
L 360.580767 112.885373 
L 360.967629 127.39192 
L 361.354491 132.001331 
L 361.741353 141.853341 
L 362.901939 146.559259 
L 363.288801 145.027741 
L 363.675663 145.970173 
L 364.062525 147.339208 
L 364.449387 148.1616 
L 365.609973 146.891197 
L 365.996835 152.590949 
L 366.770558 144.509563 
L 367.15742 142.170299 
L 368.318006 138.812772 
L 368.704868 136.969099 
L 369.09173 124.713987 
L 369.478592 125.139673 
L 369.865454 126.891245 
L 371.02604 131.308136 
L 372.186626 149.557544 
L 372.573488 149.867954 
L 373.734073 147.847421 
L 374.120935 147.456055 
L 374.507797 151.760623 
L 375.281521 142.090865 
L 376.442107 142.924925 
L 376.828969 146.61908 
L 377.215831 143.339463 
L 377.602693 142.146304 
L 377.989555 150.431349 
L 379.150141 150.725709 
L 379.537003 149.124751 
L 379.923865 154.178815 
L 380.310727 153.001636 
L 380.697588 161.139365 
L 381.858174 153.488246 
L 382.245036 146.222952 
L 382.631898 147.586304 
L 383.01876 145.387082 
L 383.405622 159.067678 
L 384.95307 166.983294 
L 385.339932 172.79332 
L 385.726794 168.776876 
L 386.113656 157.528223 
L 387.274242 164.040094 
L 387.661104 168.593536 
L 388.047965 167.199675 
L 388.434827 158.097975 
L 388.821689 164.8567 
L 389.982275 163.375664 
L 390.369137 153.000442 
L 391.142861 169.264518 
L 391.529723 171.502208 
L 392.690309 174.258084 
L 393.077171 169.714064 
L 393.464033 168.289288 
L 393.850895 177.900296 
L 394.237757 175.01328 
L 395.398342 178.056011 
L 395.785204 171.020907 
L 396.558928 177.730166 
L 396.94579 174.701979 
L 398.106376 170.435602 
L 398.493238 167.873083 
L 398.8801 177.008743 
L 399.266962 173.992608 
L 399.653824 179.510613 
L 400.81441 178.150762 
L 401.201272 185.692989 
L 401.588134 183.2253 
L 401.974996 187.427327 
L 402.361857 194.079096 
L 403.909305 188.892313 
L 404.296167 192.032886 
L 404.683029 184.274658 
L 405.069891 186.529668 
L 406.230477 186.27084 
L 406.617339 184.752328 
L 407.004201 187.952555 
L 407.391063 185.365486 
L 407.777925 188.105789 
L 408.938511 190.188734 
L 409.325373 182.871565 
L 409.712234 188.314975 
L 410.099096 200.794931 
L 410.485958 192.35685 
L 411.646544 178.714519 
L 412.033406 180.807646 
L 412.420268 191.008181 
L 413.193992 193.956667 
L 414.354578 194.85943 
L 414.74144 200.530597 
L 415.515164 194.647631 
L 415.902026 202.275366 
L 417.062611 198.59714 
L 417.449473 187.785041 
L 417.836335 186.786072 
L 418.223197 188.482937 
L 418.610059 189.144422 
L 419.770645 185.799179 
L 420.157507 194.814106 
L 420.544369 193.870557 
L 420.931231 195.816286 
L 421.318093 186.023648 
L 422.478679 186.859397 
L 422.865541 177.8385 
L 423.252403 183.6807 
L 423.639265 180.444467 
L 424.026126 178.633415 
L 425.186712 183.212669 
L 425.573574 182.174218 
L 425.960436 175.540242 
L 426.347298 177.206993 
L 426.73416 186.191377 
L 427.894746 186.196134 
L 428.281608 190.873783 
L 428.66847 192.581195 
L 429.055332 192.92076 
L 429.442194 201.662539 
L 430.60278 209.77685 
L 430.989642 207.262643 
L 431.376503 209.813632 
L 431.763365 222.42563 
L 432.150227 218.499957 
L 433.310813 217.075013 
L 433.697675 220.503836 
L 434.084537 226.821827 
L 434.471399 222.690464 
L 434.858261 220.903618 
L 436.018847 208.994358 
L 436.792571 204.736915 
L 437.179433 205.500544 
L 437.566295 201.247567 
L 438.72688 197.943661 
L 439.113742 191.338332 
L 440.274328 198.550186 
L 441.434914 194.362723 
L 441.821776 186.395515 
L 442.5955 190.884749 
L 442.982362 189.14396 
L 444.142948 190.35048 
L 444.52981 185.226031 
L 444.916672 196.960364 
L 445.690395 205.046115 
L 447.237843 221.250729 
L 447.624705 225.619335 
L 448.011567 226.510291 
L 448.398429 221.022351 
L 449.559015 222.137934 
L 449.945877 227.054741 
L 450.332739 227.248832 
L 450.719601 222.082298 
L 451.106463 226.73532 
L 452.267049 231.023252 
L 452.653911 228.269315 
L 453.040772 229.252341 
L 453.427634 226.05674 
L 453.814496 226.042152 
L 454.975082 222.55695 
L 455.361944 227.489215 
L 455.748806 227.467159 
L 456.135668 228.400068 
L 456.52253 234.118259 
L 457.683116 241.373345 
L 458.069978 238.095457 
L 458.45684 239.658878 
L 458.843702 244.324401 
L 459.230564 244.6909 
L 460.391149 239.380782 
L 460.778011 249.813588 
L 461.164873 256.481667 
L 461.551735 260.506607 
L 461.938597 253.920209 
L 463.099183 252.572229 
L 463.486045 249.017755 
L 464.259769 259.025058 
L 464.646631 256.959274 
L 465.807217 256.624892 
L 466.194079 254.092377 
L 466.580941 254.860138 
L 466.967803 253.535539 
L 467.354664 252.748001 
L 468.51525 249.147605 
L 468.902112 245.378269 
L 469.288974 252.680773 
L 469.675836 262.610125 
L 470.062698 258.109701 
L 471.223284 252.71595 
L 471.610146 257.217469 
L 471.997008 265.341969 
L 472.38387 264.837237 
L 472.770732 260.677408 
L 474.31818 250.166354 
L 474.705041 251.775362 
L 475.091903 255.718076 
L 475.091903 255.718076 
" clip-path="url(#p4cc25cf2ab)" style="fill: none; stroke-dasharray: 6.66,2.88; stroke-dashoffset: 0; stroke: #8b949e; stroke-width: 1.8"/>
   </g>
   <g id="line2d_33">
    <path d="M 48.982813 144.131909 
L 495.382812 144.131909 
" clip-path="url(#p4cc25cf2ab)" style="fill: none; stroke: #d0d7de; stroke-linecap: square"/>
   </g>
   <g id="patch_3">
    <path d="M 48.982813 275.925969 
L 48.982813 43.077969 
" style="fill: none; stroke: #000000; stroke-width: 0.8; stroke-linejoin: miter; stroke-linecap: square"/>
   </g>
   <g id="patch_4">
    <path d="M 48.982813 275.925969 
L 495.382813 275.925969 
" style="fill: none; stroke: #000000; stroke-width: 0.8; stroke-linejoin: miter; stroke-linecap: square"/>
   </g>
   <g id="text_17">
    <!-- Does the rule add value over simply holding the series? -->
    <g style="fill: #57606a" transform="translate(146.556172 37.71353) scale(0.09 -0.09)">
     <defs>
      <path id="DejaVuSans-Oblique-44" d="M 1081 4666 
L 2438 4666 
Q 3519 4666 4070 4208 
Q 4622 3750 4622 2847 
Q 4622 2250 4412 1698 
Q 4203 1147 3834 769 
Q 3463 381 2891 190 
Q 2319 0 1538 0 
L 172 0 
L 1081 4666 
z
M 1613 4147 
L 909 519 
L 1734 519 
Q 2794 519 3375 1128 
Q 3956 1738 3956 2847 
Q 3956 3519 3581 3833 
Q 3206 4147 2406 4147 
L 1613 4147 
z
" transform="scale(0.015625)"/>
      <path id="DejaVuSans-Oblique-6f" d="M 1625 -91 
Q 1009 -91 651 289 
Q 294 669 294 1325 
Q 294 1706 417 2101 
Q 541 2497 738 2766 
Q 1047 3184 1428 3384 
Q 1809 3584 2291 3584 
Q 2888 3584 3255 3212 
Q 3622 2841 3622 2241 
Q 3622 1825 3500 1412 
Q 3378 1000 3181 728 
Q 2875 309 2494 109 
Q 2113 -91 1625 -91 
z
M 891 1344 
Q 891 869 1089 633 
Q 1288 397 1691 397 
Q 2269 397 2648 901 
Q 3028 1406 3028 2181 
Q 3028 2634 2825 2865 
Q 2622 3097 2228 3097 
Q 1903 3097 1650 2945 
Q 1397 2794 1197 2484 
Q 1050 2253 970 1956 
Q 891 1659 891 1344 
z
" transform="scale(0.015625)"/>
      <path id="DejaVuSans-Oblique-65" d="M 3078 2063 
Q 3088 2113 3092 2166 
Q 3097 2219 3097 2272 
Q 3097 2653 2873 2875 
Q 2650 3097 2266 3097 
Q 1838 3097 1509 2826 
Q 1181 2556 1013 2059 
L 3078 2063 
z
M 3578 1613 
L 903 1613 
Q 884 1494 878 1425 
Q 872 1356 872 1306 
Q 872 872 1139 634 
Q 1406 397 1894 397 
Q 2269 397 2603 481 
Q 2938 566 3225 728 
L 3116 159 
Q 2806 34 2476 -28 
Q 2147 -91 1806 -91 
Q 1078 -91 686 257 
Q 294 606 294 1247 
Q 294 1794 489 2264 
Q 684 2734 1063 3103 
Q 1306 3334 1642 3459 
Q 1978 3584 2356 3584 
Q 2950 3584 3301 3228 
Q 3653 2872 3653 2272 
Q 3653 2128 3634 1964 
Q 3616 1800 3578 1613 
z
" transform="scale(0.015625)"/>
      <path id="DejaVuSans-Oblique-73" d="M 3200 3397 
L 3091 2853 
Q 2863 2978 2609 3040 
Q 2356 3103 2088 3103 
Q 1634 3103 1373 2948 
Q 1113 2794 1113 2528 
Q 1113 2219 1719 2053 
Q 1766 2041 1788 2034 
L 1972 1978 
Q 2547 1819 2739 1644 
Q 2931 1469 2931 1166 
Q 2931 609 2489 259 
Q 2047 -91 1331 -91 
Q 1053 -91 747 -37 
Q 441 16 72 128 
L 184 722 
Q 500 559 806 475 
Q 1113 391 1394 391 
Q 1816 391 2080 572 
Q 2344 753 2344 1031 
Q 2344 1331 1650 1516 
L 1591 1531 
L 1394 1581 
Q 956 1697 753 1886 
Q 550 2075 550 2369 
Q 550 2928 970 3256 
Q 1391 3584 2113 3584 
Q 2397 3584 2667 3537 
Q 2938 3491 3200 3397 
z
" transform="scale(0.015625)"/>
      <path id="DejaVuSans-Oblique-20" transform="scale(0.015625)"/>
      <path id="DejaVuSans-Oblique-74" d="M 2706 3500 
L 2619 3053 
L 1472 3053 
L 1100 1153 
Q 1081 1047 1072 975 
Q 1063 903 1063 863 
Q 1063 663 1183 572 
Q 1303 481 1569 481 
L 2150 481 
L 2053 0 
L 1503 0 
Q 991 0 739 200 
Q 488 400 488 806 
Q 488 878 497 964 
Q 506 1050 525 1153 
L 897 3053 
L 409 3053 
L 500 3500 
L 978 3500 
L 1172 4494 
L 1747 4494 
L 1556 3500 
L 2706 3500 
z
" transform="scale(0.015625)"/>
      <path id="DejaVuSans-Oblique-68" d="M 3566 2113 
L 3156 0 
L 2578 0 
L 2988 2091 
Q 3016 2238 3031 2350 
Q 3047 2463 3047 2528 
Q 3047 2791 2881 2937 
Q 2716 3084 2419 3084 
Q 1956 3084 1617 2771 
Q 1278 2459 1178 1941 
L 800 0 
L 225 0 
L 1172 4863 
L 1747 4863 
L 1375 2950 
Q 1594 3244 1934 3414 
Q 2275 3584 2650 3584 
Q 3113 3584 3367 3334 
Q 3622 3084 3622 2631 
Q 3622 2519 3608 2391 
Q 3594 2263 3566 2113 
z
" transform="scale(0.015625)"/>
      <path id="DejaVuSans-Oblique-72" d="M 2853 2969 
Q 2766 3016 2653 3041 
Q 2541 3066 2413 3066 
Q 1953 3066 1609 2717 
Q 1266 2369 1153 1784 
L 800 0 
L 225 0 
L 909 3500 
L 1484 3500 
L 1375 2956 
Q 1603 3259 1920 3421 
Q 2238 3584 2597 3584 
Q 2691 3584 2781 3573 
Q 2872 3563 2963 3538 
L 2853 2969 
z
" transform="scale(0.015625)"/>
      <path id="DejaVuSans-Oblique-75" d="M 428 1388 
L 838 3500 
L 1416 3500 
L 1006 1409 
Q 975 1256 961 1147 
Q 947 1038 947 966 
Q 947 700 1109 554 
Q 1272 409 1569 409 
Q 2031 409 2368 721 
Q 2706 1034 2809 1563 
L 3194 3500 
L 3769 3500 
L 3091 0 
L 2516 0 
L 2631 550 
Q 2388 244 2052 76 
Q 1716 -91 1338 -91 
Q 878 -91 622 161 
Q 366 413 366 863 
Q 366 956 381 1097 
Q 397 1238 428 1388 
z
" transform="scale(0.015625)"/>
      <path id="DejaVuSans-Oblique-6c" d="M 1172 4863 
L 1747 4863 
L 800 0 
L 225 0 
L 1172 4863 
z
" transform="scale(0.015625)"/>
      <path id="DejaVuSans-Oblique-61" d="M 3438 1997 
L 3047 0 
L 2472 0 
L 2578 531 
Q 2325 219 2001 64 
Q 1678 -91 1281 -91 
Q 834 -91 548 182 
Q 263 456 263 884 
Q 263 1497 752 1853 
Q 1241 2209 2100 2209 
L 2900 2209 
L 2931 2363 
Q 2938 2388 2941 2417 
Q 2944 2447 2944 2509 
Q 2944 2788 2717 2942 
Q 2491 3097 2081 3097 
Q 1800 3097 1504 3025 
Q 1209 2953 897 2809 
L 997 3341 
Q 1322 3463 1633 3523 
Q 1944 3584 2234 3584 
Q 2853 3584 3176 3315 
Q 3500 3047 3500 2534 
Q 3500 2431 3484 2292 
Q 3469 2153 3438 1997 
z
M 2816 1759 
L 2241 1759 
Q 1534 1759 1195 1570 
Q 856 1381 856 984 
Q 856 709 1029 553 
Q 1203 397 1509 397 
Q 1978 397 2328 733 
Q 2678 1069 2791 1631 
L 2816 1759 
z
" transform="scale(0.015625)"/>
      <path id="DejaVuSans-Oblique-64" d="M 2675 525 
Q 2444 222 2128 65 
Q 1813 -91 1428 -91 
Q 903 -91 598 267 
Q 294 625 294 1247 
Q 294 1766 478 2236 
Q 663 2706 1013 3078 
Q 1244 3325 1534 3454 
Q 1825 3584 2144 3584 
Q 2481 3584 2739 3421 
Q 2997 3259 3138 2956 
L 3513 4863 
L 4091 4863 
L 3144 0 
L 2566 0 
L 2675 525 
z
M 891 1350 
Q 891 897 1095 644 
Q 1300 391 1663 391 
Q 1931 391 2161 520 
Q 2391 650 2566 903 
Q 2750 1166 2856 1509 
Q 2963 1853 2963 2188 
Q 2963 2622 2758 2865 
Q 2553 3109 2194 3109 
Q 1922 3109 1687 2981 
Q 1453 2853 1288 2613 
Q 1106 2353 998 2009 
Q 891 1666 891 1350 
z
" transform="scale(0.015625)"/>
      <path id="DejaVuSans-Oblique-76" d="M 459 3500 
L 1069 3500 
L 1581 525 
L 3256 3500 
L 3866 3500 
L 1875 0 
L 1100 0 
L 459 3500 
z
" transform="scale(0.015625)"/>
      <path id="DejaVuSans-Oblique-69" d="M 1172 4863 
L 1747 4863 
L 1606 4134 
L 1031 4134 
L 1172 4863 
z
M 909 3500 
L 1484 3500 
L 800 0 
L 225 0 
L 909 3500 
z
" transform="scale(0.015625)"/>
      <path id="DejaVuSans-Oblique-6d" d="M 5747 2113 
L 5338 0 
L 4763 0 
L 5166 2094 
Q 5191 2228 5203 2325 
Q 5216 2422 5216 2491 
Q 5216 2772 5059 2928 
Q 4903 3084 4622 3084 
Q 4203 3084 3875 2770 
Q 3547 2456 3450 1953 
L 3066 0 
L 2491 0 
L 2900 2094 
Q 2925 2209 2937 2307 
Q 2950 2406 2950 2484 
Q 2950 2769 2794 2926 
Q 2638 3084 2363 3084 
Q 1938 3084 1609 2770 
Q 1281 2456 1184 1953 
L 800 0 
L 225 0 
L 909 3500 
L 1484 3500 
L 1375 2956 
Q 1609 3263 1923 3423 
Q 2238 3584 2597 3584 
Q 2978 3584 3223 3384 
Q 3469 3184 3519 2828 
Q 3781 3197 4126 3390 
Q 4472 3584 4856 3584 
Q 5306 3584 5551 3325 
Q 5797 3066 5797 2591 
Q 5797 2488 5784 2364 
Q 5772 2241 5747 2113 
z
" transform="scale(0.015625)"/>
      <path id="DejaVuSans-Oblique-70" d="M 3175 2156 
Q 3175 2616 2975 2859 
Q 2775 3103 2400 3103 
Q 2144 3103 1911 2972 
Q 1678 2841 1497 2591 
Q 1319 2344 1212 1994 
Q 1106 1644 1106 1300 
Q 1106 863 1306 627 
Q 1506 391 1875 391 
Q 2147 391 2380 519 
Q 2613 647 2778 891 
Q 2956 1147 3065 1494 
Q 3175 1841 3175 2156 
z
M 1394 2969 
Q 1625 3272 1939 3428 
Q 2253 3584 2638 3584 
Q 3175 3584 3472 3232 
Q 3769 2881 3769 2247 
Q 3769 1728 3584 1258 
Q 3400 788 3053 416 
Q 2822 169 2531 39 
Q 2241 -91 1919 -91 
Q 1547 -91 1294 64 
Q 1041 219 916 525 
L 556 -1331 
L -19 -1331 
L 922 3500 
L 1497 3500 
L 1394 2969 
z
" transform="scale(0.015625)"/>
      <path id="DejaVuSans-Oblique-79" d="M 1588 -325 
Q 1188 -997 936 -1164 
Q 684 -1331 294 -1331 
L -159 -1331 
L -63 -850 
L 269 -850 
Q 509 -850 678 -719 
Q 847 -588 1056 -206 
L 1234 128 
L 459 3500 
L 1069 3500 
L 1650 819 
L 3256 3500 
L 3859 3500 
L 1588 -325 
z
" transform="scale(0.015625)"/>
      <path id="DejaVuSans-Oblique-6e" d="M 3566 2113 
L 3156 0 
L 2578 0 
L 2988 2091 
Q 3016 2238 3031 2350 
Q 3047 2463 3047 2528 
Q 3047 2791 2881 2937 
Q 2716 3084 2419 3084 
Q 1956 3084 1622 2776 
Q 1288 2469 1184 1941 
L 800 0 
L 225 0 
L 903 3500 
L 1478 3500 
L 1363 2950 
Q 1603 3253 1940 3418 
Q 2278 3584 2650 3584 
Q 3113 3584 3367 3334 
Q 3622 3084 3622 2631 
Q 3622 2519 3608 2391 
Q 3594 2263 3566 2113 
z
" transform="scale(0.015625)"/>
      <path id="DejaVuSans-Oblique-67" d="M 3816 3500 
L 3219 434 
Q 3047 -456 2561 -893 
Q 2075 -1331 1253 -1331 
Q 950 -1331 690 -1286 
Q 431 -1241 206 -1147 
L 313 -588 
Q 525 -725 762 -790 
Q 1000 -856 1269 -856 
Q 1816 -856 2167 -557 
Q 2519 -259 2631 300 
L 2681 563 
Q 2441 288 2122 144 
Q 1803 0 1434 0 
Q 903 0 598 351 
Q 294 703 294 1319 
Q 294 1803 478 2267 
Q 663 2731 997 3091 
Q 1219 3328 1514 3456 
Q 1809 3584 2131 3584 
Q 2484 3584 2746 3420 
Q 3009 3256 3138 2956 
L 3238 3500 
L 3816 3500 
z
M 2950 2216 
Q 2950 2641 2750 2872 
Q 2550 3103 2181 3103 
Q 1953 3103 1747 3012 
Q 1541 2922 1394 2759 
Q 1156 2491 1023 2127 
Q 891 1763 891 1375 
Q 891 944 1092 712 
Q 1294 481 1672 481 
Q 2219 481 2584 976 
Q 2950 1472 2950 2216 
z
" transform="scale(0.015625)"/>
      <path id="DejaVuSans-Oblique-3f" d="M 1594 794 
L 1441 0 
L 806 0 
L 959 794 
L 1594 794 
z
M 903 4397 
Q 1222 4575 1539 4662 
Q 1856 4750 2188 4750 
Q 2691 4750 2981 4515 
Q 3272 4281 3272 3878 
Q 3272 3556 3105 3275 
Q 2938 2994 2559 2688 
L 2234 2425 
Q 1972 2219 1884 2072 
Q 1797 1925 1741 1638 
L 1663 1253 
L 1069 1253 
L 1166 1734 
Q 1222 2028 1344 2233 
Q 1466 2438 1813 2725 
L 2144 3003 
Q 2406 3222 2512 3387 
Q 2619 3553 2619 3731 
Q 2619 3969 2448 4103 
Q 2278 4238 1978 4238 
Q 1728 4238 1420 4127 
Q 1113 4016 788 3809 
L 903 4397 
z
" transform="scale(0.015625)"/>
     </defs>
     <use xlink:href="#DejaVuSans-Oblique-44"/>
     <use xlink:href="#DejaVuSans-Oblique-6f" transform="translate(77.001953 0)"/>
     <use xlink:href="#DejaVuSans-Oblique-65" transform="translate(138.183594 0)"/>
     <use xlink:href="#DejaVuSans-Oblique-73" transform="translate(199.707031 0)"/>
     <use xlink:href="#DejaVuSans-Oblique-20" transform="translate(251.806641 0)"/>
     <use xlink:href="#DejaVuSans-Oblique-74" transform="translate(283.59375 0)"/>
     <use xlink:href="#DejaVuSans-Oblique-68" transform="translate(322.802734 0)"/>
     <use xlink:href="#DejaVuSans-Oblique-65" transform="translate(386.181641 0)"/>
     <use xlink:href="#DejaVuSans-Oblique-20" transform="translate(447.705078 0)"/>
     <use xlink:href="#DejaVuSans-Oblique-72" transform="translate(479.492188 0)"/>
     <use xlink:href="#DejaVuSans-Oblique-75" transform="translate(520.605469 0)"/>
     <use xlink:href="#DejaVuSans-Oblique-6c" transform="translate(583.984375 0)"/>
     <use xlink:href="#DejaVuSans-Oblique-65" transform="translate(611.767578 0)"/>
     <use xlink:href="#DejaVuSans-Oblique-20" transform="translate(673.291016 0)"/>
     <use xlink:href="#DejaVuSans-Oblique-61" transform="translate(705.078125 0)"/>
     <use xlink:href="#DejaVuSans-Oblique-64" transform="translate(766.357422 0)"/>
     <use xlink:href="#DejaVuSans-Oblique-64" transform="translate(829.833984 0)"/>
     <use xlink:href="#DejaVuSans-Oblique-20" transform="translate(893.310547 0)"/>
     <use xlink:href="#DejaVuSans-Oblique-76" transform="translate(925.097656 0)"/>
     <use xlink:href="#DejaVuSans-Oblique-61" transform="translate(984.277344 0)"/>
     <use xlink:href="#DejaVuSans-Oblique-6c" transform="translate(1045.556641 0)"/>
     <use xlink:href="#DejaVuSans-Oblique-75" transform="translate(1073.339844 0)"/>
     <use xlink:href="#DejaVuSans-Oblique-65" transform="translate(1136.71875 0)"/>
     <use xlink:href="#DejaVuSans-Oblique-20" transform="translate(1198.242188 0)"/>
     <use xlink:href="#DejaVuSans-Oblique-6f" transform="translate(1230.029297 0)"/>
     <use xlink:href="#DejaVuSans-Oblique-76" transform="translate(1291.210938 0)"/>
     <use xlink:href="#DejaVuSans-Oblique-65" transform="translate(1350.390625 0)"/>
     <use xlink:href="#DejaVuSans-Oblique-72" transform="translate(1411.914062 0)"/>
     <use xlink:href="#DejaVuSans-Oblique-20" transform="translate(1453.027344 0)"/>
     <use xlink:href="#DejaVuSans-Oblique-73" transform="translate(1484.814453 0)"/>
     <use xlink:href="#DejaVuSans-Oblique-69" transform="translate(1536.914062 0)"/>
     <use xlink:href="#DejaVuSans-Oblique-6d" transform="translate(1564.697266 0)"/>
     <use xlink:href="#DejaVuSans-Oblique-70" transform="translate(1662.109375 0)"/>
     <use xlink:href="#DejaVuSans-Oblique-6c" transform="translate(1725.585938 0)"/>
     <use xlink:href="#DejaVuSans-Oblique-79" transform="translate(1753.369141 0)"/>
     <use xlink:href="#DejaVuSans-Oblique-20" transform="translate(1812.548828 0)"/>
     <use xlink:href="#DejaVuSans-Oblique-68" transform="translate(1844.335938 0)"/>
     <use xlink:href="#DejaVuSans-Oblique-6f" transform="translate(1907.714844 0)"/>
     <use xlink:href="#DejaVuSans-Oblique-6c" transform="translate(1968.896484 0)"/>
     <use xlink:href="#DejaVuSans-Oblique-64" transform="translate(1996.679688 0)"/>
     <use xlink:href="#DejaVuSans-Oblique-69" transform="translate(2060.15625 0)"/>
     <use xlink:href="#DejaVuSans-Oblique-6e" transform="translate(2087.939453 0)"/>
     <use xlink:href="#DejaVuSans-Oblique-67" transform="translate(2151.318359 0)"/>
     <use xlink:href="#DejaVuSans-Oblique-20" transform="translate(2214.794922 0)"/>
     <use xlink:href="#DejaVuSans-Oblique-74" transform="translate(2246.582031 0)"/>
     <use xlink:href="#DejaVuSans-Oblique-68" transform="translate(2285.791016 0)"/>
     <use xlink:href="#DejaVuSans-Oblique-65" transform="translate(2349.169922 0)"/>
     <use xlink:href="#DejaVuSans-Oblique-20" transform="translate(2410.693359 0)"/>
     <use xlink:href="#DejaVuSans-Oblique-73" transform="translate(2442.480469 0)"/>
     <use xlink:href="#DejaVuSans-Oblique-65" transform="translate(2494.580078 0)"/>
     <use xlink:href="#DejaVuSans-Oblique-72" transform="translate(2556.103516 0)"/>
     <use xlink:href="#DejaVuSans-Oblique-69" transform="translate(2597.216797 0)"/>
     <use xlink:href="#DejaVuSans-Oblique-65" transform="translate(2625 0)"/>
     <use xlink:href="#DejaVuSans-Oblique-73" transform="translate(2686.523438 0)"/>
     <use xlink:href="#DejaVuSans-Oblique-3f" transform="translate(2738.623047 0)"/>
    </g>
   </g>
   <g id="text_18">
    <g id="patch_5">
     <path d="M 329.381469 271.183767 
L 490.918813 271.183767 
Q 493.618812 271.183767 493.618812 268.483767 
L 493.618812 249.695424 
Q 493.618812 246.995424 490.918813 246.995424 
L 329.381469 246.995424 
Q 326.681469 246.995424 326.681469 249.695424 
L 326.681469 268.483767 
Q 326.681469 271.183767 329.381469 271.183767 
z
" style="fill: #f6f8fa; stroke: #d0d7de; stroke-linejoin: miter"/>
    </g>
    <!-- Strategy outperformed the baseline -->
    <g style="fill: #57606a" transform="translate(329.381469 256.534018) scale(0.09 -0.09)">
     <defs>
      <path id="DejaVuSans-53" d="M 3425 4513 
L 3425 3897 
Q 3066 4069 2747 4153 
Q 2428 4238 2131 4238 
Q 1616 4238 1336 4038 
Q 1056 3838 1056 3469 
Q 1056 3159 1242 3001 
Q 1428 2844 1947 2747 
L 2328 2669 
Q 3034 2534 3370 2195 
Q 3706 1856 3706 1288 
Q 3706 609 3251 259 
Q 2797 -91 1919 -91 
Q 1588 -91 1214 -16 
Q 841 59 441 206 
L 441 856 
Q 825 641 1194 531 
Q 1563 422 1919 422 
Q 2459 422 2753 634 
Q 3047 847 3047 1241 
Q 3047 1584 2836 1778 
Q 2625 1972 2144 2069 
L 1759 2144 
Q 1053 2284 737 2584 
Q 422 2884 422 3419 
Q 422 4038 858 4394 
Q 1294 4750 2059 4750 
Q 2388 4750 2728 4690 
Q 3069 4631 3425 4513 
z
" transform="scale(0.015625)"/>
      <path id="DejaVuSans-67" d="M 2906 1791 
Q 2906 2416 2648 2759 
Q 2391 3103 1925 3103 
Q 1463 3103 1205 2759 
Q 947 2416 947 1791 
Q 947 1169 1205 825 
Q 1463 481 1925 481 
Q 2391 481 2648 825 
Q 2906 1169 2906 1791 
z
M 3481 434 
Q 3481 -459 3084 -895 
Q 2688 -1331 1869 -1331 
Q 1566 -1331 1297 -1286 
Q 1028 -1241 775 -1147 
L 775 -588 
Q 1028 -725 1275 -790 
Q 1522 -856 1778 -856 
Q 2344 -856 2625 -561 
Q 2906 -266 2906 331 
L 2906 616 
Q 2728 306 2450 153 
Q 2172 0 1784 0 
Q 1141 0 747 490 
Q 353 981 353 1791 
Q 353 2603 747 3093 
Q 1141 3584 1784 3584 
Q 2172 3584 2450 3431 
Q 2728 3278 2906 2969 
L 2906 3500 
L 3481 3500 
L 3481 434 
z
" transform="scale(0.015625)"/>
      <path id="DejaVuSans-79" d="M 2059 -325 
Q 1816 -950 1584 -1140 
Q 1353 -1331 966 -1331 
L 506 -1331 
L 506 -850 
L 844 -850 
Q 1081 -850 1212 -737 
Q 1344 -625 1503 -206 
L 1606 56 
L 191 3500 
L 800 3500 
L 1894 763 
L 2988 3500 
L 3597 3500 
L 2059 -325 
z
" transform="scale(0.015625)"/>
      <path id="DejaVuSans-6f" d="M 1959 3097 
Q 1497 3097 1228 2736 
Q 959 2375 959 1747 
Q 959 1119 1226 758 
Q 1494 397 1959 397 
Q 2419 397 2687 759 
Q 2956 1122 2956 1747 
Q 2956 2369 2687 2733 
Q 2419 3097 1959 3097 
z
M 1959 3584 
Q 2709 3584 3137 3096 
Q 3566 2609 3566 1747 
Q 3566 888 3137 398 
Q 2709 -91 1959 -91 
Q 1206 -91 779 398 
Q 353 888 353 1747 
Q 353 2609 779 3096 
Q 1206 3584 1959 3584 
z
" transform="scale(0.015625)"/>
      <path id="DejaVuSans-70" d="M 1159 525 
L 1159 -1331 
L 581 -1331 
L 581 3500 
L 1159 3500 
L 1159 2969 
Q 1341 3281 1617 3432 
Q 1894 3584 2278 3584 
Q 2916 3584 3314 3078 
Q 3713 2572 3713 1747 
Q 3713 922 3314 415 
Q 2916 -91 2278 -91 
Q 1894 -91 1617 61 
Q 1341 213 1159 525 
z
M 3116 1747 
Q 3116 2381 2855 2742 
Q 2594 3103 2138 3103 
Q 1681 3103 1420 2742 
Q 1159 2381 1159 1747 
Q 1159 1113 1420 752 
Q 1681 391 2138 391 
Q 2594 391 2855 752 
Q 3116 1113 3116 1747 
z
" transform="scale(0.015625)"/>
      <path id="DejaVuSans-66" d="M 2375 4863 
L 2375 4384 
L 1825 4384 
Q 1516 4384 1395 4259 
Q 1275 4134 1275 3809 
L 1275 3500 
L 2222 3500 
L 2222 3053 
L 1275 3053 
L 1275 0 
L 697 0 
L 697 3053 
L 147 3053 
L 147 3500 
L 697 3500 
L 697 3744 
Q 697 4328 969 4595 
Q 1241 4863 1831 4863 
L 2375 4863 
z
" transform="scale(0.015625)"/>
      <path id="DejaVuSans-64" d="M 2906 2969 
L 2906 4863 
L 3481 4863 
L 3481 0 
L 2906 0 
L 2906 525 
Q 2725 213 2448 61 
Q 2172 -91 1784 -91 
Q 1150 -91 751 415 
Q 353 922 353 1747 
Q 353 2572 751 3078 
Q 1150 3584 1784 3584 
Q 2172 3584 2448 3432 
Q 2725 3281 2906 2969 
z
M 947 1747 
Q 947 1113 1208 752 
Q 1469 391 1925 391 
Q 2381 391 2643 752 
Q 2906 1113 2906 1747 
Q 2906 2381 2643 2742 
Q 2381 3103 1925 3103 
Q 1469 3103 1208 2742 
Q 947 2381 947 1747 
z
" transform="scale(0.015625)"/>
      <path id="DejaVuSans-68" d="M 3513 2113 
L 3513 0 
L 2938 0 
L 2938 2094 
Q 2938 2591 2744 2837 
Q 2550 3084 2163 3084 
Q 1697 3084 1428 2787 
Q 1159 2491 1159 1978 
L 1159 0 
L 581 0 
L 581 4863 
L 1159 4863 
L 1159 2956 
Q 1366 3272 1645 3428 
Q 1925 3584 2291 3584 
Q 2894 3584 3203 3211 
Q 3513 2838 3513 2113 
z
" transform="scale(0.015625)"/>
      <path id="DejaVuSans-62" d="M 3116 1747 
Q 3116 2381 2855 2742 
Q 2594 3103 2138 3103 
Q 1681 3103 1420 2742 
Q 1159 2381 1159 1747 
Q 1159 1113 1420 752 
Q 1681 391 2138 391 
Q 2594 391 2855 752 
Q 3116 1113 3116 1747 
z
M 1159 2969 
Q 1341 3281 1617 3432 
Q 1894 3584 2278 3584 
Q 2916 3584 3314 3078 
Q 3713 2572 3713 1747 
Q 3713 922 3314 415 
Q 2916 -91 2278 -91 
Q 1894 -91 1617 61 
Q 1341 213 1159 525 
L 1159 0 
L 581 0 
L 581 4863 
L 1159 4863 
L 1159 2969 
z
" transform="scale(0.015625)"/>
      <path id="DejaVuSans-73" d="M 2834 3397 
L 2834 2853 
Q 2591 2978 2328 3040 
Q 2066 3103 1784 3103 
Q 1356 3103 1142 2972 
Q 928 2841 928 2578 
Q 928 2378 1081 2264 
Q 1234 2150 1697 2047 
L 1894 2003 
Q 2506 1872 2764 1633 
Q 3022 1394 3022 966 
Q 3022 478 2636 193 
Q 2250 -91 1575 -91 
Q 1294 -91 989 -36 
Q 684 19 347 128 
L 347 722 
Q 666 556 975 473 
Q 1284 391 1588 391 
Q 1994 391 2212 530 
Q 2431 669 2431 922 
Q 2431 1156 2273 1281 
Q 2116 1406 1581 1522 
L 1381 1569 
Q 847 1681 609 1914 
Q 372 2147 372 2553 
Q 372 3047 722 3315 
Q 1072 3584 1716 3584 
Q 2034 3584 2315 3537 
Q 2597 3491 2834 3397 
z
" transform="scale(0.015625)"/>
     </defs>
     <use xlink:href="#DejaVuSans-53"/>
     <use xlink:href="#DejaVuSans-74" transform="translate(63.476562 0)"/>
     <use xlink:href="#DejaVuSans-72" transform="translate(102.685547 0)"/>
     <use xlink:href="#DejaVuSans-61" transform="translate(143.798828 0)"/>
     <use xlink:href="#DejaVuSans-74" transform="translate(205.078125 0)"/>
     <use xlink:href="#DejaVuSans-65" transform="translate(244.287109 0)"/>
     <use xlink:href="#DejaVuSans-67" transform="translate(305.810547 0)"/>
     <use xlink:href="#DejaVuSans-79" transform="translate(369.287109 0)"/>
     <use xlink:href="#DejaVuSans-20" transform="translate(428.466797 0)"/>
     <use xlink:href="#DejaVuSans-6f" transform="translate(460.253906 0)"/>
     <use xlink:href="#DejaVuSans-75" transform="translate(521.435547 0)"/>
     <use xlink:href="#DejaVuSans-74" transform="translate(584.814453 0)"/>
     <use xlink:href="#DejaVuSans-70" transform="translate(624.023438 0)"/>
     <use xlink:href="#DejaVuSans-65" transform="translate(687.5 0)"/>
     <use xlink:href="#DejaVuSans-72" transform="translate(749.023438 0)"/>
     <use xlink:href="#DejaVuSans-66" transform="translate(790.136719 0)"/>
     <use xlink:href="#DejaVuSans-6f" transform="translate(825.341797 0)"/>
     <use xlink:href="#DejaVuSans-72" transform="translate(886.523438 0)"/>
     <use xlink:href="#DejaVuSans-6d" transform="translate(925.886719 0)"/>
     <use xlink:href="#DejaVuSans-65" transform="translate(1023.298828 0)"/>
     <use xlink:href="#DejaVuSans-64" transform="translate(1084.822266 0)"/>
     <use xlink:href="#DejaVuSans-20" transform="translate(1148.298828 0)"/>
     <use xlink:href="#DejaVuSans-74" transform="translate(1180.085938 0)"/>
     <use xlink:href="#DejaVuSans-68" transform="translate(1219.294922 0)"/>
     <use xlink:href="#DejaVuSans-65" transform="translate(1282.673828 0)"/>
     <use xlink:href="#DejaVuSans-20" transform="translate(1344.197266 0)"/>
     <use xlink:href="#DejaVuSans-62" transform="translate(1375.984375 0)"/>
     <use xlink:href="#DejaVuSans-61" transform="translate(1439.460938 0)"/>
     <use xlink:href="#DejaVuSans-73" transform="translate(1500.740234 0)"/>
     <use xlink:href="#DejaVuSans-65" transform="translate(1552.839844 0)"/>
     <use xlink:href="#DejaVuSans-6c" transform="translate(1614.363281 0)"/>
     <use xlink:href="#DejaVuSans-69" transform="translate(1642.146484 0)"/>
     <use xlink:href="#DejaVuSans-6e" transform="translate(1669.929688 0)"/>
     <use xlink:href="#DejaVuSans-65" transform="translate(1733.308594 0)"/>
    </g>
    <!-- (+11.8% vs -23.0%) -->
    <g style="fill: #57606a" transform="translate(400.190375 266.612049) scale(0.09 -0.09)">
     <defs>
      <path id="DejaVuSans-2b" d="M 2944 4013 
L 2944 2272 
L 4684 2272 
L 4684 1741 
L 2944 1741 
L 2944 0 
L 2419 0 
L 2419 1741 
L 678 1741 
L 678 2272 
L 2419 2272 
L 2419 4013 
L 2944 4013 
z
" transform="scale(0.015625)"/>
      <path id="DejaVuSans-2e" d="M 684 794 
L 1344 794 
L 1344 0 
L 684 0 
L 684 794 
z
" transform="scale(0.015625)"/>
      <path id="DejaVuSans-38" d="M 2034 2216 
Q 1584 2216 1326 1975 
Q 1069 1734 1069 1313 
Q 1069 891 1326 650 
Q 1584 409 2034 409 
Q 2484 409 2743 651 
Q 3003 894 3003 1313 
Q 3003 1734 2745 1975 
Q 2488 2216 2034 2216 
z
M 1403 2484 
Q 997 2584 770 2862 
Q 544 3141 544 3541 
Q 544 4100 942 4425 
Q 1341 4750 2034 4750 
Q 2731 4750 3128 4425 
Q 3525 4100 3525 3541 
Q 3525 3141 3298 2862 
Q 3072 2584 2669 2484 
Q 3125 2378 3379 2068 
Q 3634 1759 3634 1313 
Q 3634 634 3220 271 
Q 2806 -91 2034 -91 
Q 1263 -91 848 271 
Q 434 634 434 1313 
Q 434 1759 690 2068 
Q 947 2378 1403 2484 
z
M 1172 3481 
Q 1172 3119 1398 2916 
Q 1625 2713 2034 2713 
Q 2441 2713 2670 2916 
Q 2900 3119 2900 3481 
Q 2900 3844 2670 4047 
Q 2441 4250 2034 4250 
Q 1625 4250 1398 4047 
Q 1172 3844 1172 3481 
z
" transform="scale(0.015625)"/>
     </defs>
     <use xlink:href="#DejaVuSans-28"/>
     <use xlink:href="#DejaVuSans-2b" transform="translate(39.013672 0)"/>
     <use xlink:href="#DejaVuSans-31" transform="translate(122.802734 0)"/>
     <use xlink:href="#DejaVuSans-31" transform="translate(186.425781 0)"/>
     <use xlink:href="#DejaVuSans-2e" transform="translate(250.048828 0)"/>
     <use xlink:href="#DejaVuSans-38" transform="translate(281.835938 0)"/>
     <use xlink:href="#DejaVuSans-25" transform="translate(345.458984 0)"/>
     <use xlink:href="#DejaVuSans-20" transform="translate(440.478516 0)"/>
     <use xlink:href="#DejaVuSans-76" transform="translate(472.265625 0)"/>
     <use xlink:href="#DejaVuSans-73" transform="translate(531.445312 0)"/>
     <use xlink:href="#DejaVuSans-20" transform="translate(583.544922 0)"/>
     <use xlink:href="#DejaVuSans-2d" transform="translate(615.332031 0)"/>
     <use xlink:href="#DejaVuSans-32" transform="translate(651.416016 0)"/>
     <use xlink:href="#DejaVuSans-33" transform="translate(715.039062 0)"/>
     <use xlink:href="#DejaVuSans-2e" transform="translate(778.662109 0)"/>
     <use xlink:href="#DejaVuSans-30" transform="translate(810.449219 0)"/>
     <use xlink:href="#DejaVuSans-25" transform="translate(874.072266 0)"/>
     <use xlink:href="#DejaVuSans-29" transform="translate(969.091797 0)"/>
    </g>
   </g>
   <g id="text_19">
    <!-- Strategy vs Baseline: Cumulative Return -->
    <g transform="translate(123.157109 17.077969) scale(0.13 -0.13)">
     <defs>
      <path id="DejaVuSans-Bold-53" d="M 3834 4519 
L 3834 3531 
Q 3450 3703 3084 3790 
Q 2719 3878 2394 3878 
Q 1963 3878 1756 3759 
Q 1550 3641 1550 3391 
Q 1550 3203 1689 3098 
Q 1828 2994 2194 2919 
L 2706 2816 
Q 3484 2659 3812 2340 
Q 4141 2022 4141 1434 
Q 4141 663 3683 286 
Q 3225 -91 2284 -91 
Q 1841 -91 1394 -6 
Q 947 78 500 244 
L 500 1259 
Q 947 1022 1364 901 
Q 1781 781 2169 781 
Q 2563 781 2772 912 
Q 2981 1044 2981 1288 
Q 2981 1506 2839 1625 
Q 2697 1744 2272 1838 
L 1806 1941 
Q 1106 2091 782 2419 
Q 459 2747 459 3303 
Q 459 4000 909 4375 
Q 1359 4750 2203 4750 
Q 2588 4750 2994 4692 
Q 3400 4634 3834 4519 
z
" transform="scale(0.015625)"/>
      <path id="DejaVuSans-Bold-74" d="M 1759 4494 
L 1759 3500 
L 2913 3500 
L 2913 2700 
L 1759 2700 
L 1759 1216 
Q 1759 972 1856 886 
Q 1953 800 2241 800 
L 2816 800 
L 2816 0 
L 1856 0 
Q 1194 0 917 276 
Q 641 553 641 1216 
L 641 2700 
L 84 2700 
L 84 3500 
L 641 3500 
L 641 4494 
L 1759 4494 
z
" transform="scale(0.015625)"/>
      <path id="DejaVuSans-Bold-72" d="M 3138 2547 
Q 2991 2616 2845 2648 
Q 2700 2681 2553 2681 
Q 2122 2681 1889 2404 
Q 1656 2128 1656 1613 
L 1656 0 
L 538 0 
L 538 3500 
L 1656 3500 
L 1656 2925 
Q 1872 3269 2151 3426 
Q 2431 3584 2822 3584 
Q 2878 3584 2943 3579 
Q 3009 3575 3134 3559 
L 3138 2547 
z
" transform="scale(0.015625)"/>
      <path id="DejaVuSans-Bold-61" d="M 2106 1575 
Q 1756 1575 1579 1456 
Q 1403 1338 1403 1106 
Q 1403 894 1545 773 
Q 1688 653 1941 653 
Q 2256 653 2472 879 
Q 2688 1106 2688 1447 
L 2688 1575 
L 2106 1575 
z
M 3816 1997 
L 3816 0 
L 2688 0 
L 2688 519 
Q 2463 200 2181 54 
Q 1900 -91 1497 -91 
Q 953 -91 614 226 
Q 275 544 275 1050 
Q 275 1666 698 1953 
Q 1122 2241 2028 2241 
L 2688 2241 
L 2688 2328 
Q 2688 2594 2478 2717 
Q 2269 2841 1825 2841 
Q 1466 2841 1156 2769 
Q 847 2697 581 2553 
L 581 3406 
Q 941 3494 1303 3539 
Q 1666 3584 2028 3584 
Q 2975 3584 3395 3211 
Q 3816 2838 3816 1997 
z
" transform="scale(0.015625)"/>
      <path id="DejaVuSans-Bold-65" d="M 4031 1759 
L 4031 1441 
L 1416 1441 
Q 1456 1047 1700 850 
Q 1944 653 2381 653 
Q 2734 653 3104 758 
Q 3475 863 3866 1075 
L 3866 213 
Q 3469 63 3072 -14 
Q 2675 -91 2278 -91 
Q 1328 -91 801 392 
Q 275 875 275 1747 
Q 275 2603 792 3093 
Q 1309 3584 2216 3584 
Q 3041 3584 3536 3087 
Q 4031 2591 4031 1759 
z
M 2881 2131 
Q 2881 2450 2695 2645 
Q 2509 2841 2209 2841 
Q 1884 2841 1681 2658 
Q 1478 2475 1428 2131 
L 2881 2131 
z
" transform="scale(0.015625)"/>
      <path id="DejaVuSans-Bold-67" d="M 2919 594 
Q 2688 288 2409 144 
Q 2131 0 1766 0 
Q 1125 0 706 504 
Q 288 1009 288 1791 
Q 288 2575 706 3076 
Q 1125 3578 1766 3578 
Q 2131 3578 2409 3434 
Q 2688 3291 2919 2981 
L 2919 3500 
L 4044 3500 
L 4044 353 
Q 4044 -491 3511 -936 
Q 2978 -1381 1966 -1381 
Q 1638 -1381 1331 -1331 
Q 1025 -1281 716 -1178 
L 716 -306 
Q 1009 -475 1290 -558 
Q 1572 -641 1856 -641 
Q 2406 -641 2662 -400 
Q 2919 -159 2919 353 
L 2919 594 
z
M 2181 2772 
Q 1834 2772 1640 2515 
Q 1447 2259 1447 1791 
Q 1447 1309 1634 1061 
Q 1822 813 2181 813 
Q 2531 813 2725 1069 
Q 2919 1325 2919 1791 
Q 2919 2259 2725 2515 
Q 2531 2772 2181 2772 
z
" transform="scale(0.015625)"/>
      <path id="DejaVuSans-Bold-79" d="M 78 3500 
L 1197 3500 
L 2138 1125 
L 2938 3500 
L 4056 3500 
L 2584 -331 
Q 2363 -916 2067 -1148 
Q 1772 -1381 1288 -1381 
L 641 -1381 
L 641 -647 
L 991 -647 
Q 1275 -647 1404 -556 
Q 1534 -466 1606 -231 
L 1638 -134 
L 78 3500 
z
" transform="scale(0.015625)"/>
      <path id="DejaVuSans-Bold-20" transform="scale(0.015625)"/>
      <path id="DejaVuSans-Bold-76" d="M 97 3500 
L 1216 3500 
L 2088 1081 
L 2956 3500 
L 4078 3500 
L 2700 0 
L 1472 0 
L 97 3500 
z
" transform="scale(0.015625)"/>
      <path id="DejaVuSans-Bold-73" d="M 3272 3391 
L 3272 2541 
Q 2913 2691 2578 2766 
Q 2244 2841 1947 2841 
Q 1628 2841 1473 2761 
Q 1319 2681 1319 2516 
Q 1319 2381 1436 2309 
Q 1553 2238 1856 2203 
L 2053 2175 
Q 2913 2066 3209 1816 
Q 3506 1566 3506 1031 
Q 3506 472 3093 190 
Q 2681 -91 1863 -91 
Q 1516 -91 1145 -36 
Q 775 19 384 128 
L 384 978 
Q 719 816 1070 734 
Q 1422 653 1784 653 
Q 2113 653 2278 743 
Q 2444 834 2444 1013 
Q 2444 1163 2330 1236 
Q 2216 1309 1875 1350 
L 1678 1375 
Q 931 1469 631 1722 
Q 331 1975 331 2491 
Q 331 3047 712 3315 
Q 1094 3584 1881 3584 
Q 2191 3584 2531 3537 
Q 2872 3491 3272 3391 
z
" transform="scale(0.015625)"/>
      <path id="DejaVuSans-Bold-42" d="M 2456 2859 
Q 2741 2859 2887 2984 
Q 3034 3109 3034 3353 
Q 3034 3594 2887 3720 
Q 2741 3847 2456 3847 
L 1791 3847 
L 1791 2859 
L 2456 2859 
z
M 2497 819 
Q 2859 819 3042 972 
Q 3225 1125 3225 1434 
Q 3225 1738 3044 1889 
Q 2863 2041 2497 2041 
L 1791 2041 
L 1791 819 
L 2497 819 
z
M 3616 2497 
Q 4003 2384 4215 2081 
Q 4428 1778 4428 1338 
Q 4428 663 3972 331 
Q 3516 0 2584 0 
L 588 0 
L 588 4666 
L 2394 4666 
Q 3366 4666 3802 4372 
Q 4238 4078 4238 3431 
Q 4238 3091 4078 2852 
Q 3919 2613 3616 2497 
z
" transform="scale(0.015625)"/>
      <path id="DejaVuSans-Bold-6c" d="M 538 4863 
L 1656 4863 
L 1656 0 
L 538 0 
L 538 4863 
z
" transform="scale(0.015625)"/>
      <path id="DejaVuSans-Bold-69" d="M 538 3500 
L 1656 3500 
L 1656 0 
L 538 0 
L 538 3500 
z
M 538 4863 
L 1656 4863 
L 1656 3950 
L 538 3950 
L 538 4863 
z
" transform="scale(0.015625)"/>
      <path id="DejaVuSans-Bold-6e" d="M 4056 2131 
L 4056 0 
L 2931 0 
L 2931 347 
L 2931 1631 
Q 2931 2084 2911 2256 
Q 2891 2428 2841 2509 
Q 2775 2619 2662 2680 
Q 2550 2741 2406 2741 
Q 2056 2741 1856 2470 
Q 1656 2200 1656 1722 
L 1656 0 
L 538 0 
L 538 3500 
L 1656 3500 
L 1656 2988 
Q 1909 3294 2193 3439 
Q 2478 3584 2822 3584 
Q 3428 3584 3742 3212 
Q 4056 2841 4056 2131 
z
" transform="scale(0.015625)"/>
      <path id="DejaVuSans-Bold-3a" d="M 716 3500 
L 1844 3500 
L 1844 2291 
L 716 2291 
L 716 3500 
z
M 716 1209 
L 1844 1209 
L 1844 0 
L 716 0 
L 716 1209 
z
" transform="scale(0.015625)"/>
      <path id="DejaVuSans-Bold-43" d="M 4288 256 
Q 3956 84 3597 -3 
Q 3238 -91 2847 -91 
Q 1681 -91 1000 561 
Q 319 1213 319 2328 
Q 319 3447 1000 4098 
Q 1681 4750 2847 4750 
Q 3238 4750 3597 4662 
Q 3956 4575 4288 4403 
L 4288 3438 
Q 3953 3666 3628 3772 
Q 3303 3878 2944 3878 
Q 2300 3878 1931 3465 
Q 1563 3053 1563 2328 
Q 1563 1606 1931 1193 
Q 2300 781 2944 781 
Q 3303 781 3628 887 
Q 3953 994 4288 1222 
L 4288 256 
z
" transform="scale(0.015625)"/>
      <path id="DejaVuSans-Bold-75" d="M 500 1363 
L 500 3500 
L 1625 3500 
L 1625 3150 
Q 1625 2866 1622 2436 
Q 1619 2006 1619 1863 
Q 1619 1441 1641 1255 
Q 1663 1069 1716 984 
Q 1784 875 1895 815 
Q 2006 756 2150 756 
Q 2500 756 2700 1025 
Q 2900 1294 2900 1772 
L 2900 3500 
L 4019 3500 
L 4019 0 
L 2900 0 
L 2900 506 
Q 2647 200 2364 54 
Q 2081 -91 1741 -91 
Q 1134 -91 817 281 
Q 500 653 500 1363 
z
" transform="scale(0.015625)"/>
      <path id="DejaVuSans-Bold-6d" d="M 3781 2919 
Q 3994 3244 4286 3414 
Q 4578 3584 4928 3584 
Q 5531 3584 5847 3212 
Q 6163 2841 6163 2131 
L 6163 0 
L 5038 0 
L 5038 1825 
Q 5041 1866 5042 1909 
Q 5044 1953 5044 2034 
Q 5044 2406 4934 2573 
Q 4825 2741 4581 2741 
Q 4263 2741 4089 2478 
Q 3916 2216 3909 1719 
L 3909 0 
L 2784 0 
L 2784 1825 
Q 2784 2406 2684 2573 
Q 2584 2741 2328 2741 
Q 2006 2741 1831 2477 
Q 1656 2213 1656 1722 
L 1656 0 
L 531 0 
L 531 3500 
L 1656 3500 
L 1656 2988 
Q 1863 3284 2130 3434 
Q 2397 3584 2719 3584 
Q 3081 3584 3359 3409 
Q 3638 3234 3781 2919 
z
" transform="scale(0.015625)"/>
      <path id="DejaVuSans-Bold-52" d="M 2297 2597 
Q 2675 2597 2839 2737 
Q 3003 2878 3003 3200 
Q 3003 3519 2839 3656 
Q 2675 3794 2297 3794 
L 1791 3794 
L 1791 2597 
L 2297 2597 
z
M 1791 1766 
L 1791 0 
L 588 0 
L 588 4666 
L 2425 4666 
Q 3347 4666 3776 4356 
Q 4206 4047 4206 3378 
Q 4206 2916 3982 2619 
Q 3759 2322 3309 2181 
Q 3556 2125 3751 1926 
Q 3947 1728 4147 1325 
L 4800 0 
L 3519 0 
L 2950 1159 
Q 2778 1509 2601 1637 
Q 2425 1766 2131 1766 
L 1791 1766 
z
" transform="scale(0.015625)"/>
     </defs>
     <use xlink:href="#DejaVuSans-Bold-53"/>
     <use xlink:href="#DejaVuSans-Bold-74" transform="translate(72.021484 0)"/>
     <use xlink:href="#DejaVuSans-Bold-72" transform="translate(119.824219 0)"/>
     <use xlink:href="#DejaVuSans-Bold-61" transform="translate(169.140625 0)"/>
     <use xlink:href="#DejaVuSans-Bold-74" transform="translate(236.621094 0)"/>
     <use xlink:href="#DejaVuSans-Bold-65" transform="translate(284.423828 0)"/>
     <use xlink:href="#DejaVuSans-Bold-67" transform="translate(352.246094 0)"/>
     <use xlink:href="#DejaVuSans-Bold-79" transform="translate(423.828125 0)"/>
     <use xlink:href="#DejaVuSans-Bold-20" transform="translate(489.013672 0)"/>
     <use xlink:href="#DejaVuSans-Bold-76" transform="translate(523.828125 0)"/>
     <use xlink:href="#DejaVuSans-Bold-73" transform="translate(589.013672 0)"/>
     <use xlink:href="#DejaVuSans-Bold-20" transform="translate(648.535156 0)"/>
     <use xlink:href="#DejaVuSans-Bold-42" transform="translate(683.349609 0)"/>
     <use xlink:href="#DejaVuSans-Bold-61" transform="translate(759.570312 0)"/>
     <use xlink:href="#DejaVuSans-Bold-73" transform="translate(827.050781 0)"/>
     <use xlink:href="#DejaVuSans-Bold-65" transform="translate(886.572266 0)"/>
     <use xlink:href="#DejaVuSans-Bold-6c" transform="translate(954.394531 0)"/>
     <use xlink:href="#DejaVuSans-Bold-69" transform="translate(988.671875 0)"/>
     <use xlink:href="#DejaVuSans-Bold-6e" transform="translate(1022.949219 0)"/>
     <use xlink:href="#DejaVuSans-Bold-65" transform="translate(1094.140625 0)"/>
     <use xlink:href="#DejaVuSans-Bold-3a" transform="translate(1161.962891 0)"/>
     <use xlink:href="#DejaVuSans-Bold-20" transform="translate(1201.953125 0)"/>
     <use xlink:href="#DejaVuSans-Bold-43" transform="translate(1236.767578 0)"/>
     <use xlink:href="#DejaVuSans-Bold-75" transform="translate(1310.15625 0)"/>
     <use xlink:href="#DejaVuSans-Bold-6d" transform="translate(1381.347656 0)"/>
     <use xlink:href="#DejaVuSans-Bold-75" transform="translate(1485.546875 0)"/>
     <use xlink:href="#DejaVuSans-Bold-6c" transform="translate(1556.738281 0)"/>
     <use xlink:href="#DejaVuSans-Bold-61" transform="translate(1591.015625 0)"/>
     <use xlink:href="#DejaVuSans-Bold-74" transform="translate(1658.496094 0)"/>
     <use xlink:href="#DejaVuSans-Bold-69" transform="translate(1706.298828 0)"/>
     <use xlink:href="#DejaVuSans-Bold-76" transform="translate(1740.576172 0)"/>
     <use xlink:href="#DejaVuSans-Bold-65" transform="translate(1805.761719 0)"/>
     <use xlink:href="#DejaVuSans-Bold-20" transform="translate(1873.583984 0)"/>
     <use xlink:href="#DejaVuSans-Bold-52" transform="translate(1908.398438 0)"/>
     <use xlink:href="#DejaVuSans-Bold-65" transform="translate(1985.400391 0)"/>
     <use xlink:href="#DejaVuSans-Bold-74" transform="translate(2053.222656 0)"/>
     <use xlink:href="#DejaVuSans-Bold-75" transform="translate(2101.025391 0)"/>
     <use xlink:href="#DejaVuSans-Bold-72" transform="translate(2172.216797 0)"/>
     <use xlink:href="#DejaVuSans-Bold-6e" transform="translate(2221.533203 0)"/>
    </g>
   </g>
   <g id="legend_1">
    <g id="line2d_34">
     <path d="M 57.982813 56.176406 
L 67.982813 56.176406 
L 77.982813 56.176406 
" style="fill: none; stroke: #1f6feb; stroke-width: 2; stroke-linecap: square"/>
    </g>
    <g id="text_20">
     <!-- Strategy -->
     <g transform="translate(85.982813 59.676406) scale(0.1 -0.1)">
      <use xlink:href="#DejaVuSans-53"/>
      <use xlink:href="#DejaVuSans-74" transform="translate(63.476562 0)"/>
      <use xlink:href="#DejaVuSans-72" transform="translate(102.685547 0)"/>
      <use xlink:href="#DejaVuSans-61" transform="translate(143.798828 0)"/>
      <use xlink:href="#DejaVuSans-74" transform="translate(205.078125 0)"/>
      <use xlink:href="#DejaVuSans-65" transform="translate(244.287109 0)"/>
      <use xlink:href="#DejaVuSans-67" transform="translate(305.810547 0)"/>
      <use xlink:href="#DejaVuSans-79" transform="translate(369.287109 0)"/>
     </g>
    </g>
    <g id="line2d_35">
     <path d="M 57.982813 70.854531 
L 67.982813 70.854531 
L 77.982813 70.854531 
" style="fill: none; stroke-dasharray: 6.66,2.88; stroke-dashoffset: 0; stroke: #8b949e; stroke-width: 1.8"/>
    </g>
    <g id="text_21">
     <!-- Baseline (buy &amp; hold) -->
     <g transform="translate(85.982813 74.354531) scale(0.1 -0.1)">
      <defs>
       <path id="DejaVuSans-42" d="M 1259 2228 
L 1259 519 
L 2272 519 
Q 2781 519 3026 730 
Q 3272 941 3272 1375 
Q 3272 1813 3026 2020 
Q 2781 2228 2272 2228 
L 1259 2228 
z
M 1259 4147 
L 1259 2741 
L 2194 2741 
Q 2656 2741 2882 2914 
Q 3109 3088 3109 3444 
Q 3109 3797 2882 3972 
Q 2656 4147 2194 4147 
L 1259 4147 
z
M 628 4666 
L 2241 4666 
Q 2963 4666 3353 4366 
Q 3744 4066 3744 3513 
Q 3744 3084 3544 2831 
Q 3344 2578 2956 2516 
Q 3422 2416 3680 2098 
Q 3938 1781 3938 1306 
Q 3938 681 3513 340 
Q 3088 0 2303 0 
L 628 0 
L 628 4666 
z
" transform="scale(0.015625)"/>
       <path id="DejaVuSans-26" d="M 1556 2509 
Q 1272 2256 1139 2004 
Q 1006 1753 1006 1478 
Q 1006 1022 1337 719 
Q 1669 416 2169 416 
Q 2466 416 2725 514 
Q 2984 613 3213 813 
L 1556 2509 
z
M 1997 2859 
L 3584 1234 
Q 3769 1513 3872 1830 
Q 3975 2147 3994 2503 
L 4575 2503 
Q 4538 2091 4375 1687 
Q 4213 1284 3922 891 
L 4794 0 
L 4006 0 
L 3559 459 
Q 3234 181 2878 45 
Q 2522 -91 2113 -91 
Q 1359 -91 881 339 
Q 403 769 403 1441 
Q 403 1841 612 2192 
Q 822 2544 1241 2853 
Q 1091 3050 1012 3245 
Q 934 3441 934 3628 
Q 934 4134 1281 4442 
Q 1628 4750 2203 4750 
Q 2463 4750 2720 4694 
Q 2978 4638 3244 4525 
L 3244 3956 
Q 2972 4103 2725 4179 
Q 2478 4256 2266 4256 
Q 1938 4256 1733 4082 
Q 1528 3909 1528 3634 
Q 1528 3475 1620 3314 
Q 1713 3153 1997 2859 
z
" transform="scale(0.015625)"/>
      </defs>
      <use xlink:href="#DejaVuSans-42"/>
      <use xlink:href="#DejaVuSans-61" transform="translate(68.603516 0)"/>
      <use xlink:href="#DejaVuSans-73" transform="translate(129.882812 0)"/>
      <use xlink:href="#DejaVuSans-65" transform="translate(181.982422 0)"/>
      <use xlink:href="#DejaVuSans-6c" transform="translate(243.505859 0)"/>
      <use xlink:href="#DejaVuSans-69" transform="translate(271.289062 0)"/>
      <use xlink:href="#DejaVuSans-6e" transform="translate(299.072266 0)"/>
      <use xlink:href="#DejaVuSans-65" transform="translate(362.451172 0)"/>
      <use xlink:href="#DejaVuSans-20" transform="translate(423.974609 0)"/>
      <use xlink:href="#DejaVuSans-28" transform="translate(455.761719 0)"/>
      <use xlink:href="#DejaVuSans-62" transform="translate(494.775391 0)"/>
      <use xlink:href="#DejaVuSans-75" transform="translate(558.251953 0)"/>
      <use xlink:href="#DejaVuSans-79" transform="translate(621.630859 0)"/>
      <use xlink:href="#DejaVuSans-20" transform="translate(680.810547 0)"/>
      <use xlink:href="#DejaVuSans-26" transform="translate(712.597656 0)"/>
      <use xlink:href="#DejaVuSans-20" transform="translate(790.576172 0)"/>
      <use xlink:href="#DejaVuSans-68" transform="translate(822.363281 0)"/>
      <use xlink:href="#DejaVuSans-6f" transform="translate(885.742188 0)"/>
      <use xlink:href="#DejaVuSans-6c" transform="translate(946.923828 0)"/>
      <use xlink:href="#DejaVuSans-64" transform="translate(974.707031 0)"/>
      <use xlink:href="#DejaVuSans-29" transform="translate(1038.183594 0)"/>
     </g>
    </g>
   </g>
  </g>
 </g>
 <defs>
  <clipPath id="p4cc25cf2ab">
   <rect x="48.982813" y="43.077969" width="446.4" height="232.848"/>
  </clipPath>
 </defs>
</svg>
