<svg xmlns="http://www.w3.org/2000/svg" width="920" height="360" viewBox="0 0 920 360">
  <rect width="920" height="360" fill="#ffffff"/>
  <style>
    .axis{stroke:#111827;stroke-width:1.5}.grid{stroke:#e5e7eb;stroke-width:1}.title{font:700 20px Arial,sans-serif;fill:#111827}.label{font:13px Arial,sans-serif;fill:#374151}.legend{font:14px Arial,sans-serif;fill:#111827}.seriesA{fill:none;stroke:#2563eb;stroke-width:3}.seriesB{fill:none;stroke:#16a34a;stroke-width:3;stroke-dasharray:8 6}
  </style>
  <text class="title" x="40" y="35">Synthetic model output vs baseline</text>
  <line class="grid" x1="80" y1="80" x2="860" y2="80"/><line class="grid" x1="80" y1="140" x2="860" y2="140"/><line class="grid" x1="80" y1="200" x2="860" y2="200"/><line class="grid" x1="80" y1="260" x2="860" y2="260"/>
  <line class="axis" x1="80" y1="300" x2="860" y2="300"/><line class="axis" x1="80" y1="65" x2="80" y2="300"/>
  <path class="seriesB" d="M80,245 C180,230 260,235 340,205 C430,175 520,185 610,150 C700,135 780,110 860,125"/>
  <path class="seriesA" d="M80,245 C160,248 230,244 300,238 C380,258 450,250 520,272 C600,268 690,285 760,292 C820,296 845,290 860,286"/>
  <line x1="600" y1="37" x2="630" y2="37" class="seriesA"/><text class="legend" x="640" y="42">Model output</text><line x1="735" y1="37" x2="765" y2="37" class="seriesB"/><text class="legend" x="775" y="42">Baseline</text>
  <text class="label" x="70" y="320">Day 1</text><text class="label" x="815" y="320">Day 504</text><text class="label" x="20" y="85">1.20</text><text class="label" x="20" y="145">1.10</text><text class="label" x="20" y="205">1.00</text><text class="label" x="20" y="265">0.90</text><text class="label" x="340" y="345">Synthetic sequence index</text><text class="label" x="108" y="58">Normalized value</text>
</svg>
